<?xml version="1.0" standalone="no"?>
<!DOCTYPE svg PUBLIC "-//W3C//DTD SVG 1.1//EN" "http://www.w3.org/Graphics/SVG/1.1/DTD/svg11.dtd" >
<svg>
<metadata>
Created by FontForge 20090914 at Fri Oct 19 00:30:38 2012
 By www-data
</metadata>
<defs>
<font id="Noteworthy-Light" horiz-adv-x="367" >
  <font-face 
    font-family="Noteworthy"
    font-weight="300"
    font-stretch="normal"
    units-per-em="800"
    panose-1="2 0 4 0 0 0 0 0 0 0"
    ascent="640"
    descent="-160"
    x-height="423.999"
    cap-height="675"
    bbox="-364.001 -345 1044.99 1004"
    underline-thickness="20"
    underline-position="-123"
    unicode-range="U+0008-U+FE48"
  />
<missing-glyph horiz-adv-x="500" 
d="M63 0v800h375v-800h-375zM125 63h250v675h-250v-675z" />
    <glyph glyph-name=".notdef" horiz-adv-x="500" 
d="M63 0v800h375v-800h-375zM125 63h250v675h-250v-675z" />
    <glyph glyph-name="NULL" horiz-adv-x="0" 
 />
    <glyph glyph-name="NULL" horiz-adv-x="0" 
 />
    <glyph glyph-name="NULL" horiz-adv-x="0" 
 />
    <glyph glyph-name="space" unicode="&#x9;" horiz-adv-x="211" 
 />
    <glyph glyph-name="space" unicode=" " horiz-adv-x="211" 
 />
    <glyph glyph-name="nonmarkingreturn" unicode="&#xd;" horiz-adv-x="211" 
 />
    <glyph glyph-name="exclam" unicode="!" horiz-adv-x="209" 
d="M189 653c-4 -5.33301 -8.99902 -14.334 -14.999 -27.001c-26.667 -96 -43.334 -201.333 -50.001 -316c0 -4 -0.833008 -11.167 -2.5 -21.5s-2.5 -18.5 -2.5 -24.5c0 -8 5.33301 -33.333 16 -76c-2.66699 -2.66699 -7.33398 -6.66699 -14.001 -12
c-2.66699 -0.666992 -7.66699 -1 -15 -1c-9.33301 0 -16.666 1.33301 -21.999 4c-6.66699 13.333 -10 37.333 -10 72v10l29 348c0 2.66699 -2 10.834 -6 24.501s-6.33301 21.167 -7 22.5c15.333 13.333 32.333 20 51 20c16.667 0 32.667 -7.66699 48 -23zM158.001 57.999
c0 -46 -25.667 -69 -77 -69c-9.33301 0 -27 6 -53 18c-5.33301 10 -8 21 -8 33c0 20 5.66699 33.333 17 40c8 5.33301 22 8 42 8c52.667 0 79 -10 79 -30z" />
    <glyph glyph-name="quotedbl" unicode="&#x22;" horiz-adv-x="202" 
d="M182 659c0 -1.33301 -2.16797 -5.5 -6.50098 -12.5s-6.83301 -11.5 -7.5 -13.5c-4 -11.333 -6 -29.333 -6 -54c0 -8.66699 0.5 -21.5 1.5 -38.5s1.5 -29.833 1.5 -38.5c0 -25.333 -9.66699 -38 -29 -38c-12 0 -19.667 3.33301 -23 10c-1.33301 76.667 -2 119 -2 127
c0 10 1.33301 23.333 4 40c4 20.667 8.33301 31.667 13 33c2.66699 1.33301 6.33398 2 11.001 2c28.667 0 43 -5.66699 43 -17zM73.999 505c0 -27.333 -9.33203 -41 -27.999 -41c-12.667 0 -20.334 3.33301 -23.001 10c-2 90 -3 143.333 -3 160c0 32.667 9.33301 49 28 49
c6.66699 0 13.667 -4 21 -12v-9c0 -1.33301 0.333008 -3.83301 1 -7.5s1 -6.5 1 -8.5c0 -4.66699 -1 -11.5 -3 -20.5s-3 -15.833 -3 -20.5c0 -11.333 1.5 -28 4.5 -50s4.5 -38.667 4.5 -50z" />
    <glyph glyph-name="numbersign" unicode="#" horiz-adv-x="429" 
d="M409 492c0 -3.33301 -0.998047 -8.33203 -2.99805 -14.999s-3.33301 -11 -4 -13c-10.667 -2.66699 -15.334 -4 -14.001 -4c-2.66699 0 -6.83398 1.83301 -12.501 5.5s-9.5 5.83398 -11.5 6.50098c-5.33301 1.33301 -22.333 2.33301 -51 3
c-7.33301 -52.667 -17.666 -131.667 -30.999 -237c19.333 0.666992 30.333 1 33 1c14 0 26.333 -2.66699 37 -8c14 -6.66699 21 -16.334 21 -29.001c0 -3.33301 -1 -8.33301 -3 -15s-3 -11 -3 -13c-11.333 -2.66699 -16 -4 -14 -4c-2.66699 0 -6.83398 1.83301 -12.501 5.5
s-9.5 5.83398 -11.5 6.50098c-6 1.33301 -23.667 2.66602 -53 3.99902c-4 -42 -6 -87.333 -6 -136c0 -2.66699 1 -7.16699 3 -13.5s3 -10.833 3 -13.5c0 -8 -3.16699 -14.833 -9.5 -20.5s-13.5 -8.5 -21.5 -8.5c-20 0 -30 18 -30 54c0 37.333 4 84.333 12 141
c-12.667 1.33301 -27 2 -43 2c-14.667 0 -30.334 -0.666992 -47.001 -2c-0.666992 -8.66699 -4 -34.667 -10 -78c-4.66699 -31.333 -7 -57.333 -7 -78c0 -28.667 -10.333 -43 -31 -43c-4 0 -8.5 3.5 -13.5 10.5s-7.5 12.5 -7.5 16.5c0 18.667 6 73 18 163l-46 -18
c-4.66699 0 -9.16699 4.66699 -13.5 14s-6.5 17 -6.5 23c0 0.666992 1 9 3 25l69 4l32 243c-33.333 -12.667 -49.333 -19 -48 -19c-4.66699 0 -9.16699 4.66699 -13.5 14s-6.5 17 -6.5 23c0 0.666992 1 9 3 25l71 4c8 54.667 12 91.667 12 111c0 14 0.666992 26.333 2 37
c14 9.33301 25 14 33 14c9.33301 0 18 -3 26 -9s12 -13.333 12 -22c0 -7.33301 -2.33301 -16.666 -7 -27.999c-6.66699 -14.667 -10.667 -23.334 -12 -26.001c-2.66699 -10.667 -8 -35.667 -16 -75l91 5c4 26.667 10.333 76 19 148c16.667 11.333 26.334 17 29.001 17
c8.66699 0 17 -3 25 -9s12 -13.333 12 -22s-2.33301 -19.667 -7 -33c-8 -18.667 -12.333 -29 -13 -31c-4 -16.667 -8.66699 -39 -14 -67c16.667 0.666992 26 1 28 1c14 0 26.667 -2.66699 38 -8c14 -6.66699 21 -16.334 21 -29.001zM265.002 478.001
c-14 2 -28.999 3 -44.999 3c-14.667 0 -30.334 -0.666992 -47.001 -2l-32 -249l92 5z" />
    <glyph glyph-name="dollar" unicode="$" horiz-adv-x="451" 
d="M431 509c0 -20 -23.6699 -30.001 -71.0029 -30.001c-4 0 -10.167 0.5 -18.5 1.5s-14.5 1.5 -18.5 1.5c-11.333 0 -21 -3 -29 -9c-7.33301 -90.667 -11 -142.667 -11 -156l84 -23c36 -11.333 54 -29 54 -53c0 -27.333 -17.333 -48.333 -52 -63l-86 -30v-31
c-0.666992 -36 3 -70.333 11 -103l12 -6c-2 -17.333 -15 -25.666 -39 -24.999h-6c-4 8 -8.33301 20.333 -13 37c-4 20 -7 58.333 -9 115c-4 4 -18 6 -42 6c-30.667 0 -64.667 5 -102 15c-50 12.667 -75 29.334 -75 50.001c0 17.333 13.667 26 41 26
c9.33301 0 21 -5.33301 35 -16c20.667 -16.667 31.334 -25.334 32.001 -26.001c18.667 -11.333 50.334 -17 95.001 -17c5.33301 0 10 2 14 6v97c-48 20 -74.667 31.333 -80 34c-30 18 -45 40.333 -45 67c0 32 15.667 59.667 47 83c2 2 31.333 19 88 51v137
c0 10 5 18.333 15 25s20.333 10 31 10c6.66699 0 18.667 -5.66699 36 -17v-11c0 -2 -2.33301 -4.5 -7 -7.5s-7.66699 -5.16699 -9 -6.5c-3.33301 -4 -6.66602 -22 -9.99902 -54c-2.66699 -26 -4 -45.667 -4 -59c8.66699 0 21.167 1.66699 37.5 5s28.5 5 36.5 5
c38.667 0 58 -9.66699 58 -29zM241.997 327.999l0.000976562 134h-10c-38 -19.333 -57 -43.333 -57 -72c0 -11.333 5.66699 -24.5 17 -39.5s22.666 -22.5 33.999 -22.5h16zM331.998 221.999c0 20 -16.333 34.333 -49 43v-78h14c7.33301 0 15 4.16699 23 12.5
s12 15.833 12 22.5z" />
    <glyph glyph-name="percent" unicode="%" horiz-adv-x="640" 
d="M620 158c0 -46 -9.99902 -84.001 -29.999 -114.001c-24 -34.667 -58 -52 -102 -52c-41.333 0 -73 14.333 -95 43c-20 26.667 -30 61.334 -30 104.001c0 37.333 8 77 24 119c20 52.667 45.333 79 76 79c7.33301 0 19.666 -3.66699 36.999 -11l9 -24
c3.33301 4 8.33301 6 15 6c31.333 0 56 -18 74 -54c14.667 -29.333 22 -61.333 22 -96zM526.001 638.999c0 -3.33301 -1.66504 -6.66504 -4.99805 -9.99805c-22 -10.667 -62 -70.667 -120 -180c-46.667 -88.667 -80.667 -159.334 -102 -212.001
c-8.66699 -20.667 -22.334 -57.667 -41.001 -111c-22 -61.333 -33 -95 -33 -101c0 -2.66699 2.16699 -5.83398 6.5 -9.50098s6.5 -6.83398 6.5 -9.50098c0 -9.33301 -5 -14 -15 -14c-6.66699 0 -15.334 5.33301 -26.001 16c-0.666992 22.667 -1 33.667 -1 33
c0 35.333 25.667 111.333 77 228l105 240l-3 6c-21.333 -10 -55.666 -23.333 -102.999 -40c-9.33301 -43.333 -20 -74.666 -32 -93.999c-19.333 -29.333 -47.333 -44 -84 -44c-77.333 0 -116 48 -116 144c0 48.667 8.33301 90 25 124c21.333 44.667 53.666 67 96.999 67
c33.333 0 61 -17 83 -51c20 -30 30.333 -62.333 31 -97l4 -6c24.667 1.33301 56.5 14.5 95.5 39.5s63.833 48.5 74.5 70.5l10 29c4.66699 12 12 18 22 18s19.833 -3.5 29.5 -10.5s14.5 -15.5 14.5 -25.5zM241.003 526c0 21.333 -6.66699 43.999 -20 67.999
c-14.667 26.667 -31.667 40 -51 40c-12 0 -21.5 -5 -28.5 -15s-10.5 -21.667 -10.5 -35c0 -23.333 9.66699 -41.666 29 -54.999s41 -20 65 -20c10.667 0 16 5.66699 16 17zM579.003 157.999c0 56.667 -16.667 94.667 -50 114l-26 10.5
c-8.66699 3.66699 -12.667 10.167 -12 19.5h-11c-20 -10 -38.333 -33.667 -55 -71c-14 -33.333 -21 -63 -21 -89c0 -30 6.33301 -56 19 -78c14.667 -27.333 36 -41 64 -41c28.667 0 52 16 70 48c14.667 26.667 22 55.667 22 87zM231.003 462.999l-0.000976562 10.999
c-69.333 0.666992 -113.666 30 -132.999 88c-11.333 -35.333 -17 -57.666 -17 -66.999c0 -84.667 24 -127 72 -127c18.667 0 35 8.33301 49 25c12 14.667 20 31.667 24 51c4 4.66699 5.66699 11 5 19z" />
    <glyph glyph-name="ampersand" unicode="&#x26;" horiz-adv-x="615" 
d="M595 3c0 -9.33301 -8.66504 -17.999 -25.998 -25.999c-14.667 -6.66699 -27.667 -10 -39 -10c-28 0 -57 9.66699 -87 29c-32 20.667 -50 31.334 -54 32.001c-79.333 -34 -148.666 -51 -207.999 -51c-46 0 -83 9.33301 -111 28c-33.333 22.667 -50 55.667 -50 99
c0 42.667 31.333 98.667 94 168c5.33301 5.33301 12.333 13.333 21 24c-22.667 46 -37 76.667 -43 92c-12 32.667 -18 66 -18 100c0 54.667 15.833 99.667 47.5 135s74.5 53 128.5 53c38 0 69.833 -12.333 95.5 -37s38.5 -56 38.5 -94
c0 -20.667 -2.33301 -38.334 -7 -53.001c-10.667 -30.667 -68 -99.334 -172 -206.001c1.33301 -15.333 30.166 -51.5 86.499 -108.5s91.5 -85.5 105.5 -85.5c11.333 0 32.833 11.5 64.5 34.5s47.5 39.5 47.5 49.5c0 12.667 -16.333 24 -49 34
c-26.667 8.66699 -48.667 13 -66 13s-34 -4.33301 -50 -13c-9.33301 4.66699 -14 11 -14 19c0 19.333 14 29 42 29c138 0 207 -17.667 207 -53c0 -44.667 -45.667 -93.667 -137 -147c8 -12.667 22.167 -24.667 42.5 -36s38.166 -17 53.499 -17
c4.66699 0 11.667 2.16699 21 6.5s16.666 6.5 21.999 6.5c2 0 6.66699 -1.33301 14 -4v-11zM333.002 566.001c0 22 -7.00098 39.998 -21.001 53.998s-32 21 -54 21c-36.667 0 -68.5 -15.667 -95.5 -47s-40.5 -65.666 -40.5 -102.999c0 -21.333 5 -48.666 15 -81.999
c10.667 -36 22.334 -61 35.001 -75c37.333 26.667 72 60.667 104 102c38 50 57 93.333 57 130zM340.001 67.999c-60.667 50 -119 109.999 -175 179.999c-56 -60.667 -84 -116 -84 -166c0 -25.333 9.33301 -42.333 28 -51c12.667 -6.66699 33 -10 61 -10c19.333 0 50 5 92 15
c48 10.667 74 21.334 78 32.001z" />
    <glyph glyph-name="quotesingle" unicode="'" horiz-adv-x="111" 
d="M91 669c0 -1.33301 -2.16797 -5.5 -6.50098 -12.5s-6.83301 -11.5 -7.5 -13.5c-4 -11.333 -6 -29.333 -6 -54c0 -8.66699 0.5 -21.5 1.5 -38.5s1.5 -29.833 1.5 -38.5c0 -25.333 -9.66699 -38 -29 -38c-12 0 -19.667 3.33301 -23 10c-1.33301 76.667 -2 119 -2 127
c0 10 1.33301 23.333 4 40c4 20.667 8.33301 31.667 13 33c2.66699 1.33301 6.33398 2 11.001 2c28.667 0 43 -5.66699 43 -17z" />
    <glyph glyph-name="parenleft" unicode="(" horiz-adv-x="195" 
d="M145 688c-2 -4.66699 -4.99902 -6.99902 -8.99902 -6.99902c-2 0 -3.5 0.5 -4.5 1.5s-2.16699 1.5 -3.5 1.5c-18.667 0 -33.334 -44.333 -44.001 -133c-7.33301 -62 -11 -116.667 -11 -164c0 -150 10.667 -258.667 32 -326c1.33301 -4.66699 7.33301 -19.334 18 -44.001
s16 -38 16 -40c0 -18.667 -12 -28 -36 -28c-12 0 -25.333 25.333 -40 76c-28.667 96 -43 202.667 -43 320c0 55.333 7.33301 123 22 203c17.333 96.667 38.333 158 63 184c2.66699 3.33301 6 5 10 5c20 0 30 -16.333 30 -49z" />
    <glyph glyph-name="parenright" unicode=")" horiz-adv-x="206" 
d="M186 328c0 -116.667 -16.999 -218.333 -50.999 -305c-14 -35.333 -26.667 -53 -38 -53c-6 0 -21.667 5.66699 -47 17v18c52 17.333 78 111 78 281c0 64.667 -3.66699 131 -11 199c-9.33301 96 -23.333 155.667 -42 179c-6.66699 8 -15 13.333 -25 16v17
c0 6.66699 4.16699 13 12.5 19s15.833 9 22.5 9c7.33301 0 12.666 -0.666992 15.999 -2c28.667 -32 51 -94.667 67 -188c12 -72 18 -141 18 -207z" />
    <glyph glyph-name="asterisk" unicode="*" horiz-adv-x="257" 
d="M278 633l-0.000976562 -5.00098l-63 -39c0.666992 -1.33301 12 -9.33301 34 -24c14 -8.66699 21 -19 21 -31c0 -3.33301 -1 -7.66602 -3 -12.999s-3 -9.33301 -3 -12c-2.66699 -4 -7.66699 -6 -15 -6c-24.667 0 -44.334 6.66699 -59.001 20
c-1.33301 -2 -2.33301 -4.66699 -3 -8c0 -8 8.66699 -23 26 -45v-16c-19.333 -9.33301 -30.333 -14 -33 -14c-10.667 0 -22.667 10.667 -36 32c-9.33301 15.333 -19 30.333 -29 45l-37 -33c-16.667 -14.667 -31 -22 -43 -22c-7.33301 0 -17.333 3.66699 -30 11v19
c0 4 18.333 24 55 60c-5.33301 8 -19.666 13.333 -42.999 16s-38.333 7.33398 -45 14.001c6.66699 24.667 19.334 40 38.001 46c8.66699 1.33301 29.334 2 62.001 2c0 1.33301 -6.66699 11.333 -20 30c-11.333 15.333 -17 24.666 -17 27.999
c0 9.33301 5.16699 18.333 15.5 27s19.166 13 26.499 13c12 0 24.667 -15 38 -45c10 -20 19.667 -40.333 29 -61l54 38c30 20.667 47 31 51 31c9.33301 0 16.5 -6.66699 21.5 -20s7.5 -26 7.5 -38z" />
    <glyph glyph-name="plus" unicode="+" horiz-adv-x="520" 
d="M500 360c0 -32.667 -15.3311 -48.998 -45.998 -48.998h-176v-149c0 -14.667 3 -34.667 9 -60c-3.33301 -5.33301 -7 -8 -11 -8c-32.667 0 -49 15.667 -49 47v170h-200c-4.66699 8.66699 -7 17 -7 25c0 7.33301 2.66699 14.833 8 22.5s11.333 11.5 18 11.5
c12 0 29.667 -1.33301 53 -4s41 -4 53 -4h75v206c8.66699 4.66699 17 7 25 7c7.33301 0 16.166 -2.33301 26.499 -7s15.5 -10.334 15.5 -17.001c0 -12 -2.66699 -30 -8 -54s-8 -42 -8 -54v-81h154c15.333 0 35.666 3 60.999 9c4.66699 -2.66699 7 -6.33398 7 -11.001z" />
    <glyph glyph-name="comma" unicode="," horiz-adv-x="170" 
d="M30 45c0 8 2.66602 15.668 7.99902 23.001s17 11 35 11c12 0 22.667 -3.83301 32 -11.5s15.666 -20.5 18.999 -38.5c4.66699 -28 6.5 -52.167 5.5 -72.5s-7.83301 -41.166 -20.5 -62.499c-11.333 -19.333 -23.666 -34.833 -36.999 -46.5s-26.666 -17.5 -39.999 -17.5
c-10.667 0 -16.667 4.5 -18 13.5s2.66699 17.5 12 25.5c11.333 10 23.166 19.333 35.499 28s21.833 21 28.5 37c5.33301 13.333 5.33301 27.5 0 42.5s-13.666 26.167 -24.999 33.5s-20 13.166 -26 17.499s-9 10.166 -9 17.499z" />
    <glyph glyph-name="hyphen" unicode="-" horiz-adv-x="284" 
d="M264 247c0 -2.66699 -2.66797 -4.00098 -8.00098 -4.00098c-6 0 -14.833 2.16699 -26.5 6.5s-20.5 6.5 -26.5 6.5c-8 0 -19.833 -0.666992 -35.5 -2s-27.167 -2 -34.5 -2c-66 0 -103.667 17.333 -113 52c4 5.33301 8 8 12 8c4.66699 0 12.167 -2.16699 22.5 -6.5
s18.833 -6.5 25.5 -6.5c13.333 0 33.333 1.16699 60 3.5s46.667 3.5 60 3.5c25.333 0 41 -4.66699 47 -14c0.666992 -1.33301 2.33398 -7.66602 5.00098 -18.999c2 -8.66699 6 -13.667 12 -15v-11z" />
    <glyph glyph-name="hyphen" unicode="&#x2010;" horiz-adv-x="284" 
d="M264 247c0 -2.66699 -2.66797 -4.00098 -8.00098 -4.00098c-6 0 -14.833 2.16699 -26.5 6.5s-20.5 6.5 -26.5 6.5c-8 0 -19.833 -0.666992 -35.5 -2s-27.167 -2 -34.5 -2c-66 0 -103.667 17.333 -113 52c4 5.33301 8 8 12 8c4.66699 0 12.167 -2.16699 22.5 -6.5
s18.833 -6.5 25.5 -6.5c13.333 0 33.333 1.16699 60 3.5s46.667 3.5 60 3.5c25.333 0 41 -4.66699 47 -14c0.666992 -1.33301 2.33398 -7.66602 5.00098 -18.999c2 -8.66699 6 -13.667 12 -15v-11z" />
    <glyph glyph-name="period" unicode="." horiz-adv-x="133" 
d="M113 21c0 -9.33301 -6.33301 -17.332 -19 -23.999c-10 -5.33301 -20.333 -8 -31 -8c-11.333 0 -21.333 4 -30 12s-13 17.333 -13 28c0 22.667 11.667 34 35 34c13.333 0 26.333 -3.83301 39 -11.5s19 -17.834 19 -30.501z" />
    <glyph glyph-name="slash" unicode="/" horiz-adv-x="399" 
d="M379 676c-8 -13.333 -19.001 -34 -33.001 -62l-187 -449c-50.667 -120.667 -90.667 -181 -120 -181c-12.667 0 -19 5.33301 -19 16c0 6 2.83301 12.667 8.5 20l15.5 20c37.333 60 76 138 116 234l97 244c14.667 36.667 24.667 65.667 30 87c0.666992 12 4 29 10 51
c4 9.33301 11.667 17.333 23 24s22.333 10 33 10c8.66699 0 17.334 -4.66699 26.001 -14z" />
    <glyph glyph-name="zero" unicode="0" horiz-adv-x="555" 
d="M535 356c0 -89.333 -21.668 -169.667 -65.001 -241c-50 -84 -116.667 -126 -200 -126c-79.333 0 -142 31.667 -188 95c-41.333 56.667 -62 126 -62 208c0 70 18 141 54 213c40.667 80 91 130.667 151 152c24.667 9.33301 54.334 14 89.001 14c10.667 0 33 -7 67 -21
c52 -20.667 91.667 -61.667 119 -123c23.333 -51.333 35 -108.333 35 -171zM485.999 359.999c0 72.667 -13 133.002 -39 181.002c-33.333 60 -83.333 90 -150 90c-23.333 0 -47.333 -8 -72 -24c-50 -32 -88.667 -78.333 -116 -139c-24.667 -56 -37 -115.667 -37 -179
c0 -34.667 2.33301 -62.334 7 -83.001c10 -46.667 33.833 -85.334 71.5 -116.001s80.5 -46 128.5 -46c70.667 0 124.667 37 162 111c30 58.667 45 127 45 205z" />
    <glyph glyph-name="one" unicode="1" horiz-adv-x="172" 
d="M132 605c0 -2 -4.00098 -25.3359 -12.001 -70.0029c-15.333 -89.333 -23 -156.666 -23 -201.999v-207c0 -56.667 3.33301 -91 10 -103c0.666992 -1.33301 3.33398 -4.66602 8.00098 -9.99902s7 -9.66602 7 -12.999c0 -11.333 -5.66699 -17 -17 -17
c-10.667 0 -24.334 4.33301 -41.001 13c-5.33301 11.333 -8 22.333 -8 33v449c-3.33301 2.66699 -8.66602 6.66699 -15.999 12v24c0 15.333 5.66699 45.333 17 90c12 48 21.667 72 29 72c10 0 20.167 -9.16699 30.5 -27.5s15.5 -32.833 15.5 -43.5z" />
    <glyph glyph-name="two" unicode="2" horiz-adv-x="522" 
d="M502 48c0 -16 -4.66797 -24.001 -14.001 -24.001c0.666992 0 -4.66602 1.66699 -15.999 5c-16.667 5.33301 -36 8 -58 8c-92.667 0 -187.667 -13 -285 -39c-1.33301 -0.666992 -13.333 -4.66699 -36 -12c-18 -6 -29.333 -9 -34 -9c-26 0 -39 12 -39 36
c0 11.333 5.66699 23.333 17 36l93 83c58 52 110.667 113 158 183c58.667 86 88 158.333 88 217c0 30.667 -10.5 56.167 -31.5 76.5s-47.167 30.5 -78.5 30.5c-32.667 0 -66.834 -13.167 -102.501 -39.5s-58.167 -54.833 -67.5 -85.5c-2.66699 -20 -5.66699 -40 -9 -60
c-5.33301 -30 -14 -45 -26 -45c-4.66699 0 -12.167 4.16699 -22.5 12.5s-15.5 14.5 -15.5 18.5c0 37.333 17 78 51 122c31.333 40.667 65 70 101 88c30.667 16 63.667 24 99 24c42.667 0 79.834 -16 111.501 -48s47.5 -69 47.5 -111c0 -66.667 -32 -140 -96 -220
c-38 -48 -96.667 -107 -176 -177c-16.667 -15.333 -28 -26 -34 -32c-12 -13.333 -20.333 -26 -25 -38c3.33301 -6 9 -9 17 -9l5 1l343 54c10.667 0.666992 19.667 -4.33301 27 -15c5.33301 -9.33301 8 -19.666 8 -30.999z" />
    <glyph glyph-name="three" unicode="3" horiz-adv-x="570" 
d="M550 226c0 -42.667 -12.6689 -80.333 -38.002 -113c-60.667 -80 -143.334 -120 -248.001 -120c-44.667 0 -88.667 5.33301 -132 16c-22 6 -45.333 19 -70 39c-28 22.667 -42 43.667 -42 63c0 6 3.16699 12 9.5 18s12.5 9 18.5 9c10.667 0 20.667 -8.66699 30 -26l18 -38
c20.667 -31.333 66.334 -47 137.001 -47c48 0 92.333 9.66699 133 29c44 21.333 77.333 51.333 100 90c16 28.667 24 53.334 24 74.001c0 38 -20.667 71 -62 99c-37.333 24 -76 36 -116 36c-8 0 -32 -7.83301 -72 -23.5s-72.333 -23.5 -97 -23.5
c-23.333 0 -35 5.33301 -35 16c0 10 5.5 21 16.5 33s35.833 19.333 74.5 22c46 4 74 8 84 12c22 8.66699 49.333 32.334 82 71.001c30.667 36.667 46 72.667 46 108c0 23.333 -7 42.333 -21 57s-32.667 22 -56 22c-26 0 -58.5 -9.16699 -97.5 -27.5
s-66.833 -37.5 -83.5 -57.5c-4 -4.66699 -4.66699 -13 -2 -25l-37 -37c-19.333 -18 -32.666 -27 -39.999 -27c-6 0 -12.833 2.66699 -20.5 8s-11.5 10.666 -11.5 15.999c0 11.333 7.66699 27.333 23 48c28 37.333 68 70.666 120 99.999c54.667 30.667 104.334 46 149.001 46
c37.333 0 68.5 -10.167 93.5 -30.5s37.5 -49.166 37.5 -86.499c0 -32 -11.667 -65.667 -35 -101c-19.333 -30.667 -43.666 -57.667 -72.999 -81c1.33301 -2.66699 19.666 -8.33398 54.999 -17.001c38.667 -10.667 68.667 -24.667 90 -42c32 -26.667 48 -63 48 -109z" />
    <glyph glyph-name="four" unicode="4" horiz-adv-x="626" 
d="M616 186l-7.00195 -6.00293c-24.667 4.66699 -66 7 -124 7c-16.667 0 -27.334 -3.5 -32.001 -10.5s-7 -19.833 -7 -38.5c0 -56.667 3.33301 -95 10 -115c0.666992 -2 3.33398 -6.66699 8.00098 -14s7 -12.333 7 -15c0 -3.33301 -2.33301 -9 -7 -17h-32
c-5.33301 0 -12.666 5.66699 -21.999 17s-14 20 -14 26c0 2.66699 0.833008 6.83398 2.5 12.501s2.5 9.83398 2.5 12.501c0 10.667 0.333008 27 1 49s1 38.333 1 49c0 24 -3.66699 36 -11 36c-30 0 -74.5 -4.16699 -133.5 -12.5s-103.5 -12.5 -133.5 -12.5
c-17.333 0 -38.666 7.33301 -63.999 22c-27.333 16.667 -41 33 -41 49c0 20.667 20.333 50.334 61 89.001l88 77c48.667 42.667 120 108.667 214 198l40 51c17.333 20.667 35 31 53 31c10 0 19.167 -3.66699 27.5 -11s12.5 -16 12.5 -26c0 -5.33301 -2.66699 -16.333 -8 -33
c-6.66699 -22 -10.334 -34 -11.001 -36c-3.33301 -14.667 -12.666 -73 -27.999 -175c-11.333 -75.333 -17 -123 -17 -143c0 -7.33301 3 -13.333 9 -18c6 0.666992 15.667 1.16699 29 1.5s23.333 0.5 30 0.5c51.333 0 83.333 -9.33301 96 -28v-17zM426.998 537.997
l-11 -0.000976562c-44 -27.333 -105.667 -75.666 -185 -144.999c-94.667 -82 -142 -135.333 -142 -160c0 -20 12.333 -29.667 37 -29h4l271 23z" />
    <glyph glyph-name="five" unicode="5" horiz-adv-x="539" 
d="M509 228c0 -70 -27.999 -129.332 -83.999 -177.999c-53.333 -46.667 -115.666 -70 -186.999 -70c-28.667 0 -55.167 2.33301 -79.5 7s-51.5 14.667 -81.5 30c-38 18.667 -57 36.334 -57 53.001c0 16 10.667 24 32 24c14.667 0 39.334 -13.167 74.001 -39.5
s66.667 -39.5 96 -39.5c63.333 0 116.666 17.333 159.999 52c46.667 37.333 70 86.666 70 147.999c0 43.333 -14.833 77.666 -44.5 102.999s-66.167 38 -109.5 38c-22 0 -48 -3.66699 -78 -11c-32 -8 -55.667 -17.333 -71 -28c-0.666992 0 -7.33398 -6.33301 -20.001 -19
c-8.66699 -8 -16 -12 -22 -12c-8 0 -19 4.33301 -33 13c0 6.66699 2 16.334 6 29.001s6 22.667 6 30v52c-0.666992 23.333 -1 41 -1 53c0 88.667 10.333 156 31 202c4 2 10 3 18 3c10.667 0 18.834 -3.16699 24.501 -9.5s11.167 -9.5 16.5 -9.5c2 0 21 2.33301 57 7
c72 8.66699 120.667 13 146 13c41.333 0 62 -11.667 62 -35c0 -8.66699 -4.66699 -21.334 -14 -38.001h-9c-3.33301 0 -9.5 1.66699 -18.5 5s-14.833 5.33301 -17.5 6c-12 2.66699 -37.667 4 -77 4c-12.667 0 -38.667 -2.66699 -78 -8
c-42.667 -5.33301 -66.334 -10.333 -71.001 -15c-14 -12 -21 -69.333 -21 -172c0 -22 1 -39.333 3 -52l2 -2c2.66699 0 18 6 46 18c37.333 15.333 79.666 23 126.999 23c56.667 0 103 -14.667 139 -44c38.667 -32 58 -75.667 58 -131z" />
    <glyph glyph-name="six" unicode="6" horiz-adv-x="536" 
d="M516 225c0 -71.333 -24.5 -131.499 -73.5 -180.499s-109.167 -73.5 -180.5 -73.5c-74 0 -132 26.667 -174 80c-38.667 48.667 -58 110.667 -58 186c0 73.333 19.667 146.666 59 219.999c37.333 69.333 86.333 127.333 147 174c46 35.333 79.333 53 100 53
c8.66699 0 18.834 -4.66699 30.501 -14s17.5 -18.333 17.5 -27c0 -16.667 -5.33301 -25 -16 -25c-3.33301 0 -7.33301 2.66699 -12 8s-8.66699 8 -12 8c-26 0 -61.667 -22.333 -107 -67c-36.667 -36.667 -64.334 -71 -83.001 -103c-34.667 -59.333 -54 -108 -58 -146
c4.66699 2.66699 10.667 8.66699 18 18c56 68 120 102 192 102c64 0 115 -19.5 153 -58.5s57 -90.5 57 -154.5zM466 237.001c0 48.667 -14 88 -42 118s-66.333 45 -115 45c-36 0 -79 -18 -129 -54c-52 -36.667 -78 -70 -78 -100c0 -1.33301 0.333008 -3.33301 1 -6
s1 -4.66699 1 -6c0 -10 -5.66699 -17 -17 -21c4.66699 -57.333 19.667 -104 45 -140c30.667 -42.667 73 -64 127 -64c60 0 110 23.333 150 70c38 44 57 96.667 57 158z" />
    <glyph glyph-name="seven" unicode="7" horiz-adv-x="465" 
d="M475 634c0 -2 -6.66602 -10.6631 -19.999 -25.9961c-15.333 -17.333 -23.333 -26.333 -24 -27c-90.667 -123.333 -153.667 -229.666 -189 -318.999l-45 -111c-17.333 -46.667 -26 -85.334 -26 -116.001c0 -8 5.33301 -30 16 -66c-2 -5.33301 -5.33301 -8 -10 -8
c-15.333 0 -27.666 8 -36.999 24c-8.66699 14 -13 29.333 -13 46c0 7.33301 2.66699 23.666 8 48.999c19.333 85.333 53 176.666 101 273.999l140 257c2.66699 4 4 7.66699 4 11c-11.333 9.33301 -24 14 -38 14c-2 0 -4.83301 -0.333008 -8.5 -1s-6.16699 -1 -7.5 -1
c-2.66699 0 -5.83398 0.5 -9.50098 1.5s-6.5 1.5 -8.5 1.5c-20.667 0 -61 -6.33301 -121 -19c-65.333 -14 -100.666 -25 -105.999 -33s-9 -24.667 -11 -50c-2.66699 -22.667 -9.33398 -39 -20.001 -49c-2 -0.666992 -5.33301 -1 -10 -1c-20 0 -30 8.33301 -30 25
c0 4 2 12.333 6 25c5.33301 15.333 8.33301 24.666 9 27.999l8.5 59.5c3 20.333 9.16699 38.833 18.5 55.5c6 -0.666992 11 -3.66699 15 -9s7.66699 -10.666 11 -15.999v0l6 -1c9.33301 -0.666992 27.666 3.66602 54.999 12.999c33.333 10.667 53 16.667 59 18
c34.667 6.66699 69.667 10 105 10c26 0 54.667 -3.33301 86 -10c12 -2.66699 28.333 -9.33398 49 -20.001c24.667 -12 37 -21.667 37 -29z" />
    <glyph glyph-name="eight" unicode="8" horiz-adv-x="532" 
d="M512 171c0 -45.333 -15 -84.665 -45 -117.998s-68 -54.333 -114 -63c-25.333 -4.66699 -53.333 -7 -84 -7c-66 0 -121.333 12.667 -166 38c-55.333 31.333 -83 77.666 -83 138.999c0 43.333 13.333 81 40 113c20 24 52 49 96 75c-69.333 42 -104 89.667 -104 143
c0 56 22.333 101.667 67 137c42 33.333 91.667 50 149 50c39.333 0 77 -11.5 113 -34.5s62.667 -52.5 80 -88.5c10 14.667 15.667 22 17 22c14.667 0 22 -10.667 22 -32c0 -34.667 -24.667 -69.334 -74 -104.001l-119 -69v-2l2 -4c135.333 -36 203 -101 203 -195z
M433 499.001c-6.66699 10 -12.666 20.668 -17.999 32.001c-32 70.667 -81 106 -147 106c-44.667 0 -83.334 -12.333 -116.001 -37c-35.333 -26.667 -53 -61.667 -53 -105c0 -26.667 16 -51.667 48 -75c29.333 -22 58 -33 86 -33c9.33301 0 40 13 92 39
c46.667 23.333 82.667 47.666 108 72.999zM459.001 158.002c0 45.333 -22.333 82 -67 110c-22 13.333 -64.333 30.333 -127 51c-24 8 -39 12 -45 12c-3.33301 0 -13 -5.33301 -29 -16c-44 -28 -72.333 -48.333 -85 -61c-26 -26 -39 -57.333 -39 -94
c0 -48.667 23 -85 69 -109c36.667 -20 81.667 -30 135 -30c49.333 0 91.333 10.333 126 31c41.333 24.667 62 60 62 106z" />
    <glyph glyph-name="nine" unicode="9" horiz-adv-x="469" 
d="M449 426c0 -88.667 -21.6709 -173.333 -65.0039 -254c-19.333 -36 -44.333 -72 -75 -108c-40 -48 -73 -72 -99 -72c-10.667 0 -23.667 4 -39 12c-17.333 9.33301 -26 19 -26 29c0 13.333 6 20 18 20c4 0 9.33301 -2.66699 16 -8s12 -8 16 -8
c24.667 0 58.334 31.333 101.001 94c36.667 53.333 60.334 97 71.001 131l13 40c-64.667 -52.667 -122.667 -79 -174 -79c-37.333 0 -71.166 9.16699 -101.499 27.5s-53.166 44.166 -68.499 77.499c-10.667 22.667 -16 54.334 -16 95.001c0 73.333 18.333 134.333 55 183
c40 53.333 95.667 80 167 80c66.667 0 119 -27.667 157 -83c33.333 -48.667 50 -107.667 50 -177zM397.996 421.001c0 56 -11.666 105.668 -34.999 149.001c-28 52.667 -67.667 79 -119 79c-52 0 -95.333 -27 -130 -81c-30 -48 -45 -99.667 -45 -155
c0 -42.667 12 -78.334 36 -107.001c26 -30.667 60 -46 102 -46c23.333 0 57.666 14.667 102.999 44s72 54.333 80 75c5.33301 13.333 8 27.333 8 42z" />
    <glyph glyph-name="colon" unicode=":" horiz-adv-x="142" 
d="M113 29c0 -8.66699 -3.66699 -17.5 -11 -26.5s-15.333 -13.5 -24 -13.5c-10.667 0 -23 5.66699 -37 17s-21 22.333 -21 33c0 8 4 16.667 12 26s15.667 14 23 14c14 0 27.167 -4.83301 39.5 -14.5s18.5 -21.5 18.5 -35.5zM117 370c0 -12.667 -6 -22.833 -18 -30.5
s-24.667 -11.5 -38 -11.5c-26 0 -39 14 -39 42c0 23.333 12.667 35 38 35c38 0 57 -11.667 57 -35z" />
    <glyph glyph-name="semicolon" unicode=";" horiz-adv-x="193" 
d="M147 370c0 -12.667 -6 -22.833 -18 -30.5s-24.667 -11.5 -38 -11.5c-26 0 -39 14 -39 42c0 23.333 12.667 35 38 35c38 0 57 -11.667 57 -35zM60 45.001c0 8 2.66602 15.668 7.99902 23.001s17 11 35 11c12 0 22.667 -3.83301 32 -11.5s15.666 -20.5 18.999 -38.5
c4.66699 -28 6.5 -52.167 5.5 -72.5s-7.83301 -41.166 -20.5 -62.499c-11.333 -19.333 -23.666 -34.833 -36.999 -46.5s-26.666 -17.5 -39.999 -17.5c-10.667 0 -16.667 4.5 -18 13.5s2.66699 17.5 12 25.5c11.333 10 23.166 19.333 35.499 28s21.833 21 28.5 37
c5.33301 13.333 5.33301 27.5 0 42.5s-13.666 26.167 -24.999 33.5s-20 13.166 -26 17.499s-9 10.166 -9 17.499z" />
    <glyph glyph-name="less" unicode="&#x3c;" horiz-adv-x="359" 
d="M339 187l-2.00098 -4c-14 -16 -25 -24 -33 -24c-6.66699 0 -51.167 25 -133.5 75s-130.166 80.667 -143.499 92c-4.66699 3.33301 -7 7.33301 -7 12c0 6 4 11.667 12 17l258 168c25.333 -8 38 -21.333 38 -40c0 -6 -35 -28.667 -105 -68l-127 -71
c28 -18 66.667 -40.667 116 -68c58.667 -31.333 98 -53 118 -65c6 -14.667 9 -22.667 9 -24z" />
    <glyph glyph-name="equal" unicode="=" horiz-adv-x="393" 
d="M373 374c0 -2.66699 -0.500977 -6.83496 -1.50098 -12.502s-1.5 -9.5 -1.5 -11.5c-8.66699 -2.66699 -13.334 -4 -14.001 -4c-2 0 -6.33301 1.83301 -13 5.5s-10.667 5.5 -12 5.5c-18 6.66699 -66.667 10 -146 10c-31.333 0 -56.666 -1.66699 -75.999 -5
c-6 -1.33301 -17.667 -5.66602 -35 -12.999s-27 -11 -29 -11c-4.66699 0 -10 4.83301 -16 14.5s-9 16.834 -9 21.501v26c48.667 3.33301 97 6.33301 145 9c58.667 4 107.334 6 146.001 6c14 0 27.833 -3.5 41.5 -10.5s20.5 -17.167 20.5 -30.5zM372.999 232.999
c-190.667 -10 -288.668 -15.001 -294.001 -15.001c-39.333 0 -59 10.333 -59 31c0 2.66699 0.5 6.83398 1.5 12.501s1.83301 9.5 2.5 11.5l13 4c6 0 15 -0.833008 27 -2.5s21 -2.5 27 -2.5c14 0 35.333 1.33301 64 4s50.334 4 65.001 4
c7.33301 0 18.166 -0.666992 32.499 -2s24.833 -2 31.5 -2c8.66699 0 20.667 2.5 36 7.5s27 7.5 35 7.5c4.66699 0 8.83398 -4 12.501 -12s5.5 -14.667 5.5 -20v-26z" />
    <glyph glyph-name="greater" unicode="&#x3e;" horiz-adv-x="359" 
d="M339 345c0 -6.66699 -4 -12.667 -12 -18l-259 -168c-25.333 8 -38 21.333 -38 40c0 6.66699 35 29.667 105 69l128 70c-28 18.667 -66.667 41.334 -116 68.001c-58.667 31.333 -98 53 -118 65c-6 14.667 -9 22.667 -9 24c0.666992 1.33301 1 2.66602 1 3.99902
c14.667 16 26 24 34 24c6.66699 0 51 -25 133 -75s130 -80.667 144 -92c4.66699 -3.33301 7 -7 7 -11z" />
    <glyph glyph-name="question" unicode="?" horiz-adv-x="506" 
d="M486 506c0 -22.667 -10.332 -49.667 -30.999 -81c-18 -27.333 -72.333 -72.333 -163 -135c-79.333 -54.667 -120 -95.667 -122 -123l26 -19c8 -6 12 -16.667 12 -32c-2 -2.66699 -5.33301 -4 -10 -4c-12 0 -27 10.167 -45 30.5s-27 36.5 -27 48.5
c0 30.667 20 60.667 60 90l97 63c91.333 64 137 118 137 162c0 31.333 -12 57.333 -36 78c-22.667 18.667 -50.334 28 -83.001 28s-74.167 -14.833 -124.5 -44.5s-83.833 -59.167 -100.5 -88.5c2 -3.33301 5.33301 -5 10 -5c2 0 5 0.666992 9 2s7 2 9 2
c16.667 0 25 -5.33301 25 -16c0 -7.33301 -5.33301 -14.833 -16 -22.5s-19.667 -11.5 -27 -11.5c-12 0 -26 6.83301 -42 20.5s-24 26.5 -24 38.5c0 22 21.333 51.667 64 89c38 32.667 70.333 53.667 97 63c48 17.333 82.333 26 103 26c41.333 0 84.333 -16 129 -48
c48.667 -34.667 73 -71.667 73 -111zM242.001 40c0 -29.333 -13.667 -44 -41 -44c-18 0 -32.833 5.66699 -44.5 17s-17.5 26 -17.5 44c0 8.66699 7.33301 16.667 22 24c12.667 6 24 9 34 9c14 0 25.333 -4.83301 34 -14.5s13 -21.5 13 -35.5z" />
    <glyph glyph-name="at" unicode="@" horiz-adv-x="831" 
d="M492 236c1.33301 6 5.16602 13.1631 11.499 21.4961s17.166 12.5 32.499 12.5c9.33301 0 14 -2.66699 14 -8c0 -2.66699 -1 -5.33398 -3 -8.00098l-11 -16c-3.33301 -4.66699 -7 -14.334 -11 -29.001c-2 -7.33301 -1.83301 -18 0.5 -32s7.16602 -28 14.499 -42
s16.833 -26.167 28.5 -36.5s26.167 -15.5 43.5 -15.5c16.667 0 32.834 6.16699 48.501 18.5s29.5 30.333 41.5 54s21.667 52.334 29 86.001s11 71.834 11 114.501c0 50.667 -8.33301 93.5 -25 128.5s-38.5 63.5 -65.5 85.5s-57.167 37.833 -90.5 47.5s-67 14.5 -101 14.5
c-23.333 0 -48.333 -3.5 -75 -10.5s-53.334 -18 -80.001 -33s-52.5 -33.833 -77.5 -56.5s-47.167 -49.667 -66.5 -81s-34.666 -67.166 -45.999 -107.499s-17 -85.166 -17 -134.499c0 -71.333 9.66699 -128.833 29 -172.5s44 -77.667 74 -102s63.5 -40.666 100.5 -48.999
s73.5 -12.5 109.5 -12.5c34.667 0 66.834 4.33301 96.501 13s56.334 19.334 80.001 32.001s43.834 25.667 60.501 39s29.667 24.666 39 33.999l7 9c2.66699 3.33301 5.33398 6 8.00098 8s5.5 3 8.5 3s6.16699 -2 9.5 -6c4 -4.66699 6.33301 -10.5 7 -17.5s0.5 -14 -0.5 -21
s-2.83301 -13.333 -5.5 -19s-5.33398 -9.5 -8.00098 -11.5c-48.667 -37.333 -98.334 -64 -149.001 -80s-96.334 -24 -137.001 -24c-45.333 0 -91.166 6.33301 -137.499 19s-88.166 34.5 -125.499 65.5s-67.833 72.167 -91.5 123.5s-35.5 115.666 -35.5 192.999
c0 72.667 12.333 136.5 37 191.5s55.5 100.833 92.5 137.5s76.667 64.167 119 82.5s81.5 27.5 117.5 27.5c53.333 0 104 -7.66699 152 -23s90 -37.166 126 -65.499s64.667 -62.666 86 -102.999s32 -85.5 32 -135.5c0 -56 -7.5 -103.167 -22.5 -141.5s-33.333 -69 -55 -92
s-44.834 -39.5 -69.501 -49.5s-46.667 -15 -66 -15c-17.333 0 -32.833 4.33301 -46.5 13s-25 19.167 -34 31.5s-15.833 24.833 -20.5 37.5s-7 23 -7 31s0.166992 14.333 0.5 19s1 9.5 2 14.5s2.5 10.5 4.5 16.5s4.33301 14.667 7 26zM545 377.996
c7.33301 -12.667 12.3359 -26.832 15.0029 -42.499s4 -28.167 4 -37.5c0 -2.66699 -0.333008 -6 -1 -10s-2 -8 -4 -12s-5 -7.33301 -9 -10s-9.33301 -4 -16 -4c-8 0 -13.667 1.66699 -17 5s-5.5 7.16602 -6.5 11.499s-1.16699 8.83301 -0.5 13.5s1 8.33398 1 11.001
c2 24.667 1.66699 44.5 -1 59.5s-6.83398 26.667 -12.501 35s-12.334 14 -20.001 17s-15.167 4.5 -22.5 4.5c-12 0 -24.5 -3.16699 -37.5 -9.5s-25.333 -16.333 -37 -30s-22.167 -30.834 -31.5 -51.501s-16.666 -45.334 -21.999 -74.001c-10.667 -58 -11.167 -102 -1.5 -132
s30.5 -45 62.5 -45c15.333 0 29.166 6.33301 41.499 19s23.166 27.334 32.499 44.001s16.833 32.834 22.5 48.501s9.16699 26.167 10.5 31.5l23 -7c-0.666992 -3.33301 -1.66699 -9.83301 -3 -19.5s-3.5 -20.834 -6.5 -33.501s-7.16699 -25.834 -12.5 -39.501
s-12.333 -26.167 -21 -37.5s-19.5 -20.666 -32.5 -27.999s-28.167 -11 -45.5 -11c-26.667 0 -49 5.5 -67 16.5s-32.167 25.5 -42.5 43.5s-17.166 39 -20.499 63s-3.33301 49 0 75c4 32.667 11.333 62.334 22 89.001s23.5 49.5 38.5 68.5s31.333 33.833 49 44.5
s35.167 16 52.5 16c12.667 0 25.167 -3 37.5 -9s23.666 -13.167 33.999 -21.5s19.333 -17.333 27 -27s13.5 -17.834 17.5 -24.501z" />
    <glyph glyph-name="A" unicode="A" horiz-adv-x="508" 
d="M498 189c0 -21.333 -8.33105 -32.0029 -24.998 -32.0029c-6.66699 0 -13.667 1.33301 -21 4c0 -34 8.33301 -72 25 -114c-0.666992 -8.66699 -4.83398 -15.667 -12.501 -21s-16.167 -8 -25.5 -8c-8 0 -17 2.33301 -27 7c-5.33301 10.667 -8 27.334 -8 50.001
c0 6 0.333008 17 1 33v33c0 12 -1 20 -3 24c-6 0.666992 -14.5 0.333984 -25.5 -0.999023s-18.833 -2 -23.5 -2c-28.667 0 -73.667 -4 -135 -12c-70 -9.33301 -110.333 -18.666 -121 -27.999c-6 -4.66699 -12.333 -28.667 -19 -72c-5.33301 -35.333 -8.33301 -61.333 -9 -78
c-3.33301 -4.66699 -8 -7 -14 -7c-8.66699 0 -18.334 4.33301 -29.001 13s-16 17 -16 25c0 4 2.66699 13 8 27s8.33301 22.667 9 26c11.333 74 33 155.667 65 245c88 250 156 375 204 375c51.333 0 91 -65.333 119 -196c10 -46 21.667 -134 35 -264c4 -3.33301 14 -7 30 -11
c12 -2.66699 18 -8 18 -16zM401.002 217.997c-16.667 117.333 -27.335 188.333 -32.002 213c-22 112 -45.333 167.667 -70 167c-27.333 -1.33301 -61.666 -52.666 -102.999 -153.999l-69 -192c-4 -8.66699 -8.33301 -21.667 -13 -39c-2.66699 -16 2 -24 14 -24
c4 0 24.333 3.33301 61 10c28.667 5.33301 99.334 11.666 212.001 18.999z" />
    <glyph glyph-name="B" unicode="B" horiz-adv-x="505" 
d="M475 178c0 -20.667 -4.66797 -39.0029 -14.001 -55.0029c-44.667 -80 -121.334 -120 -230.001 -120c-34 0 -77 6.66699 -129 20c0 -1.33301 -0.333008 -2.66602 -1 -3.99902c0 -2 1.33301 -8.33301 4 -19c-2.66699 -8 -7.66699 -13 -15 -15l-8 4
c-12.667 -1.33301 -20 5.33398 -22 20.001c-2 21.333 -3.83301 33 -5.5 35s-8.5 5.66699 -20.5 11c-9.33301 4 -14 10 -14 18c0 10 4.83301 15.5 14.5 16.5s14.834 3.16699 15.501 6.5c0 -0.666992 0 4.66602 0 15.999s0.5 29.333 1.5 54s1.5 43.334 1.5 56.001l-1 35
c-14 4.66699 -21 11 -21 19c0 10 6.33301 18.333 19 25v334c0 5.33301 3.83301 12 11.5 20s14.167 12 19.5 12c10.667 0 16.667 -1 18 -3c4 -4 7.66699 -8.33301 11 -13c-10.667 -61.333 -16 -105.333 -16 -132l1 -6c45.333 116.667 113 175 203 175
c52 0 91.667 -20 119 -60c24.667 -35.333 37 -79.666 37 -132.999c0 -40 -9.33301 -79.333 -28 -118c-21.333 -45.333 -48.666 -73.333 -81.999 -84c87.333 -10.667 131 -49 131 -115zM402.999 498.997c0 100 -36.334 150 -109.001 150c-49.333 0 -94.333 -32.333 -135 -97
c-36.667 -58 -55 -113 -55 -165v-88c-2.66699 0 22 0 74 0c76.667 0 132.334 13.667 167.001 41c38.667 31.333 58 84.333 58 159zM423.998 183.997c0 36.667 -35.334 60.333 -106.001 71c-28.667 4.66699 -78.667 7 -150 7c-28 0 -50.333 -2 -67 -6
c-0.666992 -22 -1 -67.667 -1 -137c0 -17.333 0.666992 -33 2 -47c32 -18.667 74.333 -28 127 -28c42.667 0 84.334 12.667 125.001 38c46.667 28 70 62 70 102z" />
    <glyph glyph-name="C" unicode="C" horiz-adv-x="478" 
d="M468 154c0 -10.667 -3.00098 -24.668 -9.00098 -42.001c-14 -40.667 -42.333 -73.334 -85 -98.001c-39.333 -22.667 -82 -34 -128 -34c-78 0 -136.667 32 -176 96c-33.333 52.667 -50 120.334 -50 203.001c0 70.667 10.333 137.334 31 200.001
c23.333 73.333 58 130 104 170c34 30 68.333 45 103 45c51.333 0 89.666 -24.667 114.999 -74c20 -38.667 30 -86.334 30 -143.001c0 -28 -4.33301 -60.333 -13 -97c-11.333 -48 -26 -72 -44 -72c-14 0 -24 7.33301 -30 22c4 2.66699 10.333 7.33398 19 14.001
c17.333 16.667 26 57.334 26 122.001c0 39.333 -7.33301 77 -22 113c-18.667 46.667 -44.334 70 -77.001 70c-26 0 -53.333 -15.667 -82 -47c-21.333 -23.333 -39.666 -50.333 -54.999 -81c-34 -70.667 -51 -157.667 -51 -261c0 -68.667 12 -123.334 36 -164.001
c30 -50.667 76.667 -76 140 -76c34.667 0 66.334 9.16699 95.001 27.5s50.667 42.833 66 73.5c2.66699 10 8.33398 24 17.001 42c5.33301 8.66699 12 13 20 13c13.333 0 20 -7.33301 20 -22z" />
    <glyph glyph-name="D" unicode="D" horiz-adv-x="499" 
d="M469 419c0 -101.333 -22.3379 -196.333 -67.0049 -285c-55.333 -108 -128.666 -162 -219.999 -162c-33.333 0 -64.666 11.667 -93.999 35c-11.333 -14.667 -18.666 -22 -21.999 -22c-7.33301 0 -14.666 2.33301 -21.999 7c-9.33301 26 -14 76 -14 150
c0 56 1 139.167 3 249.5s3 193.833 3 250.5c0 1.33301 -0.333008 3.83301 -1 7.5s-1 6.5 -1 8.5c0 14.667 8 22 24 22c8 0 16.667 -3.16699 26 -9.5s14 -13.166 14 -20.499c0 -8 -2.16699 -17.833 -6.5 -29.5s-6.5 -21.167 -6.5 -28.5v-39c8 4.66699 19.667 21 35 49
s31 48.667 47 62c24.667 21.333 56.334 32 95.001 32c72 0 126 -29.667 162 -89c30 -48.667 45 -111.334 45 -188.001zM409.995 424c0 60.667 -8.66797 111 -26.001 151c-23.333 56 -61.333 84 -114 84c-37.333 0 -74.333 -23 -111 -69c-30 -38 -51 -78.333 -63 -121
c-10.667 -38.667 -16 -80 -16 -124v-207c0 -31.333 8.33301 -58.333 25 -81c18.667 -25.333 43.334 -38 74.001 -38c53.333 0 101 28 143 84c35.333 46 59.333 98.667 72 158c10.667 52.667 16 107 16 163z" />
    <glyph glyph-name="E" unicode="E" horiz-adv-x="465" 
d="M455 42c-3.33301 -7.33301 -7.33691 -10.9971 -12.0039 -10.9971c-2.66699 0 -6.5 0.5 -11.5 1.5s-8.83301 1.5 -11.5 1.5c-28.667 0 -70.167 -9.16699 -124.5 -27.5s-95.833 -27.5 -124.5 -27.5c-94 0 -141 79 -141 237c0 125.333 3.33301 232.333 10 321l2 32
c0 5.33301 -0.833008 12.166 -2.5 20.499s-2.5 14.166 -2.5 17.499c0 16 11 25 33 27c24.667 2.66699 73.334 13 146.001 31c66 16 113.333 24 142 24c3.33301 0 8 -0.666992 14 -2c10.667 0.666992 21 -2.33301 31 -9s15 -13.667 15 -21c0 -13.333 -17 -20 -51 -20
c-30.667 0 -75.667 -5.33301 -135 -16c-66.667 -12.667 -108 -25.667 -124 -39c-5.33301 -50.667 -11.666 -130 -18.999 -238c2.66699 -3.33301 6.33398 -5 11.001 -5c20 0 49.667 6.33301 89 19s69.333 19 90 19c16.667 0 33.334 -4.33301 50.001 -13l8 -30
c1.33301 -2.66699 -7.33398 -7.33398 -26.001 -14.001c-9.33301 6 -21.333 9 -36 9c-16.667 0 -48.167 -6 -94.5 -18s-77.833 -22 -94.5 -30c-2.66699 -14.667 -4 -48.667 -4 -102c0 -100.667 25.667 -151 77 -151c24.667 0 60.167 8.33301 106.5 25s81.833 25 106.5 25
c42.667 0 70.334 -12 83.001 -36z" />
    <glyph glyph-name="F" unicode="F" horiz-adv-x="410" 
d="M417 635c-7.33301 -7.33301 -15.667 -11.002 -25 -11.002c-4 0 -10 0.5 -18 1.5s-14.333 1.5 -19 1.5c-28 0 -65.333 -5.66699 -112 -17c-55.333 -14 -92.666 -22 -111.999 -24l-21 -188c-1.33301 -13.333 -2 -24.666 -2 -33.999c0 -14.667 5 -22 15 -22
c2.66699 0 5.66699 0.333008 9 1c64 16 110.333 24 139 24c41.333 0 55.333 0.666992 42 2c13.333 -1.33301 24 -8 32 -20l3 -25c-2 -4.66699 -5.33301 -7 -10 -7s-10.834 -0.666992 -18.501 -2s-13.5 -2 -17.5 -2c-57.333 0 -122 -11 -194 -33c-4.66699 -22 -7 -71 -7 -147
c0 -62.667 2.33301 -97.667 7 -105c2.66699 -4 5.83398 -8 9.50098 -12s5.5 -7.33301 5.5 -10c0 -4.66699 -3.66699 -9.83398 -11 -15.501s-13 -8.5 -17 -8.5c-0.666992 0 -10.667 5.33301 -30 16c-14 36.667 -21 85 -21 145c0 47.333 3.83301 117.5 11.5 210.5
s11.5 163.167 11.5 210.5c0 10 -4.66699 15.667 -14 17c-14.667 2.66699 -23.334 5 -26.001 7c-10 6.66699 -15 12.667 -15 18c0 6.66699 3 13.334 9 20.001c2.66699 1.33301 11 2.33301 25 3c11.333 0.666992 19 3.33398 23 8.00098c1.33301 5.33301 2 10.333 2 15
c0 10 6.66699 19 20 27c10.667 6 19.667 9 27 9c6.66699 0 10.334 -4.33301 11.001 -13v-21c1.33301 -4.66699 3.66602 -8 6.99902 -10l95 20c38 7.33301 70 11 96 11c38 0 68 -13.333 90 -40z" />
    <glyph glyph-name="G" unicode="G" horiz-adv-x="483" 
d="M463 165c0 -54.667 -23.334 -98.333 -70.001 -131c-42.667 -30 -94.667 -45 -156 -45c-80 0 -138.333 34.333 -175 103c-28 52.667 -42 123 -42 211c0 88.667 17.333 170.667 52 246c44.667 95.333 105.667 143 183 143c6 0 16 -2.66699 30 -8
c38.667 -15.333 72 -50 100 -104c26.667 -50.667 40 -98.667 40 -144c0 -81.333 -16.333 -122 -49 -122c-18.667 0 -28 7.66699 -28 23c0 2.66699 4.33301 12.334 13 29.001s13 30 13 40c0 47.333 -9 94 -27 140c-23.333 60 -55.333 90 -96 90
c-41.333 0 -77.333 -25 -108 -75c-24 -39.333 -40.167 -83.833 -48.5 -133.5s-12.5 -92.834 -12.5 -129.501c0 -70 6 -121.667 18 -155c18 -52 54 -86 108 -102c17.333 -5.33301 31.333 -8 42 -8c30.667 0 59.667 7.66699 87 23s48 36 62 62c13.333 24 20 40.667 20 50
c0 14.667 -11.333 22 -34 22c-46 0 -82.667 -6.5 -110 -19.5s-40.333 -19.5 -39 -19.5c-22 0 -33 17.667 -33 53c0 8 4.33301 14.667 13 20s33 11.333 73 18c38 6.66699 64 10 78 10c26.667 0 49.334 -8 68.001 -24s28 -37 28 -63z" />
    <glyph glyph-name="H" unicode="H" horiz-adv-x="554" 
d="M534 632c-10.667 -8 -16.3271 -12.3311 -16.9941 -12.998c-4.66699 -4.66699 -8.33398 -10.667 -11.001 -18c-14.667 -38 -23.334 -142.667 -26.001 -314c24 -5.33301 36 -13.333 36 -24c0 -6.66699 -3 -14.334 -9 -23.001l-29 -12c0 -29.333 3.33301 -72.333 10 -129
c0.666992 -3.33301 4 -13.333 10 -30c4.66699 -13.333 7 -22.666 7 -27.999c0 -8 -3 -16 -9 -24s-13 -12 -21 -12c-18 0 -30.333 13.333 -37 40c-0.666992 3.33301 -3.33398 24.5 -8.00098 63.5s-7 64.167 -7 75.5c0 12 1 23.333 3 34
c-41.333 -0.666992 -90 -6.33398 -146 -17.001l-144 -29l-18 -18c0.666992 -25.333 1 -51 1 -77c2.66699 -39.333 9 -64.666 19 -75.999c-2.66699 -8.66699 -6.83398 -13 -12.501 -13s-12.334 -1.5 -20.001 -4.5s-13.5 -4.5 -17.5 -4.5c-12.667 0 -20.667 25 -24 75
c-1.33301 31.333 -2.33301 62.666 -3 93.999l-7 10l-4 -1c-8.66699 0 -16.667 2.5 -24 7.5s-11 11.5 -11 19.5c0 5.33301 3 12.833 9 22.5s12 14.5 18 14.5c1.33301 0 3.16602 -0.333008 5.49902 -1s4.16602 -1 5.49902 -1l5 1c0.666992 29.333 1 88 1 176
c0 116.667 8 196 24 238c7.33301 18 19.333 27 36 27c10.667 0 21 -3.5 31 -10.5s15 -15.833 15 -26.5c0 -4 -3 -13 -9 -27c-6.66699 -16.667 -10.334 -26.334 -11.001 -29.001c-18 -64 -27 -160.667 -27 -290c0 -30 5.66699 -45 17 -45c3.33301 0 21 3.33301 53 10
c72 13.333 120 20 144 20c6 0 16.167 1.83301 30.5 5.5s28.333 5.5 42 5.5s20.167 9.33301 19.5 28l-2 88c-1.33301 56.667 1.33398 113.334 8.00098 170.001c10 89.333 28 134 54 134c13.333 0 25.333 -7 36 -21c8.66699 -12.667 13.334 -26.334 14.001 -41.001z" />
    <glyph glyph-name="I" unicode="I" horiz-adv-x="172" 
d="M132 641c0 -0.666992 -2.99902 -6.33301 -8.99902 -17c-2.66699 -5.33301 -5.33398 -23 -8.00098 -53c-14.667 -136.667 -22 -263 -22 -379c0 -95.333 10 -157.666 30 -186.999c-12.667 -8.66699 -22.667 -13 -30 -13c-28.667 0 -46 23.333 -52 70
c-5.33301 41.333 -8 70.666 -8 87.999l7 474c0 9.33301 6.33301 19.333 19 30s23.667 16 33 16c6 0 14.167 -3.5 24.5 -10.5s15.5 -13.167 15.5 -18.5z" />
    <glyph glyph-name="J" unicode="J" horiz-adv-x="419" 
d="M469 636c0 -11.333 -6.66406 -17 -19.9971 -17c-4 0 -10 0.5 -18 1.5s-14 1.5 -18 1.5c-32 0 -48 -10 -48 -30c0 -5.33301 0.5 -13 1.5 -23s1.5 -17.667 1.5 -23c0 -114 -4.66699 -212 -14 -294c-8.66699 -74 -20.334 -129.667 -35.001 -167
c-26.667 -64.667 -67 -97 -121 -97c-46 0 -88 27 -126 81c-34.667 49.333 -52 98 -52 146c0 54.667 9.33301 82 28 82c30 0 45 -25.333 45 -76c0 -8 -0.333008 -19.5 -1 -34.5s-1 -26.167 -1 -33.5c0 -24.667 10.667 -49.667 32 -75s44.333 -38 69 -38
c74.667 0 112 110.667 112 332c0 154 0.333008 225.333 1 214l-2 2c-18.667 -0.666992 -45.334 -10.667 -80.001 -30s-53.334 -29 -56.001 -29c-8 0 -14.333 4.16699 -19 12.5s-7 16.5 -7 24.5c0 11.333 7.33301 20.333 22 27c12 4.66699 36 12 72 22
c30 8.66699 53.333 18 70 28l2 3c2.66699 20.667 11.667 31 27 31c4 0 10.167 -3 18.5 -9s14.5 -9 18.5 -9c6 0 14.5 1.5 25.5 4.5s19.5 4.5 25.5 4.5c10 0 20.333 -3.16699 31 -9.5s16 -13.833 16 -22.5z" />
    <glyph glyph-name="K" unicode="K" horiz-adv-x="491" 
d="M531 66c0 -14 -9.33203 -26 -27.999 -36c-16 -9.33301 -31.333 -14 -46 -14c-55.333 0 -110.333 38 -165 114c-24 34 -59.333 97 -106 189c-20 -22.667 -41.333 -51 -64 -85c-29.333 -43.333 -44 -73.666 -44 -90.999c0 -70 7.66699 -118 23 -144l2 -17
c-7.33301 -8.66699 -15.333 -13 -24 -13c-14.667 0 -26.334 10.333 -35.001 31c-4.66699 10.667 -10.334 34.167 -17.001 70.5s-9.66699 60.5 -9 72.5l18 489c0 2.66699 -0.5 5.83398 -1.5 9.50098s-1.5 6.5 -1.5 8.5c0 24.667 9.33301 37 28 37c10 0 23 -5 39 -15
s24 -19.667 24 -29c0 -4 -2.33301 -7 -7 -9c-6.66699 -3.33301 -10.334 -5.33301 -11.001 -6c-5.33301 -4.66699 -9.33301 -19.667 -12 -45c-12.667 -138.667 -19 -243.334 -19 -314.001l5 -5l170 230c92.667 118 154 177 184 177c4 0 7.33301 -0.333008 10 -1
c0.666992 -2 6.33398 -10 17.001 -24c7.33301 -10 11 -18.667 11 -26c0 -9.33301 -4 -14 -12 -14c-1.33301 0 -5.33301 0.833008 -12 2.5s-10.667 2.5 -12 2.5c-12 0 -43.667 -28.333 -95 -85c-48.667 -54.667 -77 -91 -85 -109c-6.66699 -14.667 -10 -27.334 -10 -38.001
c0 -46.667 23.667 -109.667 71 -189c50.667 -85.333 96.667 -128 138 -128c7.33301 0 17.333 3 30 9s22.334 9 29.001 9c11.333 0 17 -4.66699 17 -14z" />
    <glyph glyph-name="L" unicode="L" horiz-adv-x="379" 
d="M369 22c-61.333 -23.333 -130.668 -35.002 -208.001 -35.002c-57.333 0 -96.666 22.333 -117.999 67c-15.333 31.333 -23 79.333 -23 144c0 41.333 3.16699 103 9.5 185s9.5 143.333 9.5 184c0 8.66699 -0.666992 21.334 -2 38.001s-2 29.334 -2 38.001
c0 6.66699 0.333008 13.667 1 21c7.33301 8.66699 17.333 13 30 13c23.333 0 35 -27.333 35 -82c0 -47.333 -4.33301 -118.333 -13 -213s-13 -165.667 -13 -213c0 -90 30 -135 90 -135c20 0 48.167 5.66699 84.5 17s64.5 17 84.5 17c10.667 0 19.167 -4.83301 25.5 -14.5
s9.5 -20.167 9.5 -31.5z" />
    <glyph glyph-name="M" unicode="M" horiz-adv-x="649" 
d="M624 665c0 -6 -2.50195 -11.6689 -7.50195 -17.002s-9.5 -10.5 -13.5 -15.5s-6 -15.167 -6 -30.5c0.666992 -21.333 0.666992 -32.333 0 -33c-16.667 -142.667 -25 -276 -25 -400c0 -65.333 0 -97 0 -95c2.66699 -47.333 12.667 -74 30 -80v-10
c-3.33301 -7.33301 -9 -11 -17 -11c-42 0 -67 41 -75 123c-3.33301 31.333 -3.66602 63 -0.999023 95l26 323l-74 -270c-45.333 -141.333 -89.666 -212 -132.999 -212c-19.333 0 -39.333 12.333 -60 37c-16.667 18.667 -29.334 39.334 -38.001 62.001
c-20.667 52.667 -42 125.667 -64 219l-51 223l-6 -15c-12 -123.333 -17 -211.666 -15 -264.999l10 -229c1.33301 -24 9.33301 -37 24 -39c0.666992 -18 -15.333 -27 -48 -27c-30 0 -45 55 -45 165c0 50 2.66699 124.5 8 223.5s8 173.5 8 223.5c0 10.667 -1 19 -3 25
s-3 9.66699 -3 11c0 26 26.667 39 80 39c10 0 22 -7 36 -21l9 -92c7.33301 -58.667 27 -144 59 -256c38.667 -137.333 70.334 -206 95.001 -206c31.333 0 65.666 62.667 102.999 188c23.333 80.667 42 160.667 56 240c8.66699 25.333 19.667 61.333 33 108c8 30 31 45 69 45
c8.66699 0 17.334 -2.33301 26.001 -7s13 -11 13 -19z" />
    <glyph glyph-name="N" unicode="N" horiz-adv-x="456" 
d="M476 672c0.666992 -6 -2.33691 -10.3301 -9.00391 -12.9971s-13 -5.33398 -19 -8.00098c-9.33301 -5.33301 -17.666 -35.333 -24.999 -90c-6 -43.333 -9 -78 -9 -104l-3 -303c-0.666992 -26.667 -6.33398 -55.667 -17.001 -87c-14 -40 -31.667 -60 -53 -60
c-32.667 0 -63 30.333 -91 91c-11.333 24 -27.166 69.5 -47.499 136.5l-90.5 301.5c-7.33301 -1.33301 -11.333 -8 -12 -20c-1.33301 -18 -6.66602 -64.667 -15.999 -140c-7.33301 -57.333 -11 -104 -11 -140c0 -107.333 6.66699 -169.333 20 -186
c7.33301 -10.667 11 -16.667 11 -18c0 -7.33301 -4.83301 -14.333 -14.5 -21s-18.167 -10 -25.5 -10c-26.667 0 -40 43.667 -40 131c0 12 -0.666992 29 -2 51s-2 39 -2 51c0 28.667 4.33301 72.5 13 131.5s13 103.167 13 132.5v129c0 1.33301 -0.5 3.5 -1.5 6.5
s-1.5 5.16699 -1.5 6.5c0 17.333 17 26 51 26c28 0 47.333 -8.66699 58 -26c2.66699 -4.66699 5.33398 -19.334 8.00098 -44.001l6 -49c8.66699 -53.333 32.667 -141 72 -263c46 -141.333 79.333 -212 100 -212c18 0 26.667 35.667 26 107l-3 300
c0 35.333 6.33301 74.666 19 117.999c16.667 56.667 38.334 85 65.001 85c10 0 20.333 -3.33301 31 -10z" />
    <glyph glyph-name="O" unicode="O" horiz-adv-x="572" 
d="M536 339c0 -94 -21.002 -175.667 -63.002 -245c-49.333 -81.333 -117.666 -122 -204.999 -122c-22 0 -47.667 5 -77 15c-111.333 35.333 -167 135.333 -167 300c0 96 21.333 182.333 64 259c50.667 92 120.334 138 209.001 138c77.333 0 138.333 -39.667 183 -119
c37.333 -66 56 -141.333 56 -226zM479.998 348c0 148 -49.333 238.667 -148 272c-10.667 4 -20 6 -28 6c-42.667 0 -84.667 -19.667 -126 -59c-70 -66.667 -105 -169.667 -105 -309c0 -12.667 2.66699 -32.667 8 -60c11.333 -57.333 30 -100 56 -128
c30.667 -32 73.667 -48 129 -48c76 0 132.667 37.667 170 113c29.333 58 44 129 44 213z" />
    <glyph glyph-name="P" unicode="P" horiz-adv-x="501" 
d="M466 378c-27.333 -169.333 -99.001 -250.666 -215.001 -243.999c-62.667 4 -115.667 24.667 -159 62l-7 -5v-41c-0.666992 -39.333 2.66602 -68.333 9.99902 -87c0.666992 -2 4.33398 -8.83301 11.001 -20.5s10 -18.834 10 -21.501c0 -8 -3 -15.5 -9 -22.5
s-13.333 -10.5 -22 -10.5c-20 0 -34 6.66699 -42 20c-5.33301 10 -8.66602 26 -9.99902 48c-2 34 -3 68.333 -3 103c0 20 1.5 50 4.5 90s4.33301 70.5 4 91.5s1.16699 52 4.5 93s5 71.5 5 91.5v95c0 4.66699 -1.16699 12 -3.5 22s-3.5 17.333 -3.5 22
c0 12.667 8.66699 19 26 19c11.333 0 20.833 -5 28.5 -15s11.5 -20.667 11.5 -32c0 -8.66699 -1.83301 -21 -5.5 -37s-5.5 -28.333 -5.5 -37l1 -26l46 80c36 50 83.667 75 143 75c64 0 112.333 -26.333 145 -79c26.667 -43.333 40 -98.333 40 -165
c0 -23.333 -1.66699 -46.333 -5 -69zM421.999 435c0 52 -9.00098 97.668 -27.001 137.001c-23.333 51.333 -57.666 77 -102.999 77c-58.667 0 -108.334 -39 -149.001 -117c-34.667 -66.667 -52 -132.334 -52 -197.001v-53c6.66699 3.33301 11.667 5 15 5
c4.66699 0 8.83398 -3.33301 12.501 -10s6.83398 -11 9.50098 -13c-0.666992 -2 -1.66699 -2.66699 -3 -2s-2 0 -2 -2c0 -3.33301 2.66699 -9.33301 8 -18c26 -40 66 -60 120 -60c50.667 0 88.667 16.667 114 50c19.333 24.667 34.666 64 45.999 118
c7.33301 38 11 66.333 11 85z" />
    <glyph glyph-name="Q" unicode="Q" horiz-adv-x="571" 
d="M551 346c0 -137.333 -38.667 -238.334 -116 -303.001c26 -36.667 42.667 -61.334 50 -74.001c18.667 -29.333 31.667 -55.666 39 -78.999c-3.33301 -15.333 -11 -23 -23 -23c-7.33301 0 -24.833 25.167 -52.5 75.5s-47.167 75.5 -58.5 75.5
c-3.33301 0 -12.333 -2.66699 -27 -8l-29 -10c-6.66699 -1.33301 -22 -2.66602 -46 -3.99902c-165.333 -6 -248 95.667 -248 305c0 96 20.333 180.333 61 253c49.333 88.667 118.333 133 207 133c77.333 0 139 -39 185 -117c38.667 -66 58 -140.667 58 -224zM499 347.999
c0 68.667 -14.3311 130.003 -42.998 184.003c-34.667 66.667 -84.334 102 -149.001 106c-56 3.33301 -104 -22.334 -144 -77.001c-31.333 -43.333 -52.666 -95 -63.999 -155c-6.66699 -34 -10 -72.667 -10 -116c0 -70.667 15.667 -128.667 47 -174
c35.333 -50 84.666 -76 147.999 -78c18.667 -0.666992 43 4.66602 73 15.999v11c-11.333 10.667 -27.333 21.667 -48 33c-24.667 12.667 -41.667 22.667 -51 30c-7.33301 5.33301 -11 11.666 -11 18.999c0 17.333 12 26 36 26c21.333 0 63.666 -31.667 126.999 -95
c59.333 56.667 89 146.667 89 270z" />
    <glyph glyph-name="R" unicode="R" horiz-adv-x="550" 
d="M530 5l-0.00292969 -4.99902c-4 -6.66699 -9.66699 -10 -17 -10c-9.33301 0 -15.333 1.66699 -18 5c-5.33301 27.333 -50.333 70.833 -135 130.5s-142 89.5 -172 89.5h-57v-62c0 -8.66699 2.33301 -28.667 7 -60c4 -33.333 7.33301 -51.666 10 -54.999
c11.333 -18 17 -26.333 17 -25c0 -15.333 -8.66699 -23 -26 -23c-19.333 0 -34 7 -44 21s-15 79.333 -15 196c0 9.33301 -11.667 17.666 -35 24.999s-35 16 -35 26c0 14.667 21.333 28 64 40c4.66699 24 7.66699 56 9 96c2.66699 50 4.66699 82.333 6 97
c0.666992 7.33301 3.66699 27.333 9 60c4.66699 24.667 6.66699 45 6 61c-3.33301 2 -12.166 3 -26.499 3s-21.5 5.66699 -21.5 17c0 14 6.66699 22.667 20 26l29 8c2 6.66699 6.33301 14 13 22c6 2 11.333 3 16 3c7.33301 0 14.833 -3.66699 22.5 -11s14.5 -11 20.5 -11
c3.33301 0 8 0.5 14 1.5s10.667 1.5 14 1.5c74 0 136.333 -15.333 187 -46c62 -36 93 -88.667 93 -158c0 -57.333 -17 -104 -51 -140c-21.333 -23.333 -62.666 -51.666 -123.999 -84.999c-4 -0.666992 -8.66699 -2.33398 -14 -5.00098
c13.333 -12.667 43.333 -34.334 90 -65.001s80 -55.667 100 -75c30.667 -30.667 45.334 -61.667 44.001 -93zM432.997 472.001c0 50.667 -23.001 89.667 -69.001 117c-38 22.667 -84 34 -138 34c-19.333 0 -35.333 -1.33301 -48 -4l-13 -20
c-9.33301 -15.333 -14.666 -35.666 -15.999 -60.999c-1.33301 -36.667 -2.66602 -58.334 -3.99902 -65.001c-8 -38 -13.333 -98.333 -16 -181c49.333 -18.667 80 -28 92 -28c9.33301 0 22.666 2.66699 39.999 8c49.333 14.667 89.333 39 120 73c34.667 36.667 52 79 52 127z
" />
    <glyph glyph-name="S" unicode="S" horiz-adv-x="449" 
d="M429 85c0 -37.333 -23.3379 -66.0039 -70.0049 -86.0039c-37.333 -16 -77.333 -24 -120 -24c-39.333 0 -82.333 8 -129 24c-60 20.667 -90 46.334 -90 77.001c0 16.667 8 25 24 25c12.667 0 27.334 -7.33301 44.001 -22c23.333 -22 36 -33.667 38 -35
c25.333 -16.667 66.333 -25 123 -25c76 0 114 20 114 60c0 18.667 -16.333 41.667 -49 69l-75 54c-71.333 50.667 -116.333 86 -135 106c-42 44.667 -63 96.667 -63 156c0 54.667 15.667 104.667 47 150c34.667 50.667 78.334 76 131.001 76c44.667 0 83 -19 115 -57
c28 -33.333 46.333 -73.666 55 -120.999c0.666992 -16 3.33398 -40.333 8.00098 -73l8 -36c0 -53.333 -13 -80 -39 -80c-6.66699 0 -13.5 3.83301 -20.5 11.5s-10.5 14.834 -10.5 21.501c0 9.33301 2 23 6 41s6 31.667 6 41c0 46 -7.33301 86.667 -22 122
c-19.333 48 -48.666 72 -87.999 72s-72.166 -17.167 -98.499 -51.5s-39.5 -71.833 -39.5 -112.5c0 -54.667 28.667 -106.667 86 -156l159 -115c56.667 -41.333 85 -78.666 85 -111.999z" />
    <glyph glyph-name="T" unicode="T" horiz-adv-x="474" 
d="M448 624c0 -16.667 -5.66895 -24.9971 -17.002 -24.9971c1.33301 0 -6 3.66699 -22 11c-10 5.33301 -35.667 8 -77 8h-45c-16 0 -26 -2.5 -30 -7.5s-7.16699 -16.333 -9.5 -34s-6.16602 -43.834 -11.499 -78.501c-12.667 -102 -19 -211 -19 -327c0 -86 9 -144 27 -174
c0 -9.33301 -3.33301 -14 -10 -14c-34.667 0 -56.667 20 -66 60c-4 15.333 -6 48.666 -6 99.999c0 74.667 1.33301 131 4 169c0.666992 18 4.33398 60 11.001 126c5.33301 52.667 8 94.667 8 126c0 38 0.333008 47.333 1 28c-0.666992 10 -5 15 -13 15
c-12 0 -29.833 -2.33301 -53.5 -7s-41.5 -7 -53.5 -7c-26.667 0 -44 10.667 -52 32c6.66699 11.333 56.334 22.666 149.001 33.999c77.333 8.66699 133.666 13 168.999 13c77.333 0 116 -16 116 -48z" />
    <glyph glyph-name="U" unicode="U" horiz-adv-x="455" 
d="M420 369c0 -54 -6.33496 -113.333 -19.002 -178c-15.333 -80.667 -35.666 -134.667 -60.999 -162c-32.667 -34.667 -70.667 -52 -114 -52c-52 0 -92 12 -120 36c-34.667 29.333 -56.334 72 -65.001 128c-4 23.333 -6 73.333 -6 150c0 32.667 2 81.5 6 146.5
s6 113.5 6 145.5c0 6 -2 14.5 -6 25.5s-6 19.167 -6 24.5c0 6.66699 5.5 13.667 16.5 21s20.167 11 27.5 11c24.667 0 36 0.333008 34 1c8.66699 -2 12.334 -9.66699 11.001 -23c-4.66699 -18.667 -9.66699 -43 -15 -73c-12.667 -123.333 -19 -199.333 -19 -228v-130
c0 -46 8.66699 -86.333 26 -121c22 -44 53.667 -66 95 -66c70 0 117.333 67 142 201c12 66.667 18 161.667 18 285l1 42c0.666992 17.333 0.333984 32 -0.999023 44c-1.33301 15.333 -4.66602 28.5 -9.99902 39.5s-8 17.167 -8 18.5c0 6.66699 2.5 14.167 7.5 22.5
s10.833 12.5 17.5 12.5c7.33301 0 16.166 -3.16699 26.499 -9.5s15.5 -12.833 15.5 -19.5v-292z" />
    <glyph glyph-name="V" unicode="V" horiz-adv-x="474" 
d="M454 646c0 -51.333 -8.66699 -128 -26 -230c-12 -68.667 -32.667 -148.667 -62 -240c-40 -125.333 -76 -188 -108 -188c-28.667 0 -51.334 4.33301 -68.001 13c-33.333 18 -64.666 101 -93.999 249c-6.66699 33.333 -22 130 -46 290
c-3.33301 20.667 -9.66602 47 -18.999 79c0 0.666992 -1.83301 3 -5.5 7s-5.5 7.66699 -5.5 11c0 8 6 15.5 18 22.5s22.333 10.5 31 10.5c11.333 0 21.666 -4.5 30.999 -13.5s14 -19.167 14 -30.5c0 -13.333 -0.833008 -32.833 -2.5 -58.5s-2.5 -45.167 -2.5 -58.5
c0 -35.333 11 -104.333 33 -207c34.667 -164.667 63.667 -247 87 -247c15.333 0 33 18.333 53 55c32 56.667 61.333 141 88 253c25.333 108 38 197 38 267c0 25.333 -6.33301 42.333 -19 51c13.333 19.333 24 29 32 29c10.667 0 19 -8.33301 25 -25c5.33301 -14 8 -27 8 -39
z" />
    <glyph glyph-name="W" unicode="W" horiz-adv-x="599" 
d="M568 461c0 -79.333 -10.6699 -165.672 -32.0029 -259.005c-30 -128.667 -70.333 -193 -121 -193c-36.667 0 -63.667 24.333 -81 73c-12 32 -21 81.667 -27 149c-6.66699 71.333 -11.667 113.333 -15 126c-2 -8 -15.333 -68 -40 -180c-26.667 -124 -58 -186 -94 -186
c-20 0 -38.667 9.33301 -56 28c-26.667 28.667 -46.667 119.334 -60 272.001c-8.66699 104 -13 209.333 -13 316c0 40.667 15.333 61 46 61c11.333 0 25 -4.33301 41 -13v-27c-10 -2 -16.833 -5.83301 -20.5 -11.5s-6.16699 -16.5 -7.5 -32.5
c-0.666992 -12 -0.666992 -27.667 0 -47l1 -38c0 -83.333 4.33301 -166.666 13 -249.999c12.667 -122.667 31.334 -184 56.001 -184c12.667 0 27.334 25.333 44.001 76c12 34.667 21 67.334 27 98.001c24 116 36 212 36 288c0 4.66699 4.33301 10.334 13 17.001
s15.334 10 20.001 10c14 0 27.5 -5.16699 40.5 -15.5s19.833 -22.166 20.5 -35.499c-12 -19.333 -18 -50 -18 -92c0 -64 4.33301 -129.667 13 -197c13.333 -97.333 33 -146 59 -146c36 0 65 59 87 177c16 86 24 161.667 24 227c0 36.667 -3.33301 65.667 -10 87l-16 43
c-6.66699 18 -10 32 -10 42c0 35.333 9 53 27 53c18.667 0 33 -33.667 43 -101c6.66699 -46.667 10 -91.667 10 -135z" />
    <glyph glyph-name="X" unicode="X" horiz-adv-x="559" 
d="M554 43c0 -8.66699 -4.33301 -15.668 -13 -21.001s-17.334 -8 -26.001 -8c-42.667 0 -124.667 96.333 -246 289c-3.33301 0.666992 -6.16602 -0.333008 -8.49902 -3s-14.5 -23.667 -36.5 -63l-74 -127c-26.667 -48.667 -45.667 -93.334 -57 -134.001
c-11.333 -8.66699 -22 -13 -32 -13c-14 0 -32.667 13.333 -56 40l44 43c10 10.667 43.667 63.334 101 158.001s86 144.334 86 149.001c0 10 -29.333 57.167 -88 141.5s-88 134.5 -88 150.5c0 22 11.667 33 35 33c10.667 0 28.334 -5.66699 53.001 -17l3 -6
c-0.666992 -34 13.666 -77.333 42.999 -130l76 -119c27.333 41.333 66.333 105 117 191c6.66699 16.667 18.667 40.334 36 71.001c11.333 15.333 23.333 23 36 23c7.33301 0 13.5 -3.33301 18.5 -10s7.83301 -13.667 8.5 -21l-189 -304
c20.667 -40.667 56 -97.334 106 -170.001c60.667 -88.667 100 -133 118 -133c6 0 10.667 3 14 9h11c5.33301 -6.66699 8 -13 8 -19z" />
    <glyph glyph-name="Y" unicode="Y" horiz-adv-x="486" 
d="M466 641c-6.66699 -12 -19 -28.498 -37 -49.498s-30 -37.833 -36 -50.5c-48.667 -95.333 -91 -189 -127 -281c-52.667 -134.667 -76.334 -230.334 -71.001 -287.001c-12 -8.66699 -23.333 -13 -34 -13c-21.333 0 -38.333 18.667 -51 56c4 3.33301 10.5 9.5 19.5 18.5
s23.167 40.833 42.5 95.5l37 110c-42.667 33.333 -79.667 85.666 -111 156.999c-52 119.333 -78 200.333 -78 243c0 27.333 10.667 41 32 41c14 0 25.333 -7.33301 34 -22c6.66699 -13.333 10 -27.333 10 -42c0 -4.66699 -1.5 -10.667 -4.5 -18s-4.5 -13 -4.5 -17
c0 -30.667 16.667 -83 50 -157c36.667 -80 67.334 -119.667 92.001 -119c11.333 12 43 78.667 95 200c46 108.667 80.333 163 103 163c24 0 37 -9.33301 39 -28z" />
    <glyph glyph-name="Z" unicode="Z" horiz-adv-x="566" 
d="M546 619c0 -36 -41.0039 -92.0049 -123.004 -168.005l-229 -200c-82 -77.333 -123 -135.333 -123 -174c0 -27.333 16.667 -41 50 -41c32 0 80.167 3.83301 144.5 11.5s112.5 11.5 144.5 11.5c17.333 0 35 -3.33301 53 -10c22.667 -8.66699 35.334 -20 38.001 -34
c-6 -9.33301 -13.333 -14 -22 -14c-5.33301 0 -13.166 1.83301 -23.499 5.5s-18.166 5.16699 -23.499 4.5h-5l-158 -19l-79 -10c-44 0 -81.333 8 -112 24c-38.667 20.667 -58 51.334 -58 92.001c0 34.667 12 67.334 36 98.001c28 36 66 73.667 114 113
c5.33301 4.66699 47.333 37.334 126 98.001c24.667 18 60 46.333 106 85c20.667 20 39.667 42.667 57 68c24 32.667 36 58.334 36 77.001c0 27.333 -21 41 -63 41c-42.667 0 -91.834 -8 -147.501 -24s-102.5 -35 -140.5 -57l-48 -31c-26 -17.333 -40.667 -26 -44 -26
c-17.333 0 -25.666 16.667 -24.999 50v11c46.667 28.667 111.667 56.334 195 83.001c88 28 157 42 207 42c30.667 0 55.334 -8 74.001 -24c10 -8.66699 19.667 -21.667 29 -39s14 -32 14 -44z" />
    <glyph glyph-name="bracketleft" unicode="[" horiz-adv-x="188" 
d="M180 -110l-92 -1.00098c-5.33301 -3.33301 -10.666 -5 -15.999 -5c-29.333 0 -44 50 -44 150c0 58.667 1.33301 252 4 580c0 6 -2 14.667 -6 26s-6 20 -6 26c0 16 12.333 24 37 24c6 0 11.667 -1.33301 17 -4h87c3.33301 1.33301 7.66602 -1 12.999 -7s8 -12 8 -18
c0 -9.33301 -7 -14.666 -21 -15.999h-64c-13.333 -52.667 -20 -125 -20 -217v-155c0 -192.667 6.33301 -307 19 -343l84 1c8 -3.33301 12 -9 12 -17c0 -7.33301 -4 -15.333 -12 -24z" />
    <glyph glyph-name="backslash" unicode="\" horiz-adv-x="399" 
d="M379 0c0 -10.667 -6.33398 -16 -19.001 -16c-29.333 0 -69.333 60.333 -120 181l-187 449c-8 14 -19 34.667 -33 62c8.66699 9.33301 17.334 14 26.001 14c10.667 0 21.667 -3.33301 33 -10s19 -14.667 23 -24c2 -11.333 5.33301 -28 10 -50s14.667 -51.333 30 -88
l97 -244c40 -96 78.667 -174 116 -234l15.5 -20c5.66699 -7.33301 8.5 -14 8.5 -20z" />
    <glyph glyph-name="bracketright" unicode="]" horiz-adv-x="188" 
d="M168 -92c0 -16 -12.332 -24.001 -36.999 -24.001c-6 0 -11.667 1.33301 -17 4h-87c-10 3.33301 -15 9 -15 17c0 7.33301 5 15.333 15 24h64c13.333 52.667 20 158.334 20 317.001v155c0 125.333 -6.33301 206.333 -19 243h-72c-13.333 5.33301 -20 12.333 -20 21
c0 7.33301 6.66699 14 20 20h80c5.33301 3.33301 10.666 5 15.999 5c29.333 0 44 -50.333 44 -151c0 -58.667 -1.33301 -252 -4 -580c0 -6 2 -14.5 6 -25.5s6 -19.5 6 -25.5z" />
    <glyph glyph-name="asciicircum" unicode="^" horiz-adv-x="288" 
d="M268 722c0 -2.66699 -1.49902 -6.66797 -4.49902 -12.001s-5.5 -8 -7.5 -8c-12.667 0 -33.334 13.333 -62.001 40c-8.66699 8 -17 13.333 -25 16c-11.333 4.66699 -19.666 8.33398 -24.999 11.001c-9.33301 -2 -26 -11 -50 -27c-28.667 -26.667 -49.334 -40 -62.001 -40
c-2 0 -4.5 2.66699 -7.5 8s-4.5 9.33301 -4.5 12l1 5c74 66.667 115 100 123 100c7.33301 0 48.333 -33.333 123 -100z" />
    <glyph glyph-name="underscore" unicode="_" horiz-adv-x="467" 
d="M467 -129h-467v35h467v-35z" />
    <glyph glyph-name="grave" unicode="`" horiz-adv-x="196" 
d="M176 702c0 -2.66699 -1.33398 -6.66699 -4.00098 -12s-5.33398 -8 -8.00098 -8c-13.333 0 -33.666 13.333 -60.999 40c-18.667 18 -36 30.667 -52 38c-7.33301 2 -16.666 5 -27.999 9l-3 7c0 6 3.83301 14.167 11.5 24.5s14.167 15.5 19.5 15.5
c15.333 0 57 -36.333 125 -109v-5z" />
    <glyph glyph-name="a" unicode="a" horiz-adv-x="361" 
d="M336 -29c0 -9.33301 -7.33496 -14.001 -22.002 -14.001c-16 0 -25.667 6.66699 -29 20c-0.666992 2 -1 15 -1 39c0 6.66699 -1 12 -3 16c-37.333 -27.333 -77.666 -41 -120.999 -41c-30 0 -59 8.33301 -87 25c-32 18.667 -48 42 -48 70c0 27.333 19 54 57 80
c34.667 24 66.667 36 96 36h99c4 4 6 11 6 21c0 44.667 -3.66699 78.334 -11 101.001c-12 38 -35.667 57 -71 57c-25.333 0 -48.666 -16 -69.999 -48c-19.333 -29.333 -29 -57.333 -29 -84v-6v-5c0 -5.33301 -2.66699 -8 -8 -8c-6.66699 0 -14 4 -22 12s-12 15 -12 21
c0 18.667 5.66699 42.167 17 70.5s23.666 49.833 36.999 64.5c16.667 18 37.334 27 62.001 27c38 0 73 -12 105 -36c34 -26 51.333 -57.333 52 -94zM282.998 129.999c0 26.667 -20.667 40 -62 40c-32.667 0 -61.334 -5.66699 -86.001 -17
c-31.333 -14.667 -47 -36.667 -47 -66c0 -18 8.33301 -32 25 -42c14 -8.66699 30.667 -13 50 -13c28.667 0 55.834 9.33301 81.501 28s38.5 42 38.5 70z" />
    <glyph glyph-name="b" unicode="b" horiz-adv-x="342" 
d="M317 222c0 -58 -7.99902 -106.667 -23.999 -146c-22 -54.667 -58 -82 -108 -82c-12.667 0 -29.667 3.66699 -51 11l-50 18c-1.33301 -4 -2 -8.33301 -2 -13c0 -3.33301 0.333008 -8.16602 1 -14.499s1 -11.166 1 -14.499c0 -10 -5.66699 -15 -17 -15
s-20.666 4.66699 -27.999 14c-4.66699 4.66699 -8.33398 24.334 -11.001 59.001c-2 27.333 -3 48.666 -3 63.999v6l19 558h14c9.33301 0 18.166 -4.83301 26.499 -14.5s12.5 -19.5 12.5 -29.5c0 -24.667 -3.16699 -61.334 -9.5 -110.001s-9.5 -85.334 -9.5 -110.001v-38
c5.33301 2 12 9.66699 20 23c10 16.667 18.667 28.334 26 35.001c13.333 12 29.666 18 48.999 18c32.667 0 62.334 -13.333 89.001 -40c24 -24 40 -53 48 -87c4.66699 -22.667 7 -53.334 7 -92.001zM264.001 216c0 41.333 -4.33301 77 -13 107c-12.667 46.667 -34 70 -64 70
c-36.667 0 -65.667 -27 -87 -81c-16.667 -42.667 -25 -85.667 -25 -129c0 -38.667 6.66699 -71.667 20 -99c16.667 -36.667 42 -55 76 -55s59.333 24 76 72c11.333 34 17 72.333 17 115z" />
    <glyph glyph-name="c" unicode="c" horiz-adv-x="364" 
d="M339 104c0 -16 -13.6699 -37.498 -41.0029 -64.498s-49.666 -42.833 -66.999 -47.5c-23.333 -7.33301 -42.666 -11 -57.999 -11c-48.667 0 -86 17.667 -112 53c-24 31.333 -36 72 -36 122c0 51.333 11 108.666 33 171.999c27.333 78.667 61.333 118 102 118
c19.333 0 45 -9.5 77 -28.5s50 -37.167 54 -54.5c4.66699 -20.667 7 -41 7 -61c0 -73.333 -11 -110 -33 -110c-5.33301 0 -11.666 2 -18.999 6s-11 8.66699 -11 14c0 2.66699 1.33301 6.16699 4 10.5s4.33398 7.16602 5.00098 8.49902c2.66699 8.66699 4 28.667 4 60
c0 74 -16.667 111 -50 111c-36.667 0 -66.667 -33.667 -90 -101c-17.333 -52 -26 -101.333 -26 -148c0 -36 5.66699 -66 17 -90c15.333 -31.333 39 -47 71 -47c19.333 0 42 10 68 30c23.333 18 40.666 37 51.999 57c2.66699 6.66699 6.66699 16 12 28
c3.33301 4.66699 8 7 14 7c4 0 8.83301 -4.5 14.5 -13.5s8.5 -15.833 8.5 -20.5z" />
    <glyph glyph-name="d" unicode="d" 
d="M342 635c0 -15.333 -2.00098 -34.999 -6.00098 -58.999c-4.66699 -31.333 -7.66699 -51 -9 -59c-2 -20.667 -5.33301 -89.334 -10 -206.001c-4 -106.667 -6 -165.667 -6 -177c0 -71.333 6.33301 -121.666 19 -150.999c-4.66699 -7.33301 -10.667 -11 -18 -11
c-6.66699 0 -14.167 3.33301 -22.5 10s-13.5 13.334 -15.5 20.001c0 13.333 -2 33.666 -6 60.999c-39.333 -50 -77 -75 -113 -75c-43.333 0 -76.666 16.333 -99.999 49c-20 28 -30 65 -30 111c0 56 10.333 114 31 174c26.667 78.667 62 118 106 118
c18.667 0 37.667 -7 57 -21c4 -2.66699 19.667 -16.667 47 -42c6.66699 45.333 10 144.666 10 297.999c4.66699 4.66699 11 7 19 7c12.667 0 23.667 -4.66699 33 -14s14 -20.333 14 -33zM266.999 266.001c0 29.333 -6.66602 55.665 -19.999 78.998c-16 28 -37.667 42 -65 42
c-33.333 0 -60 -34 -80 -102c-16 -51.333 -24 -99.666 -24 -144.999c0 -29.333 4.66699 -54.666 14 -75.999c12.667 -28 31.667 -42 57 -42c41.333 0 72.666 32 93.999 96c16 46 24 95.333 24 148z" />
    <glyph glyph-name="e" unicode="e" horiz-adv-x="338" 
d="M318 99c0 -29.333 -19.668 -55.667 -59.001 -79c-35.333 -21.333 -68.666 -32 -99.999 -32c-89.333 0 -134 56.667 -134 170c0 50 9 103.667 27 161c24 74.667 54.667 112 92 112c32 0 67 -16.167 105 -48.5s57 -64.5 57 -96.5c0 -41.333 -16.667 -77.333 -50 -108
s-71 -46 -113 -46c-4 0 -12.5 3.33301 -25.5 10s-21.833 10 -26.5 10c-8.66699 0 -13 -2.66699 -13 -8c0 -76.667 25.333 -115 76 -115c26 0 50 8.66699 72 26c13.333 10 28 25.667 44 47c12.667 16.667 21 25 25 25c15.333 0 23 -9.33301 23 -28zM248.999 282.999
c0 23.333 -6.66504 45.167 -19.998 65.5s-31 30.5 -53 30.5c-26.667 0 -48.334 -16.667 -65.001 -50c-14 -28 -21 -57 -21 -87c0 -19.333 6.16699 -35.5 18.5 -48.5s28.166 -19.5 47.499 -19.5c27.333 0 50 11.667 68 35c16.667 21.333 25 46 25 74z" />
    <glyph glyph-name="f" unicode="f" horiz-adv-x="290" 
d="M348 617c0 -13.333 -9.99707 -20 -29.9971 -20c-4 0 -7 0.666992 -9 2c-2.66699 28 -21.334 42 -56.001 42c-32.667 0 -58 -37.333 -76 -112c-12 -52.667 -18 -103 -18 -151c4.66699 0.666992 10.667 0.666992 18 0h27c24.667 0 37 -7.33301 37 -22
c0 -4.66699 -0.666992 -11.334 -2 -20.001c-10.667 -6 -27.334 -9 -50.001 -9c-17.333 0 -28 -1.33301 -32 -4c-2 -26 -3 -73 -3 -141v-72c0 -32 3.66699 -64.333 11 -97c1.33301 -3.33301 2 -6.33301 2 -9c0 -16 -11.333 -24 -34 -24c-20 0 -30 27 -30 81
c0 146.667 1.33301 233.334 4 260.001c1.33301 0 -15.667 0 -51 0c-15.333 0 -23 7.33301 -23 22c0 19.333 13.333 29 40 29h36c1.33301 13.333 2.66602 30.333 3.99902 51c10 177.333 59.667 266 149 266c57.333 0 86 -24 86 -72z" />
    <glyph glyph-name="g" unicode="g" horiz-adv-x="359" 
d="M334 300c0 -4 -0.333984 -9.66699 -1.00098 -17c-14 -66.667 -21 -120.334 -21 -161.001c0 -20.667 1 -52.334 3 -95.001s3 -74.667 3 -96c0 -41.333 -3.33301 -71.333 -10 -90c-8 -22 -23.333 -40.333 -46 -55s-46 -22 -70 -22c-28 0 -60.333 6 -97 18
c-46.667 14.667 -70 32.334 -70 53.001c0 18 7 27 21 27c6 0 11.333 -4 16 -12c6.66699 -11.333 11 -17.666 13 -18.999c5.33301 -5.33301 19 -10.333 41 -15c20 -5.33301 35 -8 45 -8c37.333 0 65.666 14.667 84.999 44c16.667 24.667 25 57 25 97
c0 42.667 -3.66699 76.667 -11 102c-32 -42 -70.333 -63 -115 -63c-13.333 0 -29 4.5 -47 13.5s-31.333 18.833 -40 29.5c-18 21.333 -27 55 -27 101c0 56.667 10.333 117.667 31 183c26.667 84.667 61.667 127 105 127c34.667 0 71.334 -31.333 110.001 -94
c4 -7.33301 10.333 -17 19 -29c8.66699 -2.66699 21.334 -9 38.001 -19zM273.999 245c0 14 -5 25.668 -15 35.001c-2 28 -9 52 -21 72c-15.333 24.667 -36 37 -62 37c-18 0 -36 -20.333 -54 -61c-13.333 -30.667 -22.333 -59.334 -27 -86.001c-6.66699 -40 -10 -74 -10 -102
c0 -82 23.667 -123 71 -123c36 0 66 30 90 90c18.667 48.667 28 94.667 28 138z" />
    <glyph glyph-name="h" unicode="h" horiz-adv-x="327" 
d="M294 -27c-5.33301 -5.33301 -15.333 -8 -30 -8c-7.33301 0 -15 4.66699 -23 14c0.666992 57.333 1 103 1 137c0 169.333 -28.333 254 -85 254c-24 0 -44 -14 -60 -42c-14 -24 -21 -48.667 -21 -74c0 -2.66699 -0.833008 -6.83398 -2.5 -12.501
s-2.5 -9.83398 -2.5 -12.501v-128c0 -11.333 1.66699 -27.666 5 -48.999s5 -37.333 5 -48s-8 -16 -24 -16c-11.333 0 -20.833 5.33301 -28.5 16s-11.5 21.667 -11.5 33l6 615c-1.33301 4 -2 8 -2 12c0 12 6.66699 18 20 18c6.66699 0 16.5 -4.5 29.5 -13.5
s19.5 -16.5 19.5 -22.5c0 -16 -3.16699 -39 -9.5 -69s-9.5 -52.667 -9.5 -68c0 -1.33301 0.666992 -45.666 2 -132.999c24.667 22 43.667 33 57 33c21.333 0 47 -6.33301 77 -19c58 -24 87 -87.333 87 -190v-227z" />
    <glyph glyph-name="i" unicode="i" horiz-adv-x="141" 
d="M116 541c0 -22.667 -10.666 -34 -31.999 -34c-12.667 0 -24.334 4.66699 -35.001 14s-16 20 -16 32c0 22.667 11.333 34 34 34c13.333 0 24.833 -4.33301 34.5 -13s14.5 -19.667 14.5 -33zM97.001 391c0 -12 -2.66602 -29.999 -7.99902 -53.999s-8 -42 -8 -54v-221
c0 -14.667 3 -34.667 9 -60c-2.66699 -5.33301 -6.33398 -8 -11.001 -8c-32.667 0 -49 15.667 -49 47v367c8.66699 4.66699 17 7 25 7s16.333 -2.33301 25 -7c11.333 -4.66699 17 -10.334 17 -17.001z" />
    <glyph glyph-name="j" unicode="j" horiz-adv-x="178" 
d="M153 493c0 -9.33301 -4.16797 -17.333 -12.501 -24s-17.166 -10 -26.499 -10c-10 0 -24.333 12 -43 36v14c0 20 10 30 30 30c13.333 0 25.333 -4.33301 36 -13s16 -19.667 16 -33zM146.999 391c-11.333 -33.333 -17.002 -64.335 -17.002 -93.002
c0 -45.333 1 -113.166 3 -203.499s3 -158.166 3 -203.499c0 -44 -10.667 -82.667 -32 -116c-25.333 -38.667 -58.666 -58 -99.999 -58c-22 0 -54 9.66699 -96 29c-46.667 20.667 -70 40.334 -70 59.001c0 11.333 7 17 21 17c4.66699 0 8 -0.333008 10 -1
c30.667 -37.333 68.667 -56 114 -56c69.333 0 104 60.333 104 181c0 3.33301 -2.33301 149.666 -7 438.999l8 9c20.667 5.33301 32.334 8 35.001 8c8.66699 0 16.667 -3.66699 24 -11z" />
    <glyph glyph-name="k" unicode="k" horiz-adv-x="381" 
d="M376 -39c-16.667 -13.333 -30 -20.001 -40 -20.001c-14.667 0 -40 21 -76 63c-45.333 54 -69.333 82.333 -72 85c-8 6.66699 -22 22.334 -42 47.001c-17.333 20.667 -32.666 35 -45.999 43l-18 -24v-99c0 -6 2.16699 -14.5 6.5 -25.5s6.5 -19.5 6.5 -25.5
c0 -4 -2.83301 -7.83301 -8.5 -11.5s-10.834 -5.5 -15.501 -5.5c-26.667 0 -40 14.333 -40 43v140c0 8.66699 1.16699 21.5 3.5 38.5s3.5 29.833 3.5 38.5v276c0 39.333 -1.66699 70.333 -5 93c0 3.33301 -1.66699 10.666 -5 21.999c-2 9.33301 -3 17 -3 23
c0 6.66699 5.16699 13.334 15.5 20.001s19.5 10 27.5 10c6 0 12.5 -1.83301 19.5 -5.5s10.5 -8.16699 10.5 -13.5c0 -0.666992 -1.66699 -8.66699 -5 -24c-4.66699 -18 -7 -53 -7 -105l-4 -290l5 -5c21.333 13.333 50.666 38 87.999 74l70 72c38 38.667 60.333 58 67 58
c10 0 18 -4.5 24 -13.5s8.66699 -18.5 8 -28.5l-1 -5c-25.333 -16.667 -62.666 -46.667 -111.999 -90c-56.667 -50 -85 -83 -85 -99c0 -6 10 -21 30 -45l93 -110c42 -46 77.667 -76 107 -90v-11z" />
    <glyph glyph-name="l" unicode="l" horiz-adv-x="124" 
d="M99 10c0 -17.333 -9.33398 -26.0029 -28.001 -26.0029c-29.333 0 -43.666 60.333 -42.999 181l3 449c0 7.33301 -1 17.833 -3 31.5s-3 23.834 -3 30.501c12.667 9.33301 23.334 14 32.001 14c9.33301 0 18.666 -3.33301 27.999 -10s14 -14.667 14 -24
c0 -6.66699 -1.66699 -15.334 -5 -26.001c-4 -13.333 -6.33301 -21.666 -7 -24.999c-8 -45.333 -12 -108.666 -12 -189.999c0 -131.333 -0.333008 -194.666 -1 -189.999c2 -82 7.33301 -143.667 16 -185c0 -2 1.5 -6.5 4.5 -13.5s4.5 -12.5 4.5 -16.5z" />
    <glyph glyph-name="m" unicode="m" horiz-adv-x="509" 
d="M484 -6c-14 -8.66699 -24.6689 -13.0039 -32.002 -13.0039c-4.66699 0 -11.334 2.33301 -20.001 7c0.666992 10.667 1 28.667 1 54c0.666992 23.333 1 41.333 1 54c0 205.333 -21.333 308 -64 308c-25.333 0 -47.333 -32 -66 -96
c-14.667 -51.333 -22 -94.666 -22 -129.999v-100c0 -5.33301 1.5 -12.833 4.5 -22.5s4.5 -16.834 4.5 -21.501c0 -5.33301 -3.66699 -10.666 -11 -15.999s-13.666 -8 -18.999 -8c-6 0 -12.667 4.16699 -20 12.5s-11 15.5 -11 21.5v201c0 21.333 -3.66699 48.333 -11 81
c-9.33301 41.333 -20.666 62 -33.999 62c-7.33301 0 -18.333 -9.33301 -33 -28c-50 -64 -75 -142.667 -75 -236c0 -11.333 1.33301 -28.166 4 -50.499s4 -38.833 4 -49.5c0 -20 -8.33301 -30 -25 -30c-8 0 -15 3.33301 -21 10c-2.66699 3.33301 -5.66699 18.333 -9 45
c-3.33301 24 -5 40.333 -5 49v236c0 68 8 102 24 102c6.66699 0 13.5 -3.16699 20.5 -9.5s10.5 -12.833 10.5 -19.5c0 -14 -2 -32.333 -6 -55c-4 -29.333 -6.33301 -47.666 -7 -54.999l5 -5l38 86c18 36.667 39.333 55 64 55c34.667 0 64.667 -37.333 90 -112
c6.66699 8 15 24.667 25 50s19 43.333 27 54c12.667 16 28.334 24 47.001 24c18 0 38 -12 60 -36c40.667 -43.333 61 -121.666 61 -234.999v-184z" />
    <glyph glyph-name="n" unicode="n" 
d="M342 -5c-4 -7.33301 -9.66797 -11 -17.001 -11s-19.333 4.66699 -36 14v8c0 6 0.333008 15 1 27s1 20.667 1 26c0 221.333 -27.667 332 -83 332c-17.333 0 -36 -12.667 -56 -38c-50.667 -62.667 -76 -141.667 -76 -237c0 -12.667 2.16699 -31.167 6.5 -55.5
s6.5 -42.833 6.5 -55.5c0 -10 -7 -15 -21 -15c-26.667 0 -40 21 -40 63v227c0 6 0.666992 14.667 2 26s2 20 2 26c0 8.66699 -1.16699 21.334 -3.5 38.001s-3.5 29 -3.5 37c0 5.33301 4.16699 11.5 12.5 18.5s14.833 10.5 19.5 10.5c8.66699 0 16.667 -4.66699 24 -14
c-2 -43.333 -3 -68.666 -3 -75.999c0 -10 0.333008 -19.667 1 -29c6 2 14 13 24 33c12.667 25.333 23.334 42.666 32.001 51.999c16 18.667 34.333 28 55 28c8 0 20 -3 36 -9c36 -13.333 61.667 -35.333 77 -66c26 -52.667 39 -122.334 39 -209.001v-151z" />
    <glyph glyph-name="o" unicode="o" 
d="M342 197c0 -57.333 -12.667 -107.334 -38 -150.001c-30 -51.333 -71.667 -77 -125 -77c-54 0 -94.333 21 -121 63c-22 34.667 -33 80.667 -33 138c0 56.667 12.667 112.334 38 167.001c32 67.333 72.667 101 122 101c12.667 0 30.667 -7.33301 54 -22
c68.667 -42.667 103 -116 103 -220zM294 197.999c0 42.667 -5.66602 81.002 -16.999 115.002c-16.667 47.333 -42.334 71 -77.001 71c-40 0 -71.333 -26.333 -94 -79c-17.333 -40.667 -26 -84.334 -26 -131.001c0 -42 6 -77.333 18 -106c17.333 -39.333 44.333 -59 81 -59
c40 0 70.333 22.667 91 68c16 35.333 24 75.666 24 120.999z" />
    <glyph glyph-name="p" unicode="p" horiz-adv-x="350" 
d="M325 245c0 -66 -9.66992 -121.332 -29.0029 -165.999c-26 -62 -67 -93 -123 -93c-36.667 0 -68.667 17 -96 51c-4.66699 -2 -7 -22.667 -7 -62c0 -86.667 4.33301 -148 13 -184c0.666992 -3.33301 3.83398 -11.333 9.50098 -24s8.5 -20.334 8.5 -23.001
c0 -10.667 -6.66699 -16 -20 -16c-16 0 -27.167 2.33301 -33.5 7s-11.833 20 -16.5 46c-4 22 -6 39.333 -6 52v254c0 23.333 1.33301 54.666 4 93.999c2.66699 46 4.33398 77.333 5.00098 94c0.666992 18 0.666992 41.333 0 70c-0.666992 36.667 -1 60.334 -1 71.001
c0 46 12 69 36 69c12 0 18 -4.33301 18 -13c0 -16.667 -1.33301 -41 -4 -73s-4 -56 -4 -72h4l46 63c18 23.333 40.333 35 67 35c44.667 0 78.334 -20 101.001 -60c18.667 -32 28 -72 28 -120zM275.997 241.001c0 35.333 -3.66895 65.667 -11.002 91
c-11.333 37.333 -29.666 56 -54.999 56c-18.667 0 -41.334 -16.333 -68.001 -49c-23.333 -28.667 -39.666 -58 -48.999 -88c-7.33301 -22.667 -13.333 -56 -18 -100c-3.33301 -32 -5 -47.333 -5 -46c0 -2 3 -5.33301 9 -10c4 -2.66699 8 -5.66699 12 -9l32.5 -46.5
c11 -15.667 27.5 -23.5 49.5 -23.5c36.667 0 64.334 30 83.001 90c13.333 42.667 20 87.667 20 135z" />
    <glyph glyph-name="q" unicode="q" horiz-adv-x="353" 
d="M328 312c0 2 -6.00195 -14.333 -18.002 -49c-16.667 -49.333 -25 -145.333 -25 -288c0 -136.667 14 -209.667 42 -219v-14c-13.333 -6.66699 -22.333 -10 -27 -10c-42.667 0 -63.667 94.333 -63 283l-5 5c-24 -22 -55.333 -33 -94 -33
c-41.333 0 -71.666 18.667 -90.999 56c-14.667 28.667 -22 66 -22 112c0 56 9.33301 111.667 28 167c25.333 73.333 60.333 110 105 110c25.333 0 49.333 -11.667 72 -35l55 -62c12.667 2 17.334 3 14.001 3c19.333 0 29 -8.66699 29 -26zM254.998 257
c0 16 -3.66699 27.333 -11 34c1.33301 6.66699 2 13.334 2 20.001c0 15.333 -8.33301 32.166 -25 50.499s-32.667 27.5 -48 27.5c-32 0 -57.667 -32 -77 -96c-15.333 -48 -23 -93.667 -23 -137c0 -92.667 24 -139 72 -139c40.667 0 70.667 31.333 90 94
c13.333 43.333 20 92 20 146z" />
    <glyph glyph-name="r" unicode="r" horiz-adv-x="272" 
d="M247 356c0 -2.66699 -0.335938 -8.33105 -1.00293 -16.998c-8.66699 -13.333 -17 -20 -25 -20c-5.33301 0 -10 3.33301 -14 10c-2 42 -19.333 63 -52 63c-21.333 0 -42.333 -39.333 -63 -118c-8 -28.667 -12 -67 -12 -115c0 -61.333 1.66699 -99 5 -113
c0.666992 -2 2.33398 -6.16699 5.00098 -12.5s4 -11.166 4 -14.499c0 -14.667 -10 -22 -30 -22c-22.667 0 -34 11.667 -34 35c0 3.33301 0.833008 8.16602 2.5 14.499s2.5 11.166 2.5 14.499c0 36.667 -1.66699 91.667 -5 165s-5 128.333 -5 165
c0 13.333 2.33301 21.5 7 24.5s13.667 4.5 27 4.5c16.667 0 26.334 -6 29.001 -18l2 -39c17.333 26.667 27.333 41.667 30 45c14.667 16.667 30 25 46 25c12 0 24 -3.66699 36 -11c6.66699 -4 15.834 -14.333 27.501 -31s17.5 -28.334 17.5 -35.001z" />
    <glyph glyph-name="s" unicode="s" horiz-adv-x="357" 
d="M332 59c0 -23.333 -17.667 -42.999 -53 -58.999c-29.333 -12.667 -57.666 -19 -84.999 -19c-18 0 -38.667 4.33301 -62 13c-12.667 5.33301 -33 19.333 -61 42c-30.667 24.667 -46 41.667 -46 51c0 20.667 12.333 30 37 28h6c1.33301 -20 22.666 -41.667 63.999 -65
c37.333 -21.333 67.333 -32 90 -32c29.333 0 44 10 44 30c0 12 -18 28.667 -54 50c-49.333 28.667 -83 51.667 -101 69c-36.667 35.333 -55 76 -55 122c0 34.667 9 67.667 27 99c20.667 37.333 46.667 56 78 56c22.667 0 50 -10.5 82 -31.5s50.667 -42.167 56 -63.5
c5.33301 -18 8 -39 8 -63c0 -26 -4.66699 -54.333 -14 -85c-6 -4.66699 -13 -7 -21 -7c-4.66699 0 -12 1.83301 -22 5.5s-15 7.5 -15 11.5c0 -2.66699 3.66699 4.66602 11 21.999c5.33301 11.333 8 32 8 62c0 71.333 -22.333 107 -67 107c-23.333 0 -42 -15.667 -56 -47
c-12 -25.333 -18 -51 -18 -77c0 -32.667 19 -64.334 57 -95.001c12.667 -10.667 47.667 -33.667 105 -69c38 -23.333 57 -41.666 57 -54.999z" />
    <glyph glyph-name="t" unicode="t" horiz-adv-x="272" 
d="M234 315c-5.33301 -4 -17.999 -7.33398 -37.999 -10.001c-22 -2.66699 -34.667 -5 -38 -7c-0.666992 -7.33301 -1 -44.333 -1 -111c0 -52 0.666992 -87 2 -105c0 -7.33301 1.66699 -19 5 -35s5 -28.333 5 -37c0 -5.33301 -3.33301 -10.666 -10 -15.999s-12.667 -8 -18 -8
c-13.333 0 -24 13.667 -32 41c-5.33301 20 -8 39 -8 57c0 94 0.666992 163.333 2 208c-4 3.33301 -19.333 3.33301 -46 0c-21.333 -2.66699 -32 5 -32 23c0 25.333 27 37 81 35l13 181c0 2 -0.833008 5.16699 -2.5 9.5s-2.5 7.5 -2.5 9.5c0 4 2.66699 7.83301 8 11.5
s11.666 5.16699 18.999 4.5c23.333 -2 35 -13.667 35 -35c0 -16.667 -2.33301 -41.667 -7 -75s-7 -58 -7 -74c0 -8 0.666992 -15.667 2 -23l55 3c18.667 0 28 -7.33301 28 -22c0 -10.667 -4.33301 -19 -13 -25z" />
    <glyph glyph-name="u" unicode="u" horiz-adv-x="331" 
d="M311 374c0 -20.667 -2.16406 -51.5 -6.49707 -92.5s-6.5 -76.5 -6.5 -106.5c0 -12 1.16699 -34.833 3.5 -68.5s3.5 -57.834 3.5 -72.501c0 -29.333 -3.33301 -47 -10 -53c-4 -2.66699 -9.66699 -4 -17 -4c-14.667 0 -24.667 6.33301 -30 19l-8 37
c-19.333 -28.667 -52.333 -46.667 -99 -54c-17.333 -2.66699 -37.333 5 -60 23c-20.667 16 -34.334 32 -41.001 48c-9.33301 22 -14 64.333 -14 127v217c-4 20 7.33301 30 34 30c18.667 0 28 -10.667 28 -32c0 -32 -1 -73.667 -3 -125c-2 -65.333 -3 -107 -3 -125
c-0.666992 -24 4.66602 -48 15.999 -72c13.333 -28.667 30.333 -43 51 -43c34 0 60.333 22.667 79 68c13.333 34 20 71.333 20 112v131c0 5.33301 -1.83301 12.833 -5.5 22.5s-5.5 17.5 -5.5 23.5c0 3.33301 0.333008 7 1 11c9.33301 8.66699 18.666 13.334 27.999 14.001
c30 2.66699 45 -9 45 -35z" />
    <glyph glyph-name="v" unicode="v" horiz-adv-x="353" 
d="M328 398c4 -57.333 -8 -136.334 -36 -237.001c-30 -112 -61.667 -168 -95 -168c-40 0 -76.667 42.333 -110 127c-20.667 51.333 -38 112 -52 182c-6.66699 32.667 -10 67 -10 103c0 5.33301 2.83301 10.833 8.5 16.5s11.167 8.5 16.5 8.5c8 0 20 -6.66699 36 -20
c-2.66699 -11.333 -4 -22.666 -4 -33.999c0 -40.667 8 -89.667 24 -147c14.667 -52 32 -98.667 52 -140c11.333 -22.667 20.666 -34 27.999 -34c26 0 48.667 52.333 68 157c14.667 81.333 22 147.333 22 198c0 4 3.16699 8.33301 9.5 13s11.833 7 16.5 7
c16.667 0 25.334 -10.667 26.001 -32z" />
    <glyph glyph-name="w" unicode="w" horiz-adv-x="510" 
d="M485 319c0 -63.333 -8.33203 -126 -24.999 -188c-23.333 -88 -57.333 -132 -102 -132c-32.667 0 -60.667 20.333 -84 61l-26 61l-4 -2l-29 -80c-14 -30.667 -35 -46 -63 -46c-84.667 0 -127 101.667 -127 305c0 46.667 1.33301 83.334 4 110.001
c4.66699 6.66699 10.667 10 18 10s16 -2.83301 26 -8.5s15 -12.167 15 -19.5c0 -8.66699 -2.16699 -22.167 -6.5 -40.5s-6.5 -32.833 -6.5 -43.5c0 -173.333 22.333 -260 67 -260c28.667 0 51.667 32.667 69 98c14 50 20.667 95 20 135v96c0 14 8 21 24 21
c19.333 0 29 -13.333 29 -40c0 -3.33301 -0.5 -8.33301 -1.5 -15s-1.5 -11.667 -1.5 -15v-123c0 -28.667 5 -59.334 15 -92.001c12.667 -43.333 29.667 -65 51 -65c28.667 0 52.667 36.333 72 109c14.667 56 22 105 22 147s-2.66699 67.667 -8 77
c0 0.666992 -2.33301 3.66699 -7 9s-7 9 -7 11c0 7.33301 3.16699 14.333 9.5 21s13.166 10 20.499 10c24 0 36 -37 36 -111z" />
    <glyph glyph-name="x" unicode="x" horiz-adv-x="396" 
d="M391 17c0 -6.66699 -4.83301 -12.335 -14.5 -17.002s-18.5 -7 -26.5 -7c-26.667 0 -56.667 23 -90 69l-69 102c-37.333 -38.667 -82.666 -114.334 -135.999 -227.001c-26.667 6 -40 20 -40 42c0 12 24.833 52.333 74.5 121s74.5 105 74.5 109c0 6.66699 -16 36 -48 88
c-30.667 49.333 -50.667 79.333 -60 90c6.66699 18 20.334 27 41.001 27c11.333 0 21.666 -5.33301 30.999 -16c0.666992 -2 7.66699 -17.667 21 -47c14 -33.333 30 -65 48 -95l76 95c40.667 50.667 66 76 76 76c7.33301 0 13.666 -3.16699 18.999 -9.5s8 -13.166 8 -20.499
c0 -5.33301 -25.333 -34.666 -76 -87.999s-76 -85.666 -76 -96.999c0 -13.333 21.833 -47.333 65.5 -102s71.5 -82 83.5 -82c3.33301 0 9.33301 1 18 3v-14z" />
    <glyph glyph-name="y" unicode="y" horiz-adv-x="369" 
d="M345 392c-5.33301 -29.333 -10.334 -58.668 -15.001 -88.001c-6 -31.333 -9 -60.666 -9 -87.999l-1 -313c0 -44.667 -13.5 -80.167 -40.5 -106.5s-63.167 -39.5 -108.5 -39.5c-24.667 0 -52.334 6.66699 -83.001 20c-35.333 14.667 -59.666 33 -72.999 55
c-3.33301 6 -5 12 -5 18c0 19.333 9.33301 29 28 29c4 0 8.33301 -1.33301 13 -4l34 -35c22.667 -20.667 51.334 -31 86.001 -31c44 0 73.333 15.333 88 46c8.66699 19.333 13 54.333 13 105c0 6.66699 -1.33301 20 -4 40c-2.66699 16.667 -3.33398 31.334 -2.00098 44.001
c-18.667 -17.333 -32 -28.333 -40 -33c-14.667 -9.33301 -30.667 -14 -48 -14c-45.333 0 -79.666 17.667 -102.999 53c-20.667 30.667 -31 69.667 -31 117c0 90 1.33301 166 4 228c2.66699 21.333 14.334 32 35.001 32c25.333 0 36.666 -4.33301 33.999 -13
c-12.667 -34.667 -19 -112.334 -19 -233.001c0 -93.333 26.667 -140 80 -140c32.667 0 58.667 25 78 75c14.667 38.667 21.667 77.667 21 117l-1 114l2.5 43c1 17.333 11.833 25.333 32.5 24c24 -2 35.333 -9.33301 34 -22z" />
    <glyph glyph-name="z" unicode="z" horiz-adv-x="347" 
d="M322 386c0 -16.667 -7.99902 -34.334 -23.999 -53.001l-126 -140c-60.667 -72 -91.667 -121 -93 -147c6 -7.33301 17.333 -11 34 -11c37.333 0 97 9.33301 179 28c4 0.666992 8.83301 -3.16602 14.5 -11.499s8.5 -16.5 8.5 -24.5c0 -18 -13 -27 -39 -27
c-23.333 -0 -54.666 -2.16699 -93.999 -6.5s-69 -6.5 -89 -6.5c-17.333 0 -32.333 4 -45 12c-15.333 9.33301 -23 22.333 -23 39c0 25.333 19 63.333 57 114c13.333 17.333 49.333 60.333 108 129c39.333 46.667 60.333 76.667 63 90c-6.66699 5.33301 -17.334 8 -32.001 8
c-26.667 0 -52.334 -5.66699 -77.001 -17c-16.667 -7.33301 -33.667 -18 -51 -32c-14.667 -11.333 -22.667 -17 -24 -17c-16.667 0 -25 11 -25 33s31.333 41.333 94 58c50.667 13.333 92 20 124 20c40 0 60 -12.667 60 -38z" />
    <glyph glyph-name="braceleft" unicode="{" horiz-adv-x="287" 
d="M267 695c-31.333 -2 -55.832 -12.8301 -73.499 -32.4971s-26.5 -44.167 -26.5 -73.5c0 -12.667 0.833008 -31.334 2.5 -56.001s2.5 -43 2.5 -55c0 -82 -27 -139 -81 -171c53.333 -32 80 -89 80 -171c0 -12.667 -0.666992 -31.334 -2 -56.001s-2 -43 -2 -55
c0 -29.333 8.66699 -53.833 26 -73.5s41.666 -30.5 72.999 -32.5v-19h-18c-69.333 0 -111.333 29.667 -126 89l-14 176c-8 70 -37.333 113.667 -88 131v22c52.667 17.333 82 61.666 88 132.999c4.66699 58.667 9 117.667 13 177c17.333 58.667 66 87.667 146 87v-20z" />
    <glyph glyph-name="bar" unicode="|" horiz-adv-x="114" 
d="M94 10c0 -17.333 -9.33398 -26.0029 -28.001 -26.0029c-29.333 0 -43.666 60.333 -42.999 181l3 449c0 7.33301 -1 17.833 -3 31.5s-3 23.834 -3 30.501c12.667 9.33301 23.334 14 32.001 14c9.33301 0 18.666 -3.33301 27.999 -10s14 -14.667 14 -24
c0 -6.66699 -1.66699 -15.334 -5 -26.001c-4 -13.333 -6.33301 -21.666 -7 -24.999c-8 -45.333 -12 -108.666 -12 -189.999c0 -131.333 -0.333008 -194.666 -1 -189.999c2 -82 7.33301 -143.667 16 -185c0 -2 1.5 -6.5 4.5 -13.5s4.5 -12.5 4.5 -16.5z" />
    <glyph glyph-name="braceright" unicode="}" horiz-adv-x="287" 
d="M267 297c-52.667 -17.333 -82.001 -61.6689 -88.001 -133.002c-4.66699 -58.667 -9 -117.667 -13 -177c-17.333 -58.667 -66 -87.667 -146 -87v20c31.333 2 55.833 12.833 73.5 32.5s26.5 44.167 26.5 73.5c0 12.667 -0.833008 31.334 -2.5 56.001s-2.5 43 -2.5 55
c0 82 27 139 81 171c-53.333 32 -80 89 -80 171c0 12.667 0.666992 31.334 2 56.001s2 43 2 55c0 29.333 -8.66699 53.833 -26 73.5s-41.666 30.5 -72.999 32.5v19h18c69.333 0 111.333 -29.667 126 -89l14 -176c8 -70 37.333 -113.667 88 -131v-22z" />
    <glyph glyph-name="asciitilde" unicode="~" horiz-adv-x="439" 
d="M402 362c0 -8 -5.33203 -16.834 -15.999 -26.501s-23 -18.834 -37 -27.501s-28 -16 -42 -22s-24.667 -9 -32 -9c-12.667 0 -25.167 2.33301 -37.5 7s-24.166 10 -35.499 16l-31.5 16c-9.66699 4.66699 -17.834 7 -24.501 7c-8 0 -17.167 -2.16699 -27.5 -6.5
s-20.166 -9.16602 -29.499 -14.499s-17.333 -10.333 -24 -15l-10 -7c-14 0 -21 6.66699 -21 20c0 6.66699 5.33301 14.667 16 24s23.167 18.333 37.5 27s28.666 15.834 42.999 21.501s25.5 8.5 33.5 8.5c12.667 0 24 -2.66699 34 -8s19.667 -11 29 -17
s18.833 -11.667 28.5 -17s20.167 -8 31.5 -8c7.33301 0 16 2.66699 26 8s19.667 11 29 17s17.666 11.667 24.999 17s12.333 8 15 8c6 0 11 -1.5 15 -4.5s5.66699 -7.83301 5 -14.5z" />
    <glyph glyph-name="nonbreakingspace" unicode="&#xa0;" horiz-adv-x="211" 
 />
    <glyph glyph-name="exclamdown" unicode="&#xa1;" horiz-adv-x="209" 
d="M189 425c0 -19.333 -4.83398 -32.167 -14.501 -38.5s-24.5 -9.5 -44.5 -9.5c-52 0 -78 10 -78 30c0 46 25.667 69 77 69c8.66699 0 26.334 -5.66699 53.001 -17c4.66699 -10.667 7 -22 7 -34zM134.999 207.999l-0.000976562 -3.00098l-29 -349
c0 -3.33301 1.66699 -10.666 5 -21.999c4.66699 -15.333 7.33398 -23.666 8.00098 -24.999c-14.667 -13.333 -31.667 -20 -51 -20c-16.667 0 -32.667 8 -48 24c4 5.33301 9 14 15 26c24.667 82.667 41.334 188 50.001 316c0 4 0.833008 11.333 2.5 22s2.5 18.667 2.5 24
c0 8 -5.33301 33.333 -16 76c3.33301 3.33301 8 7.66602 14 12.999c3.33301 0.666992 8.33301 1 15 1c9.33301 0 16.666 -1.66699 21.999 -5c8 -16 11.333 -42 10 -78z" />
    <glyph glyph-name="cent" unicode="&#xa2;" horiz-adv-x="461" 
d="M441 482c0 -17.333 -12.6689 -26 -38.002 -26c-17.333 0 -38.5 9.33301 -63.5 28s-43.833 28 -56.5 28c-22 0 -33 -10.333 -33 -31v-250l9 -9c14.667 4 36 11 64 21c4.66699 2 18.667 11.167 42 27.5s36 24.5 38 24.5h27c2.66699 -3.33301 4 -8.33301 4 -15
c0 -26 -24.667 -48.667 -74 -68l-107 -38c2.66699 -61.333 8.33398 -122.666 17.001 -183.999c-12.667 -7.33301 -22 -11 -28 -11c-13.333 0 -24 8.66699 -32 26c-6.66699 13.333 -10 27.666 -10 42.999c0 4.66699 0.666992 12 2 22s2 17.667 2 23v81
c-52 6 -94.333 22 -127 48c-38 30 -57 69.667 -57 119c0 66 41.333 122.667 124 170c16.667 6.66699 36.334 17.667 59.001 33c0.666992 14.667 1 29.667 1 45c0 30 -1.5 52.333 -4.5 67s-4.5 22.334 -4.5 23.001v6c9.33301 12 21 18 35 18c10.667 0 20.5 -4.33301 29.5 -13
s13.5 -18.334 13.5 -29.001c0 -10 -2.66699 -25.167 -8 -45.5s-8 -35.833 -8 -46.5c0 -9.33301 3.66699 -14 11 -14c4 0 9.83301 0.5 17.5 1.5s13.5 1.5 17.5 1.5c26 0 53.667 -6.33301 83 -19c36.667 -16 55 -35 55 -57zM201.998 220v259
c-90.667 -40.667 -136 -90.667 -136 -150c0 -30.667 12.5 -57.167 37.5 -79.5s53.167 -33.5 84.5 -33.5c5.33301 0 10 1.33301 14 4z" />
    <glyph glyph-name="sterling" unicode="&#xa3;" horiz-adv-x="542" 
d="M522 79c-1.33301 -24.667 -14.3301 -45.0049 -38.9971 -61.0049c-21.333 -14 -45.333 -21 -72 -21c-34.667 0 -86.834 1 -156.501 3s-121.834 3 -156.501 3c-6.66699 0 -13.5 2.33301 -20.5 7s-10.5 10.334 -10.5 17.001c0 3.33301 1 6.33301 3 9
c19.333 12 37 35.667 53 71l36 84c-2 26 -7.66699 47 -17 63l-37 52l-71 -8c-9.33301 -0.666992 -14 8.66602 -14 27.999c0 12.667 22.333 17.667 67 15c-4 8.66699 -8.33301 24.334 -13 47.001s-7 38.334 -7 47.001c0 7.33301 0.833008 18 2.5 32s2.5 24.667 2.5 32
c0 40.667 21.167 78.834 63.5 114.501s84.166 53.5 125.499 53.5c27.333 0 62.333 -7 105 -21c25.333 -8 56.333 -28 93 -60c40.667 -36 61 -65 61 -87c0 -11.333 -8 -24 -24 -38s-30 -21 -42 -21c-8 0 -16.5 2.83301 -25.5 8.5s-13.5 12.167 -13.5 19.5
c0 14.667 6.66699 22 20 22c2.66699 0 6 -0.5 10 -1.5s7 -1.5 9 -1.5c4.66699 0 8 6 10 18c-20 36 -47.667 65.333 -83 88c-37.333 24 -75.666 36 -114.999 36c-46.667 0 -84.834 -17 -114.501 -51s-44.5 -74.667 -44.5 -122c0 -52 11 -90.333 33 -115h166
c11.333 0 17 -6 17 -18c0 -16 -5.66699 -23.667 -17 -23l-150 9c31.333 -42.667 47 -80.667 47 -114c0 -13.333 -9.66699 -37.333 -29 -72c-21.333 -39.333 -33.666 -64.666 -36.999 -75.999c26.667 0 67.167 -1.16699 121.5 -3.5s95.166 -3.5 122.499 -3.5
c56 0 88.333 15 97 45c8 6 15 9 21 9c3.33301 0 7 -2.16699 11 -6.5s8 -7.16602 12 -8.49902z" />
    <glyph glyph-name="currency" unicode="&#xa4;" horiz-adv-x="526" 
d="M423 317c0 -19.333 -2.50488 -37.3311 -7.50488 -53.998s-12.167 -32.334 -21.5 -47.001l75 -67.5c19.333 -17 29 -26.833 29 -29.5c0 -9.33301 -4.5 -15.833 -13.5 -19.5s-17.167 -5.5 -24.5 -5.5c-4 0 -14 6.33301 -30 19s-40 34 -72 64c-14 -11.333 -30 -20 -48 -26
s-37.667 -9 -59 -9c-42.667 0 -78 9.33301 -106 28c-30 -32 -50.833 -55 -62.5 -69s-19.167 -21 -22.5 -21c-4 0 -7.5 1.66699 -10.5 5s-5.66699 7.16602 -8 11.499s-4 8.5 -5 12.5s-1.5 7 -1.5 9c0 3.33301 5.83301 12.333 17.5 27s30.834 36 57.501 64
c-14.667 24 -22 53.333 -22 88c0 20 2.83301 40.167 8.5 60.5s13.834 39.5 24.501 57.5l-101 105c3.33301 10 8.33301 18.167 15 24.5s15 9.5 25 9.5c6 0 17.667 -8.83301 35 -26.5s37.333 -40.5 60 -68.5c13.333 13.333 28.833 24.166 46.5 32.499s36.5 12.5 56.5 12.5
c20.667 0 40 -4.16699 58 -12.5s33.667 -19.166 47 -32.499l96 90c10.667 -3.33301 19.834 -9.33301 27.501 -18s11.5 -19 11.5 -31c0 -4.66699 -4 -10.334 -12 -17.001s-17.5 -13.834 -28.5 -21.501l-33.5 -24c-11.333 -8.33301 -20.666 -16.166 -27.999 -23.499
c8.66699 -15.333 15.334 -31.166 20.001 -47.499s7 -32.833 7 -49.5zM372.995 318.002c0 20 -2.16602 38.832 -6.49902 56.499s-10.833 32.834 -19.5 45.501s-19.167 22.667 -31.5 30s-26.5 11 -42.5 11c-18 0 -34.833 -4.33301 -50.5 -13s-29 -20.5 -40 -35.5
s-19.667 -32.167 -26 -51.5s-9.5 -40 -9.5 -62c0 -38 8.66699 -68.667 26 -92s43.333 -35 78 -35c18.667 0 35.667 3.83301 51 11.5s28.166 18.167 38.499 31.5s18.333 28.833 24 46.5s8.5 36.5 8.5 56.5z" />
    <glyph glyph-name="yen" unicode="&#xa5;" horiz-adv-x="589" 
d="M569 691c-10.667 -8.66699 -25.332 -22.999 -43.999 -42.999c-10.667 -12.667 -44.834 -66.5 -102.501 -161.5s-86.5 -145.167 -86.5 -150.5v-47h132c11.333 0 17 -8.66699 17 -26c0 -11.333 -5.66699 -17 -17 -17h-132v-72h132c11.333 0 17 -9 17 -27
c0 -11.333 -5.66699 -17 -17 -17h-132v-102c0 -8.66699 -6.33301 -18.5 -19 -29.5s-23.667 -16.5 -33 -16.5c-6 0 -14.167 3.5 -24.5 10.5s-15.5 13.5 -15.5 19.5c0 1.33301 3 6.66602 9 15.999c3.33301 6.66699 8 40.667 14 102h-117c-11.333 0 -17 9 -17 27
c0 11.333 5.66699 17 17 17h120c2 22.667 3.66699 46.667 5 72h-122c-11.333 0 -17 8.66699 -17 26c0 11.333 5.66699 17 17 17h124l3 46c-20.667 40 -56.667 97 -108 171c-62 90 -102 135 -120 135c-5.33301 0 -10 -3 -14 -9h-11c-4.66699 6.66699 -7 13 -7 19
c0 8 4.16699 14.833 12.5 20.5s16.833 8.5 25.5 8.5c43.333 0 125.666 -96.333 246.999 -289c2.66699 -0.666992 4.83398 0 6.50098 2s14.667 23.667 39 65l72.5 125c26.667 49.333 45.667 94 57 134c12 9.33301 22.667 14 32 14c14 0 33 -13.333 57 -40z" />
    <glyph glyph-name="brokenbar" unicode="&#xa6;" horiz-adv-x="114" 
d="M70 424c0 -6.66699 -2.33203 -11.501 -6.99902 -14.501s-9.66699 -4.5 -15 -4.5c-6 0 -11.5 1.33301 -16.5 4s-7.5 7 -7.5 13l2 192c0 4 -0.333008 8.83301 -1 14.5l-2 17.5c-0.666992 6 -1.33398 11.667 -2.00098 17s-1 9.66602 -1 12.999c13.333 9.33301 24 14 32 14
c9.33301 0 18.666 -3.33301 27.999 -10s14 -14.667 14 -24c0 -3.33301 -0.666992 -8.16602 -2 -14.499s-4.66602 -18.5 -9.99902 -36.5c-8 -43.333 -12 -103.666 -12 -180.999zM94.001 9.99902c0 -17.333 -9.33398 -25.999 -28.001 -25.999
c-29.333 0 -43.666 60.333 -42.999 181v64c0 12.667 7.33301 19.667 22 21c10 0 16.5 -2.16699 19.5 -6.5s4.5 -10.5 4.5 -18.5c0 -41.333 1.5 -77.333 4.5 -108s6.83301 -56.334 11.5 -77.001c0 -2 1.5 -6.5 4.5 -13.5s4.5 -12.5 4.5 -16.5z" />
    <glyph glyph-name="section" unicode="&#xa7;" horiz-adv-x="357" 
d="M329 293c0 -11.333 -4.67285 -24.0098 -14.0059 -38.0098s-21 -27 -35 -39s-29.5 -22.167 -46.5 -30.5s-33.167 -12.5 -48.5 -12.5c-14.667 0 -29.167 1 -43.5 3s-26.5 5.66699 -36.5 11c4 -22 11.833 -42.833 23.5 -62.5s25.5 -38 41.5 -55s33.333 -32.5 52 -46.5
s37 -26.333 55 -37c38 -23.333 57 -41.666 57 -54.999c0 -11.333 -4.5 -21.666 -13.5 -30.999s-20.5 -17.5 -34.5 -24.5s-29.333 -12.5 -46 -16.5s-32.667 -6 -48 -6c-8 0 -15.5 0.333008 -22.5 1s-15 2.66699 -24 6s-19.167 8.83301 -30.5 16.5s-25.333 18.167 -42 31.5
c-30.667 24.667 -46 41.667 -46 51c0 11.333 3 18.833 9 22.5s15.333 5.5 28 5.5h6c0.666992 -9.33301 6.83398 -19.666 18.501 -30.999s25.5 -21.833 41.5 -31.5s32.667 -17.834 50 -24.501s32 -10 44 -10c29.333 0 44 10 44 30c0 6.66699 -6.66699 15.667 -20 27
l-73.5 58.5c-24.333 19.667 -46 40.834 -65 63.501s-34.5 47.334 -46.5 74.001s-18 56.334 -18 89.001c0 18.667 2.66699 35.834 8 51.501s12.333 29.5 21 41.5s18.5 22.333 29.5 31s22.5 15.334 34.5 20.001c-56.667 40 -85 89 -85 147c0 18.667 2.83301 37.334 8.5 56.001
s13.334 35.334 23.001 50.001s20.834 26.5 33.501 35.5s26 13.5 40 13.5c10.667 0 23.334 -3 38.001 -9s29 -13.667 43 -23s26.333 -19.666 37 -30.999s17.334 -22 20.001 -32c2 -9.33301 3.83301 -19.166 5.5 -29.499s2.5 -21.5 2.5 -33.5c0 -24.667 -4.66699 -53 -14 -85
c-5.33301 -4.66699 -12.333 -7 -21 -7c-4.66699 0 -11.667 1.66699 -21 5s-14.666 7 -15.999 11c1.33301 0 5 7.66699 11 23c5.33301 12 8 32.667 8 62c0 71.333 -22.333 107 -67 107c-10 0 -19.5 -3.66699 -28.5 -11s-16.833 -17 -23.5 -29s-12 -25.333 -16 -40
s-6 -29.334 -6 -44.001c0 -32.667 19 -64.334 57 -95.001c12.667 -11.333 47.667 -34.333 105 -69c38 -23.333 57 -41.666 57 -54.999zM101.994 242.99c16.667 -11.333 33.668 -19.668 51.001 -25.001s34.666 -8 51.999 -8c10 0 18.667 2.83301 26 8.5
s13.333 12.334 18 20.001s8.16699 15.5 10.5 23.5s3.5 14.667 3.5 20c0 8.66699 -7.33301 18 -22 28s-36 23.667 -64 41c-9.33301 -2.66699 -18.333 -7.5 -27 -14.5s-16.5 -15.333 -23.5 -25s-12.667 -20.5 -17 -32.5s-6.83301 -24 -7.5 -36z" />
    <glyph glyph-name="dieresis" unicode="&#xa8;" horiz-adv-x="270" 
d="M250 749c0 -11.333 -3.83301 -21.166 -11.5 -29.499s-17.167 -12.5 -28.5 -12.5s-20.833 4.16699 -28.5 12.5s-11.5 18.166 -11.5 29.499c0 10.667 3.83301 20.167 11.5 28.5s17.167 12.5 28.5 12.5s20.833 -4.16699 28.5 -12.5s11.5 -17.833 11.5 -28.5zM100 749
c0 -11.333 -3.83301 -21.166 -11.5 -29.499s-17.167 -12.5 -28.5 -12.5s-20.833 4.16699 -28.5 12.5s-11.5 18.166 -11.5 29.499c0 10.667 3.83301 20.167 11.5 28.5s17.167 12.5 28.5 12.5s20.833 -4.16699 28.5 -12.5s11.5 -17.833 11.5 -28.5z" />
    <glyph glyph-name="copyright" unicode="&#xa9;" horiz-adv-x="764" 
d="M744 331c0 -100 -35.333 -185.333 -106 -256s-156 -106 -256 -106s-185.333 35.333 -256 106s-106 156 -106 256s35.333 185.333 106 256s156 106 256 106s185.333 -35.333 256 -106s106 -156 106 -256zM704 331c0 88.667 -31.5 164.5 -94.5 227.5
s-138.833 94.5 -227.5 94.5s-164.5 -31.5 -227.5 -94.5s-94.5 -138.833 -94.5 -227.5s31.5 -164.5 94.5 -227.5s138.833 -94.5 227.5 -94.5s164.5 31.5 227.5 94.5s94.5 138.833 94.5 227.5zM574 209c0 -38.667 -23 -70.668 -69 -96.001c-39.333 -20.667 -80 -31 -122 -31
c-62.667 0 -111.334 20.333 -146.001 61c-32.667 38.667 -49 89.667 -49 153c0 52 9 100.667 27 146c20.667 50.667 50 89.667 88 117c29.333 21.333 59.333 32 90 32c42 0 74.333 -16 97 -48c19.333 -28 29 -64 29 -108c0 -20.667 -4.33301 -44.667 -13 -72
c-10.667 -34.667 -23.667 -52 -39 -52c-13.333 0 -24 7.33301 -32 22c3.33301 2 8.66602 5.66699 15.999 11c15.333 11.333 23 39 23 83c0 28 -6 54 -18 78c-14.667 30 -34.667 45 -60 45c-20 0 -41.333 -10 -64 -30c-18.667 -16 -34 -35 -46 -57
c-28.667 -48.667 -43 -108.667 -43 -180c0 -108.667 47.667 -163 143 -163c60.667 0 104.334 23 131.001 69c2.66699 6.66699 7.33398 16.334 14.001 29.001c5.33301 7.33301 12.333 11 21 11c14.667 0 22 -6.66699 22 -20z" />
    <glyph glyph-name="ordfeminine" unicode="&#xaa;" horiz-adv-x="306" 
d="M260 402c0 -10.667 0.166016 -20.501 0.499023 -29.501s0.5 -17.5 0.5 -25.5c0 -23.333 -1.83301 -41.333 -5.5 -54s-12.167 -19 -25.5 -19c-12 0 -20 2.83301 -24 8.5s-6 14.167 -6 25.5c-20 -10 -40.667 -15 -62 -15c-11.333 0 -22.666 1.66699 -33.999 5
s-21.333 8 -30 14s-15.667 12.833 -21 20.5s-8 15.5 -8 23.5c0 10.667 4 20.667 12 30s18 17.333 30 24s24.667 11.834 38 15.501s25.333 5.5 36 5.5c15.333 0 28.333 -1.33301 39 -4v19c0 42 -12.333 63 -37 63c-32 0 -48 -15 -48 -45c0 -10 -5.66699 -15 -17 -15
c-6.66699 0 -13.667 3.16699 -21 9.5s-11 12.833 -11 19.5c0 22.667 8 41.167 24 55.5s35.333 21.5 58 21.5c74.667 0 112 -51 112 -153zM199.999 379.999c0 8 -5.99902 11.999 -17.999 11.999c-50 0 -75 -11.667 -75 -35c0 -12.667 11 -19 33 -19
c15.333 0 29.166 4.33301 41.499 13s18.5 18.334 18.5 29.001z" />
    <glyph glyph-name="guillemotleft" unicode="&#xab;" horiz-adv-x="330" 
d="M310 151c0 -13.333 -4.99902 -20.002 -14.999 -20.002c-8.66699 0 -16.334 3.66699 -23.001 11c-10.667 12.667 -34.667 46.334 -72 101.001c-40 58.667 -60 91 -60 97s3.33301 11 10 15l110 165c4 2 8 3 12 3c17.333 0 26 -10.333 26 -31
c0 -9.33301 -15 -33.666 -45 -72.999l-59 -75l112 -170c2.66699 -4 4 -11.667 4 -23zM178.001 491.998c0 -6.66699 -1.99805 -12.668 -5.99805 -18.001l-98 -130l97 -141c2.66699 -3.33301 4 -11 4 -23c0 -13.333 -5 -20 -15 -20c-8.66699 0 -16.334 3.66699 -23.001 11
c-12.667 15.333 -34.334 44 -65.001 86c-34.667 48.667 -52 76.334 -52 83.001c0 6 3.33301 11 10 15l110 165c4 2 8 3 12 3c17.333 0 26 -10.333 26 -31z" />
    <glyph glyph-name="logicalnot" unicode="&#xac;" horiz-adv-x="520" 
d="M450 410c0 -4 -0.166992 -11.499 -0.5 -22.499s-0.5 -25.5 -0.5 -43.5v-276c0 -15.333 3 -35.333 9 -60c-3.33301 -5.33301 -7 -8 -11 -8c-32.667 0 -49 15.667 -49 47v314h-371c-4.66699 8.66699 -7 17 -7 25c0 7.33301 2.66699 14.833 8 22.5s11.333 11.5 18 11.5
c4.66699 0 12 -0.5 22 -1.5l31 -3c10.667 -1 20.834 -1.83301 30.501 -2.5s17.167 -1 22.5 -1h230c15.333 0 35.666 3 60.999 9c4.66699 -2.66699 7 -6.33398 7 -11.001z" />
    <glyph glyph-name="softhyphen" unicode="&#xad;" horiz-adv-x="284" 
d="M264 247c0 -2.66699 -2.66797 -4.00098 -8.00098 -4.00098c-6 0 -14.833 2.16699 -26.5 6.5s-20.5 6.5 -26.5 6.5c-8 0 -19.833 -0.666992 -35.5 -2s-27.167 -2 -34.5 -2c-66 0 -103.667 17.333 -113 52c4 5.33301 8 8 12 8c4.66699 0 12.167 -2.16699 22.5 -6.5
s18.833 -6.5 25.5 -6.5c13.333 0 33.333 1.16699 60 3.5s46.667 3.5 60 3.5c25.333 0 41 -4.66699 47 -14c0.666992 -1.33301 2.33398 -7.66602 5.00098 -18.999c2 -8.66699 6 -13.667 12 -15v-11z" />
    <glyph glyph-name="registered" unicode="&#xae;" horiz-adv-x="420" 
d="M400 493c0 -52 -18.667 -96.667 -56 -134s-82 -56 -134 -56s-96.667 18.667 -134 56s-56 82 -56 134s18.667 96.667 56 134s82 56 134 56s96.667 -18.667 134 -56s56 -82 56 -134zM380 493c0 46.667 -16.667 86.667 -50 120s-73.333 50 -120 50s-86.667 -16.667 -120 -50
s-50 -73.333 -50 -120s16.667 -86.667 50 -120s73.333 -50 120 -50s86.667 16.667 120 50s50 73.333 50 120zM311 380l-0.00292969 -2.00195l-6 -4l-4 2c-2 9.33301 -18.667 24.833 -50 46.5s-52.333 32.5 -63 32.5h-21v-22c0 -23.333 4 -40.333 12 -51
c0 -5.33301 -3 -8 -9 -8c-12 0 -19 11 -21 33v45c0 3.33301 -4.33301 6.33301 -13 9s-13 6 -13 10c0 5.33301 8 10 24 14c0.666992 15.333 2.33398 38.333 5.00098 69c3.33301 34.667 5 49.334 5 44.001l-8.5 0.5c-5.66699 0.333008 -8.5 2.5 -8.5 6.5
c0 3.33301 4.16699 7.5 12.5 12.5s12.833 7.83301 13.5 8.5c2.66699 0 6.83398 -1.16699 12.501 -3.5s10.834 -3.5 15.501 -3.5c26.667 0 49 -5.33301 67 -16c22 -13.333 33 -32.333 33 -57c0 -23.333 -7 -40.666 -21 -51.999c-16 -10 -31.667 -20.333 -47 -31l52 -36
c22 -16 33 -31.667 33 -47zM275.997 547.998c0 18 -8.33203 31.998 -24.999 41.998c-14 8 -30.667 12 -50 12c-6.66699 0 -12.334 -0.333008 -17.001 -1v-3c0 -7.33301 -1.33301 -15.666 -4 -24.999l-8 -25c-2.66699 -14 -4.66699 -35.667 -6 -65
c18 -6.66699 29.333 -10 34 -10c18.667 0 36 7.83301 52 23.5s24 32.834 24 51.501z" />
    <glyph glyph-name="macron" unicode="&#xaf;" horiz-adv-x="224" 
d="M204 724h-184v38h184v-38z" />
    <glyph glyph-name="macron" unicode="&#x2c9;" horiz-adv-x="224" 
d="M204 724h-184v38h184v-38z" />
    <glyph glyph-name="degree" unicode="&#xb0;" horiz-adv-x="297" 
d="M277 518c0 -46 -10 -84.002 -30 -114.002c-24 -34.667 -58 -52 -102 -52c-41.333 0 -73 14.333 -95 43c-20 26.667 -30 61.334 -30 104.001c0 30.667 6 61.334 18 92.001c14 36 32.333 60.667 55 74c12.667 8 21.667 12 27 12c8 0 20.333 -3.66699 37 -11l9 -24
c3.33301 4 8.33301 6 15 6c30.667 0 55 -14.667 73 -44c15.333 -25.333 23 -54 23 -86zM236 517.998c0 44 -16.666 75.333 -49.999 94l-26 10.5c-8.66699 3.66699 -12.667 10.167 -12 19.5h-11c-20.667 -10 -38.5 -29.667 -53.5 -59s-22.5 -56.333 -22.5 -81
c0 -74.667 25.333 -112 76 -112c29.333 0 53.666 14.333 72.999 43c17.333 26 26 54.333 26 85z" />
    <glyph glyph-name="plusminus" unicode="&#xb1;" horiz-adv-x="520" 
d="M500 360c0 -32.667 -15.3311 -48.998 -45.998 -48.998h-176v-149c0 -14.667 3 -34.667 9 -60c-3.33301 -5.33301 -7 -8 -11 -8c-32.667 0 -49 15.667 -49 47v170h-200c-4.66699 8.66699 -7 17 -7 25c0 7.33301 2.66699 14.833 8 22.5s11.333 11.5 18 11.5
c12 0 29.667 -1.33301 53 -4s41 -4 53 -4h75v206c8.66699 4.66699 17 7 25 7c7.33301 0 16.166 -2.33301 26.499 -7s15.5 -10.334 15.5 -17.001c0 -12 -2.66699 -30 -8 -54s-8 -42 -8 -54v-81h154c15.333 0 35.666 3 60.999 9c4.66699 -2.66699 7 -6.33398 7 -11.001z
M500.002 31.002c0 -32.667 -15.333 -48.999 -46 -48.999h-427c-4.66699 8.66699 -7 17 -7 25c0 7.33301 2.66699 14.833 8 22.5s11.333 11.5 18 11.5c4.66699 0 12 -0.5 22 -1.5l31 -3c10.667 -1 20.834 -1.83301 30.501 -2.5s17.167 -1 22.5 -1h280
c15.333 0 35.666 3 60.999 9c4.66699 -2.66699 7 -6.33398 7 -11.001z" />
    <glyph glyph-name="twosuperior" unicode="&#xb2;" horiz-adv-x="322" 
d="M286 379c0 -4.66699 -1.66992 -9.33105 -5.00293 -13.998s-7.66602 -7 -12.999 -7c-3.33301 0 -9.16602 1.16699 -17.499 3.5s-14.833 3.5 -19.5 3.5c-52.667 0 -105 -8 -157 -24l-20 -5c-8 0 -15 2.33301 -21 7s-9 11 -9 19c0 7.33301 2.16699 13.833 6.5 19.5
s13.833 14.167 28.5 25.5c20 16 38.833 33 56.5 51s32.834 36 45.501 54s22.667 35.167 30 51.5s11 31.166 11 44.499c0 12.667 -4.33301 22.834 -13 30.501s-19 11.5 -31 11.5c-6.66699 0 -14 -1.5 -22 -4.5s-15.667 -7 -23 -12s-13.833 -10.667 -19.5 -17
s-9.5 -12.833 -11.5 -19.5c-2.66699 -13.333 -5.33398 -26 -8.00098 -38s-9.33398 -18 -20.001 -18c-4.66699 0 -10.5 2.66699 -17.5 8s-10.5 10.666 -10.5 15.999c0 15.333 4.33301 30.166 13 44.499s19.667 27.166 33 38.499s28 20.333 44 27s31.333 10 46 10
c10.667 0 21.334 -2.33301 32.001 -7s20.167 -10.834 28.5 -18.501s15 -16.667 20 -27s7.5 -21.166 7.5 -32.499c0 -17.333 -4.33301 -35.666 -13 -54.999s-21.667 -38.666 -39 -57.999c-7.33301 -8 -20.166 -19.833 -38.499 -35.5s-41.5 -37.5 -69.5 -65.5
c26.667 5.33301 54.667 10.166 84 14.499s58 7.5 86 9.5c7.33301 0 13.5 -3.16699 18.5 -9.5s7.5 -13.5 7.5 -21.5z" />
    <glyph glyph-name="threesuperior" unicode="&#xb3;" horiz-adv-x="353" 
d="M310 464c0 -18.667 -4.66406 -35.334 -13.9971 -50.001s-21.5 -27.167 -36.5 -37.5s-31.5 -18.333 -49.5 -24s-36 -8.5 -54 -8.5c-21.333 0 -40.333 1.66699 -57 5s-33.667 11.666 -51 24.999c-16 12 -24 24 -24 36c0 6 2.66699 11.167 8 15.5s10.666 6.5 15.999 6.5
c4.66699 0 9.16699 -1.83301 13.5 -5.5s8 -7.66699 11 -12s5.66699 -8.66602 8 -12.999s4.16602 -7.16602 5.49902 -8.49902c11.333 -9.33301 29.666 -14 54.999 -14c14.667 0 29.167 2.33301 43.5 7s27 10.667 38 18s19.833 16 26.5 26s10 20.333 10 31
c0 7.33301 -2.5 14.333 -7.5 21s-11.167 12.5 -18.5 17.5s-15.833 9 -25.5 12s-18.834 4.5 -27.501 4.5c-1.33301 0 -5.5 -1.16699 -12.5 -3.5s-15 -4.83301 -24 -7.5s-18 -5.16699 -27 -7.5s-15.833 -3.5 -20.5 -3.5c-7.33301 0 -13.833 1.33301 -19.5 4
s-8.5 6.66699 -8.5 12c0 6.66699 3.66699 14 11 22s20.333 12.667 39 14c12 0.666992 21.667 1.33398 29 2.00098s13.666 2.16699 18.999 4.5s10.333 5.83301 15 10.5s10.667 11 18 19c6.66699 8 11.834 15.333 15.501 22s5.5 14 5.5 22c0 18.667 -9.66699 28 -29 28
c-4.66699 0 -11.167 -1.16699 -19.5 -3.5s-16.666 -5.33301 -24.999 -9s-16.166 -7.5 -23.499 -11.5s-12.333 -8 -15 -12c1.33301 -4 2 -6.66699 2 -8c-1.33301 -4 -4 -8.16699 -8 -12.5s-8.5 -8.5 -13.5 -12.5s-10 -7.16699 -15 -9.5s-8.83301 -3.5 -11.5 -3.5
c-6 0 -12 2.16699 -18 6.5s-9 9.16602 -9 14.499c0 8.66699 5 18.667 15 30s22.833 22.333 38.5 33s32.667 19.667 51 27s35.5 11 51.5 11c21.333 0 39.166 -5.83301 53.499 -17.5s21.5 -27.167 21.5 -46.5c0 -15.333 -4.33301 -30.5 -13 -45.5s-19 -27.833 -31 -38.5
c58.667 -12 88 -39.333 88 -82z" />
    <glyph glyph-name="acute" unicode="&#xb4;" horiz-adv-x="196" 
d="M176 776l-2 -7c-6.66699 -1.33301 -16 -4.33301 -28 -9c-16 -7.33301 -33.333 -20 -52 -38c-27.333 -26.667 -48 -40 -62 -40c-2 0 -4.5 2.66699 -7.5 8s-4.5 9.33301 -4.5 12l1 5c68 72.667 109.333 109 124 109c6 0 12.667 -5.16699 20 -15.5s11 -18.5 11 -24.5z" />
    <glyph glyph-name="mu" unicode="&#xb5;" horiz-adv-x="331" 
d="M310 374c0 -9.33301 -0.665039 -22.332 -1.99805 -38.999l-4.5 -54c-1.66699 -19.333 -3.16699 -38.5 -4.5 -57.5s-2 -35.167 -2 -48.5c0 -4 0.333008 -12.667 1 -26s1.5 -27.5 2.5 -42.5s1.83301 -29.333 2.5 -43s1 -23.5 1 -29.5
c0 -23.333 -1.66699 -38.666 -5 -45.999s-10.666 -11 -21.999 -11c-9.33301 0 -16.166 1.83301 -20.499 5.5s-7.33301 8.33398 -9 14.001s-2.83398 11.834 -3.50098 18.501s-2.33398 12.667 -5.00098 18c-9.33301 -13.333 -23.333 -25.833 -42 -37.5
s-40.334 -17.5 -65.001 -17.5c-10 0 -20.333 3.16699 -31 9.5s-19 13.166 -25 20.499c0 -62 1.83301 -110.333 5.5 -145s7.66699 -60.334 12 -77.001s8.33301 -27.167 12 -31.5s5.5 -7.5 5.5 -9.5c0 -7.33301 -2.16699 -12 -6.5 -14s-10.833 -3 -19.5 -3
c-6.66699 0 -12.334 0.333008 -17.001 1s-8.66699 2.83398 -12 6.50098s-6.16602 9 -8.49902 16s-4.5 16.833 -6.5 29.5c-4 22.667 -7.16699 44.167 -9.5 64.5s-4 44.5 -5 72.5s-1.5 62.333 -1.5 103v156v217c-0.666992 1.33301 -1 3.66602 -1 6.99902
c0 15.333 11.667 23 35 23c18.667 0 28 -10.667 28 -32c0 -16 -0.333008 -37.167 -1 -63.5l-2 -78.5c-0.666992 -26 -1.33398 -49.333 -2.00098 -70s-1 -33.334 -1 -38.001c0 -13.333 1.66699 -26.833 5 -40.5s8 -26 14 -37s13 -20 21 -27s17 -10.5 27 -10.5
c14.667 0 28 4.66699 40 14s22.333 22.166 31 38.499s15.5 35.333 20.5 57s7.5 45.167 7.5 70.5v131c0 5.33301 -1.83301 12.833 -5.5 22.5s-5.5 17.5 -5.5 23.5c0 16.667 12.333 25 37 25s37 -11.667 37 -35z" />
    <glyph glyph-name="mu" unicode="&#x3bc;" horiz-adv-x="331" 
d="M310 374c0 -9.33301 -0.665039 -22.332 -1.99805 -38.999l-4.5 -54c-1.66699 -19.333 -3.16699 -38.5 -4.5 -57.5s-2 -35.167 -2 -48.5c0 -4 0.333008 -12.667 1 -26s1.5 -27.5 2.5 -42.5s1.83301 -29.333 2.5 -43s1 -23.5 1 -29.5
c0 -23.333 -1.66699 -38.666 -5 -45.999s-10.666 -11 -21.999 -11c-9.33301 0 -16.166 1.83301 -20.499 5.5s-7.33301 8.33398 -9 14.001s-2.83398 11.834 -3.50098 18.501s-2.33398 12.667 -5.00098 18c-9.33301 -13.333 -23.333 -25.833 -42 -37.5
s-40.334 -17.5 -65.001 -17.5c-10 0 -20.333 3.16699 -31 9.5s-19 13.166 -25 20.499c0 -62 1.83301 -110.333 5.5 -145s7.66699 -60.334 12 -77.001s8.33301 -27.167 12 -31.5s5.5 -7.5 5.5 -9.5c0 -7.33301 -2.16699 -12 -6.5 -14s-10.833 -3 -19.5 -3
c-6.66699 0 -12.334 0.333008 -17.001 1s-8.66699 2.83398 -12 6.50098s-6.16602 9 -8.49902 16s-4.5 16.833 -6.5 29.5c-4 22.667 -7.16699 44.167 -9.5 64.5s-4 44.5 -5 72.5s-1.5 62.333 -1.5 103v156v217c-0.666992 1.33301 -1 3.66602 -1 6.99902
c0 15.333 11.667 23 35 23c18.667 0 28 -10.667 28 -32c0 -16 -0.333008 -37.167 -1 -63.5l-2 -78.5c-0.666992 -26 -1.33398 -49.333 -2.00098 -70s-1 -33.334 -1 -38.001c0 -13.333 1.66699 -26.833 5 -40.5s8 -26 14 -37s13 -20 21 -27s17 -10.5 27 -10.5
c14.667 0 28 4.66699 40 14s22.333 22.166 31 38.499s15.5 35.333 20.5 57s7.5 45.167 7.5 70.5v131c0 5.33301 -1.83301 12.833 -5.5 22.5s-5.5 17.5 -5.5 23.5c0 16.667 12.333 25 37 25s37 -11.667 37 -35z" />
    <glyph glyph-name="paragraph" unicode="&#xb6;" horiz-adv-x="432" 
d="M412 290c0 -10.667 -14.334 -19.3359 -43.001 -26.0029c-9.33301 -72 -14 -124.667 -14 -158c0 -12 1.83301 -30 5.5 -54s5.5 -42 5.5 -54c0 -36.667 -4.66699 -55 -14 -55c-7.33301 0 -13.666 7.66699 -18.999 23c-4.66699 12.667 -7 23.334 -7 32.001
c0 12.667 -1.83301 30.834 -5.5 54.501s-5.5 41.5 -5.5 53.5c0 33.333 4.33301 83.333 13 150c-15.333 -2.66699 -30 -4.66699 -44 -6v-31c0 -22.667 0.833008 -56 2.5 -100s2.5 -76.667 2.5 -98c0 -14 -6.66699 -21 -20 -21c-11.333 0 -18 6.66699 -20 20
c-6 40 -8 115.667 -6 227c-63.333 -0.666992 -116.333 18.5 -159 57.5s-64 90.167 -64 153.5c0 56.667 18 103.167 54 139.5s82.333 54.5 139 54.5c15.333 0 30 -0.333008 44 -1c0 2 -0.833008 6.33301 -2.5 13s-2.5 11.667 -2.5 15c0 13.333 7 20 21 20s22 -17.333 24 -52
c11.333 -1.33301 23 -3 35 -5c-0.666992 16.667 -1 32.334 -1 47.001c0 13.333 6.66699 20 20 20c12 0 19 -9.33301 21 -28v-41v-4c24.667 -4 37 -12 37 -24c0 -13.333 -6.33301 -20 -19 -20c-3.33301 0 -8.66602 1 -15.999 3c4.66699 -88.667 7 -144 7 -166
c0 -38 -2.33301 -78.667 -7 -122c9.33301 2.66699 15.666 4 18.999 4c12.667 0 19 -7 19 -21zM335.999 444.998c0 68 -1.66699 123.667 -5 167h-37l-9 -317l46 -3c3.33301 42 5 93 5 153zM258.999 609.998c-15.333 1.33301 -30.667 2 -46 2
c-44.667 0 -81.334 -14.167 -110.001 -42.5s-43 -65.166 -43 -110.499c0 -50.667 17.333 -91.334 52 -122.001s77.667 -45.667 129 -45h4l9 223c-1.33301 21.333 0.333984 53 5.00098 95z" />
    <glyph glyph-name="periodcentered" unicode="&#xb7;" horiz-adv-x="142" 
d="M122 315c0 -12.667 -5.16699 -23 -15.5 -31s-22.166 -12 -35.499 -12c-10.667 0 -21.834 4.16699 -33.501 12.5s-17.5 17.833 -17.5 28.5c0 14 6.66699 24.667 20 32c11.333 6.66699 24.333 10 39 10c10 0 19.667 -4.16699 29 -12.5s14 -17.5 14 -27.5z" />
    <glyph glyph-name="periodcentered" unicode="&#x2219;" horiz-adv-x="142" 
d="M122 315c0 -12.667 -5.16699 -23 -15.5 -31s-22.166 -12 -35.499 -12c-10.667 0 -21.834 4.16699 -33.501 12.5s-17.5 17.833 -17.5 28.5c0 14 6.66699 24.667 20 32c11.333 6.66699 24.333 10 39 10c10 0 19.667 -4.16699 29 -12.5s14 -17.5 14 -27.5z" />
    <glyph glyph-name="cedilla" unicode="&#xb8;" horiz-adv-x="166" 
d="M146 -80c0 -20 -11.668 -37.332 -35.001 -51.999c-10.667 -6.66699 -31 -15.667 -61 -27l-11 28c18 6.66699 31.667 12.667 41 18c18.667 10 28.667 19.667 30 29c-3.33301 5.33301 -16.5 9.83301 -39.5 13.5s-35.833 7.16699 -38.5 10.5c-8 2 -12 5.33301 -12 10
c0 6.66699 5.33301 15 16 25c15.333 14 23.333 21.333 24 22l29 1c-5.33301 -8.66699 -13.666 -21 -24.999 -37c30 -5.33301 46.667 -8.33301 50 -9c21.333 -6.66699 32 -17.334 32 -32.001z" />
    <glyph glyph-name="onesuperior" unicode="&#xb9;" horiz-adv-x="149" 
d="M106 658c0 -4.66699 -2.00098 -16.002 -6.00098 -34.002c-5.33301 -23.333 -9 -44.166 -11 -62.499s-3 -34.166 -3 -47.499v-74.5c0 -18.333 0.166992 -32.333 0.5 -42s0.833008 -16.167 1.5 -19.5s1.33398 -5.33301 2.00098 -6c5.33301 -9.33301 8 -14.333 8 -15
c0 -12 -6.33301 -18 -19 -18c-22.667 0 -34 10.333 -34 31v208l-8 6c0 12.667 1.16699 25.167 3.5 37.5s5.5 23.5 9.5 33.5s8.33301 18 13 24s9.66699 9 15 9c6 0 12.167 -3.5 18.5 -10.5s9.5 -13.5 9.5 -19.5z" />
    <glyph glyph-name="ordmasculine" unicode="&#xba;" horiz-adv-x="304" 
d="M259 418c0 -19.333 -2.66699 -37.332 -8 -53.999s-13 -31 -23 -43s-21.667 -21.5 -35 -28.5s-28 -10.5 -44 -10.5c-33.333 0 -59 10.833 -77 32.5s-27 51.5 -27 89.5c0 19.333 2.83301 38.5 8.5 57.5s13.334 36 23.001 51s21 27.167 34 36.5s27.167 14 42.5 14
c12 0 23.667 -3.5 35 -10.5s20.666 -14.167 27.999 -21.5c28.667 -26.667 43 -64.334 43 -113.001zM206 419.001c0 61.333 -14.668 92.001 -44.001 92.001c-18 0 -32.5 -10 -43.5 -30s-16.5 -45 -16.5 -75c0 -53.333 15.667 -80 47 -80c18.667 0 32.834 8.66699 42.501 26
s14.5 39.666 14.5 66.999z" />
    <glyph glyph-name="guillemotright" unicode="&#xbb;" horiz-adv-x="320" 
d="M300 345c0 -6.66699 -3.33301 -11.666 -10 -14.999l-100 -165c-4 -2 -8 -3 -12 -3c-17.333 0 -26 10.333 -26 31c0 9.33301 13.667 33.666 41 72.999l53 75l-55 76c-28 40.667 -42 65.334 -42 74.001c0 13.333 8.33301 20 25 20c5.33301 0 10 -1.66699 14 -5
c7.33301 -6.66699 27.833 -33.834 61.5 -81.501s50.5 -74.167 50.5 -79.5zM180 345.001c0 -6.66699 -3.33301 -11.668 -10 -15.001l-110 -175c-4 -2 -8 -3 -12 -3c-17.333 0 -26 10.333 -26 31c0 9.33301 15 35.333 45 78l59 80l-60 84c-30.667 44 -46 71 -46 81
c0 12.667 8 19 24 19c6 0 11 -1.66699 15 -5c8 -6.66699 30.167 -36.167 66.5 -88.5s54.5 -81.166 54.5 -86.499z" />
    <glyph glyph-name="onequarter" unicode="&#xbc;" horiz-adv-x="548" 
d="M120 658c0 -4.66699 -2.00098 -16.002 -6.00098 -34.002c-5.33301 -23.333 -9 -44.166 -11 -62.499s-3 -34.166 -3 -47.499v-74.5c0 -18.333 0.166992 -32.333 0.5 -42s0.833008 -16.167 1.5 -19.5s1.33398 -5.33301 2.00098 -6c5.33301 -9.33301 8 -14.333 8 -15
c0 -12 -6.33301 -18 -19 -18c-22.667 0 -34 10.333 -34 31v208l-8 6c0 12.667 1.16699 25.167 3.5 37.5s5.5 23.5 9.5 33.5s8.33301 18 13 24s9.66699 9 15 9c6 0 12.167 -3.5 18.5 -10.5s9.5 -13.5 9.5 -19.5zM379.999 638.998
c0 -4.66699 -1.66602 -7.99512 -4.99902 -9.99512c-10.667 -6 -25.5 -22.5 -44.5 -49.5s-41.5 -65.5 -67.5 -115.5c-27.333 -51.333 -53.833 -105.333 -79.5 -162s-49.5 -115.334 -71.5 -176.001c-22 -61.333 -33 -95 -33 -101c0 -2.66699 2.16699 -5.83398 6.5 -9.50098
s6.5 -6.83398 6.5 -9.50098c0 -9.33301 -5 -14 -15 -14c-1.33301 0 -3.83301 0.5 -7.5 1.5s-7.33398 3 -11.001 6s-6.83398 7 -9.50098 12s-4 11.5 -4 19.5c0 3.33301 2 12.666 6 27.999s12.667 41 26 77c24 63.333 48.5 123.666 73.5 180.999s51.5 113 79.5 167l45.5 88
l28.5 56c2.66699 10.667 6.33398 21.167 11.001 31.5s11.667 15.5 21 15.5c10 0 19.833 -3.5 29.5 -10.5s14.5 -15.5 14.5 -25.5zM492 78.0029l-21.0068 2.99902c-7.33301 1.33301 -15.666 2.5 -24.999 3.5s-19.666 1.5 -30.999 1.5c0 -12 0.333008 -24.333 1 -37
s3.66699 -23 9 -31c2.66699 -6 4 -10 4 -12c0 -3.33301 -1.66699 -7.83301 -5 -13.5s-9.66602 -8.5 -18.999 -8.5c-4.66699 0 -9 0.5 -13 1.5s-7.5 3.16699 -10.5 6.5s-5.5 8.33301 -7.5 15s-3 15.667 -3 27v13.5c0 5 0.166992 10 0.5 15s0.5 9.5 0.5 13.5v8l-26 -3
c-11.333 -1.33301 -23.5 -2.66602 -36.5 -3.99902s-25.333 -2.5 -37 -3.5s-20.834 -1.5 -27.501 -1.5c-6 0 -12.5 1.33301 -19.5 4s-13.667 6 -20 10s-11.666 8.5 -15.999 13.5s-6.5 9.83301 -6.5 14.5c0 11.333 7.66699 24.166 23 38.499s33.666 30.166 54.999 47.499
l45 38.5l62 55.5c6.66699 6 11.834 11.5 15.501 16.5s7.33398 9.33301 11.001 13s7.33398 6.5 11.001 8.5s8.83398 3 15.501 3c8 0 15 -2.66699 21 -8s9 -11.666 9 -18.999c0 -5.33301 -1 -11 -3 -17s-4.33301 -11.667 -7 -17l-8 -47c-2.66699 -16 -5 -31 -7 -45
s-3.66699 -26.167 -5 -36.5s-2 -16.833 -2 -19.5c3.33301 0 6.83301 0.166992 10.5 0.5s8.16699 0.5 13.5 0.5c16.667 0 30.834 -2.33301 42.501 -7s17.5 -11.667 17.5 -21c0 -5.33301 -0.833008 -10.166 -2.5 -14.499s-4.5 -6.5 -8.5 -6.5zM386.993 254.002l-38.001 -28
l-46 -36c-44 -37.333 -66 -61.333 -66 -72c0 -2.66699 2.66699 -4 8 -4c2.66699 0 9 0.5 19 1.5s21.5 2 34.5 3s26.333 2.16699 40 3.5s25.834 2.33301 36.501 3c2 38.667 6 81.667 12 129z" />
    <glyph glyph-name="onehalf" unicode="&#xbd;" horiz-adv-x="513" 
d="M115 658c0 -4.66699 -2.00098 -16.002 -6.00098 -34.002c-5.33301 -23.333 -9 -44.166 -11 -62.499s-3 -34.166 -3 -47.499v-74.5c0 -18.333 0.166992 -32.333 0.5 -42s0.833008 -16.167 1.5 -19.5s1.33398 -5.33301 2.00098 -6c5.33301 -9.33301 8 -14.333 8 -15
c0 -12 -6.33301 -18 -19 -18c-22.667 0 -34 10.333 -34 31v208l-8 6c0 12.667 1.16699 25.167 3.5 37.5s5.5 23.5 9.5 33.5s8.33301 18 13 24s9.66699 9 15 9c6 0 12.167 -3.5 18.5 -10.5s9.5 -13.5 9.5 -19.5zM379.999 638.998
c0 -4.66699 -1.66602 -7.99512 -4.99902 -9.99512c-10.667 -6 -25.5 -22.5 -44.5 -49.5s-41.5 -65.5 -67.5 -115.5c-27.333 -51.333 -53.833 -105.333 -79.5 -162s-49.5 -115.334 -71.5 -176.001c-22 -61.333 -33 -95 -33 -101c0 -2.66699 2.16699 -5.83398 6.5 -9.50098
s6.5 -6.83398 6.5 -9.50098c0 -9.33301 -5 -14 -15 -14c-1.33301 0 -3.83301 0.5 -7.5 1.5s-7.33398 3 -11.001 6s-6.83398 7 -9.50098 12s-4 11.5 -4 19.5c0 3.33301 2 12.666 6 27.999s12.667 41 26 77c24 63.333 48.5 123.666 73.5 180.999s51.5 113 79.5 167l45.5 88
l28.5 56c2.66699 10.667 6.33398 21.167 11.001 31.5s11.667 15.5 21 15.5c10 0 19.833 -3.5 29.5 -10.5s14.5 -15.5 14.5 -25.5zM468 31.0029c0 -4.66699 -1.66992 -9.33105 -5.00293 -13.998s-7.66602 -7 -12.999 -7c-3.33301 0 -9.16602 1.16699 -17.499 3.5
s-14.833 3.5 -19.5 3.5c-52.667 0 -105 -8 -157 -24l-20 -5c-8 0 -15 2.33301 -21 7s-9 11 -9 19c0 7.33301 2.16699 13.833 6.5 19.5s13.833 14.167 28.5 25.5c20 16 38.833 33 56.5 51s32.834 36 45.501 54s22.667 35.167 30 51.5s11 31.166 11 44.499
c0 12.667 -4.33301 22.834 -13 30.501s-19 11.5 -31 11.5c-6.66699 0 -14 -1.5 -22 -4.5s-15.667 -7 -23 -12s-13.833 -10.667 -19.5 -17s-9.5 -12.833 -11.5 -19.5c-2.66699 -13.333 -5.33398 -26 -8.00098 -38s-9.33398 -18 -20.001 -18c-4.66699 0 -10.5 2.66699 -17.5 8
s-10.5 10.666 -10.5 15.999c0 15.333 4.33301 30.166 13 44.499s19.667 27.166 33 38.499s28 20.333 44 27s31.333 10 46 10c10.667 0 21.334 -2.33301 32.001 -7s20.167 -10.834 28.5 -18.501s15 -16.667 20 -27s7.5 -21.166 7.5 -32.499
c0 -17.333 -4.33301 -35.666 -13 -54.999s-21.667 -38.666 -39 -57.999c-7.33301 -8 -20.166 -19.833 -38.499 -35.5s-41.5 -37.5 -69.5 -65.5c26.667 5.33301 54.667 10.166 84 14.499s58 7.5 86 9.5c7.33301 0 13.5 -3.16699 18.5 -9.5s7.5 -13.5 7.5 -21.5z" />
    <glyph glyph-name="threequarters" unicode="&#xbe;" horiz-adv-x="698" 
d="M331 464c0 -18.667 -4.66406 -35.334 -13.9971 -50.001s-21.5 -27.167 -36.5 -37.5s-31.5 -18.333 -49.5 -24s-36 -8.5 -54 -8.5c-21.333 0 -40.333 1.66699 -57 5s-33.667 11.666 -51 24.999c-16 12 -24 24 -24 36c0 6 2.66699 11.167 8 15.5s10.666 6.5 15.999 6.5
c4.66699 0 9.16699 -1.83301 13.5 -5.5s8 -7.66699 11 -12s5.66699 -8.66602 8 -12.999s4.16602 -7.16602 5.49902 -8.49902c11.333 -9.33301 29.666 -14 54.999 -14c14.667 0 29.167 2.33301 43.5 7s27 10.667 38 18s19.833 16 26.5 26s10 20.333 10 31
c0 7.33301 -2.5 14.333 -7.5 21s-11.167 12.5 -18.5 17.5s-15.833 9 -25.5 12s-18.834 4.5 -27.501 4.5c-1.33301 0 -5.5 -1.16699 -12.5 -3.5s-15 -4.83301 -24 -7.5s-18 -5.16699 -27 -7.5s-15.833 -3.5 -20.5 -3.5c-7.33301 0 -13.833 1.33301 -19.5 4
s-8.5 6.66699 -8.5 12c0 6.66699 3.66699 14 11 22s20.333 12.667 39 14c12 0.666992 21.667 1.33398 29 2.00098s13.666 2.16699 18.999 4.5s10.333 5.83301 15 10.5s10.667 11 18 19c6.66699 8 11.834 15.333 15.501 22s5.5 14 5.5 22c0 18.667 -9.66699 28 -29 28
c-4.66699 0 -11.167 -1.16699 -19.5 -3.5s-16.666 -5.33301 -24.999 -9s-16.166 -7.5 -23.499 -11.5s-12.333 -8 -15 -12c1.33301 -4 2 -6.66699 2 -8c-1.33301 -4 -4 -8.16699 -8 -12.5s-8.5 -8.5 -13.5 -12.5s-10 -7.16699 -15 -9.5s-8.83301 -3.5 -11.5 -3.5
c-6 0 -12 2.16699 -18 6.5s-9 9.16602 -9 14.499c0 8.66699 5 18.667 15 30s22.833 22.333 38.5 33s32.667 19.667 51 27s35.5 11 51.5 11c21.333 0 39.166 -5.83301 53.499 -17.5s21.5 -27.167 21.5 -46.5c0 -15.333 -4.33301 -30.5 -13 -45.5s-19 -27.833 -31 -38.5
c58.667 -12 88 -39.333 88 -82zM538.003 639c0 -4.66699 -1.66602 -7.99512 -4.99902 -9.99512c-10.667 -6 -25.5 -22.5 -44.5 -49.5s-41.5 -65.5 -67.5 -115.5c-27.333 -51.333 -53.833 -105.333 -79.5 -162s-49.5 -115.334 -71.5 -176.001c-22 -61.333 -33 -95 -33 -101
c0 -2.66699 2.16699 -5.83398 6.5 -9.50098s6.5 -6.83398 6.5 -9.50098c0 -9.33301 -5 -14 -15 -14c-1.33301 0 -3.83301 0.5 -7.5 1.5s-7.33398 3 -11.001 6s-6.83398 7 -9.50098 12s-4 11.5 -4 19.5c0 3.33301 2 12.666 6 27.999s12.667 41 26 77
c24 63.333 48.5 123.666 73.5 180.999s51.5 113 79.5 167l45.5 88l28.5 56c2.66699 10.667 6.33398 21.167 11.001 31.5s11.667 15.5 21 15.5c10 0 19.833 -3.5 29.5 -10.5s14.5 -15.5 14.5 -25.5zM642.004 78.0049l-21.0068 2.99902
c-7.33301 1.33301 -15.666 2.5 -24.999 3.5s-19.666 1.5 -30.999 1.5c0 -12 0.333008 -24.333 1 -37s3.66699 -23 9 -31c2.66699 -6 4 -10 4 -12c0 -3.33301 -1.66699 -7.83301 -5 -13.5s-9.66602 -8.5 -18.999 -8.5c-4.66699 0 -9 0.5 -13 1.5s-7.5 3.16699 -10.5 6.5
s-5.5 8.33301 -7.5 15s-3 15.667 -3 27v13.5c0 5 0.166992 10 0.5 15s0.5 9.5 0.5 13.5v8l-26 -3c-11.333 -1.33301 -23.5 -2.66602 -36.5 -3.99902s-25.333 -2.5 -37 -3.5s-20.834 -1.5 -27.501 -1.5c-6 0 -12.5 1.33301 -19.5 4s-13.667 6 -20 10
s-11.666 8.5 -15.999 13.5s-6.5 9.83301 -6.5 14.5c0 11.333 7.66699 24.166 23 38.499s33.666 30.166 54.999 47.499l45 38.5l62 55.5c6.66699 6 11.834 11.5 15.501 16.5s7.33398 9.33301 11.001 13s7.33398 6.5 11.001 8.5s8.83398 3 15.501 3c8 0 15 -2.66699 21 -8
s9 -11.666 9 -18.999c0 -5.33301 -1 -11 -3 -17s-4.33301 -11.667 -7 -17l-8 -47c-2.66699 -16 -5 -31 -7 -45s-3.66699 -26.167 -5 -36.5s-2 -16.833 -2 -19.5c3.33301 0 6.83301 0.166992 10.5 0.5s8.16699 0.5 13.5 0.5c16.667 0 30.834 -2.33301 42.501 -7
s17.5 -11.667 17.5 -21c0 -5.33301 -0.833008 -10.166 -2.5 -14.499s-4.5 -6.5 -8.5 -6.5zM536.997 254.004l-38.001 -28l-46 -36c-44 -37.333 -66 -61.333 -66 -72c0 -2.66699 2.66699 -4 8 -4c2.66699 0 9 0.5 19 1.5s21.5 2 34.5 3s26.333 2.16699 40 3.5
s25.834 2.33301 36.501 3c2 38.667 6 81.667 12 129z" />
    <glyph glyph-name="questiondown" unicode="&#xbf;" horiz-adv-x="506" 
d="M367 404c0 -8.66699 -6.83301 -16.333 -20.5 -23s-25.5 -10 -35.5 -10c-14 0 -25.333 4.83301 -34 14.5s-13 21.5 -13 35.5c0 29.333 13.667 44 41 44c18 0 32.833 -5.66699 44.5 -17s17.5 -26 17.5 -44zM486 -25.999c0 -22 -21.334 -51.333 -64.001 -88
c-38 -33.333 -70.333 -54.666 -97 -63.999c-48.667 -17.333 -83 -26 -103 -26c-41.333 0 -84.666 16 -129.999 48c-48 34.667 -72 71.667 -72 111c0 22.667 10.333 49.667 31 81c18 27.333 72.333 72.333 163 135c79.333 54.667 120 96 122 124
c-9.33301 6 -18.666 12.333 -27.999 19c-6.66699 5.33301 -10 15.666 -10 30.999c2 2.66699 5.33301 4 10 4c12 0 27 -10.167 45 -30.5s27 -36.5 27 -48.5c0 -30.667 -20 -60.667 -60 -90l-97 -62c-91.333 -64.667 -137 -119 -137 -163c0 -31.333 11.667 -56.833 35 -76.5
s51 -29.5 83 -29.5c33.333 0 75.166 14.833 125.499 44.5s83.833 59.167 100.5 88.5c-2 3.33301 -5.33301 5 -10 5c-2 0 -5 -0.5 -9 -1.5s-7.33301 -1.5 -10 -1.5c-16.667 0 -25 5 -25 15c0 7.33301 5.5 15 16.5 23s20.167 12 27.5 12c12 0 26 -7 42 -21s24 -27 24 -39z" />
    <glyph glyph-name="Agrave" unicode="&#xc0;" horiz-adv-x="518" 
d="M383 702c0 -2.66699 -1.50098 -6.66699 -4.50098 -12s-5.5 -8 -7.5 -8c-14 0 -34.667 13.333 -62 40c-18.667 18 -36 30.667 -52 38c-7.33301 2 -16.666 5 -27.999 9l-3 7c0.666992 6 4.66699 14.167 12 24.5s14 15.5 20 15.5c14.667 0 56 -36.333 124 -109zM497.999 169
c0 -21.333 -8.33203 -32.002 -24.999 -32.002c-6.66699 0 -13.667 1.33301 -21 4c0 -20.667 8.33301 -52 25 -94c-0.666992 -8.66699 -4.83398 -15.667 -12.501 -21s-16.167 -8 -25.5 -8c-8 0 -17 2.33301 -27 7c-5.33301 10.667 -8 27.334 -8 50.001c0 6 0.333008 15 1 27
s1 21 1 27c0 3.33301 -0.333008 6.33301 -1 9c-4.66699 0 -13 0.666992 -25 2s-21 2 -27 2c-36.667 0 -83.334 -2.33301 -140.001 -7c-74 -6 -116 -13.333 -126 -22s-16 -49 -18 -121c-3.33301 -4.66699 -8 -7 -14 -7c-8.66699 0 -18.334 4.33301 -29.001 13s-16 17 -16 25
c0 1.33301 5.66699 19 17 53c12.667 50.667 34.334 125.667 65.001 225c88 250 156 375 204 375c51.333 0 91 -68.667 119 -206c8.66699 -43.333 20.334 -134.666 35.001 -273.999c4 -3.33301 14 -7 30 -11c12 -2.66699 18 -8 18 -16zM401 187.998
c-21.333 150.667 -32 226.332 -32 226.999c-22 122 -45.333 183 -70 183c-20 0 -53.667 -54.333 -101 -163c-28 -63.333 -55 -131 -81 -203c-11.333 -31.333 -17 -50.666 -17 -57.999c0 -4.66699 4.66699 -7 14 -7c-0.666992 0 21 4 65 12
c50.667 9.33301 124.667 12.333 222 9z" />
    <glyph glyph-name="Aacute" unicode="&#xc1;" horiz-adv-x="518" 
d="M372 776l-3 -7c-6.66699 -1.33301 -16 -4.33301 -28 -9c-16 -7.33301 -33.333 -20 -52 -38c-27.333 -26.667 -48 -40 -62 -40c-2 0 -4.5 2.66699 -7.5 8s-4.5 9.33301 -4.5 12l1 5c68 72.667 109.333 109 124 109c6 0 12.667 -5.16699 20 -15.5s11.333 -18.5 12 -24.5z
M498 169c0 -21.333 -8.33203 -32.002 -24.999 -32.002c-6.66699 0 -13.667 1.33301 -21 4c0 -20.667 8.33301 -52 25 -94c-0.666992 -8.66699 -4.83398 -15.667 -12.501 -21s-16.167 -8 -25.5 -8c-8 0 -17 2.33301 -27 7c-5.33301 10.667 -8 27.334 -8 50.001
c0 6 0.333008 15 1 27s1 21 1 27c0 3.33301 -0.333008 6.33301 -1 9c-4.66699 0 -13 0.666992 -25 2s-21 2 -27 2c-36.667 0 -83.334 -2.33301 -140.001 -7c-74 -6 -116 -13.333 -126 -22s-16 -49 -18 -121c-3.33301 -4.66699 -8 -7 -14 -7
c-8.66699 0 -18.334 4.33301 -29.001 13s-16 17 -16 25c0 1.33301 5.66699 19 17 53c12.667 50.667 34.334 125.667 65.001 225c88 250 156 375 204 375c51.333 0 91 -68.667 119 -206c8.66699 -43.333 20.334 -134.666 35.001 -273.999c4 -3.33301 14 -7 30 -11
c12 -2.66699 18 -8 18 -16zM401.001 187.998c-21.333 150.667 -32 226.332 -32 226.999c-22 122 -45.333 183 -70 183c-20 0 -53.667 -54.333 -101 -163c-28 -63.333 -55 -131 -81 -203c-11.333 -31.333 -17 -50.666 -17 -57.999c0 -4.66699 4.66699 -7 14 -7
c-0.666992 0 21 4 65 12c50.667 9.33301 124.667 12.333 222 9z" />
    <glyph glyph-name="Acircumflex" unicode="&#xc2;" horiz-adv-x="518" 
d="M423 702c0 -2.66699 -1.49902 -6.66797 -4.49902 -12.001s-5.5 -8 -7.5 -8c-12.667 0 -33.334 13.333 -62.001 40c-8.66699 8 -17 13.333 -25 16c-11.333 4.66699 -19.666 8.33398 -24.999 11.001c-9.33301 -2 -26 -11 -50 -27c-28.667 -26.667 -49.334 -40 -62.001 -40
c-2 0 -4.5 2.66699 -7.5 8s-4.5 9.33301 -4.5 12l1 5c74 66.667 115 100 123 100s49 -33.333 123 -100zM498.001 168.999c0 -21.333 -8.33203 -32.002 -24.999 -32.002c-6.66699 0 -13.667 1.33301 -21 4c0 -20.667 8.33301 -52 25 -94
c-0.666992 -8.66699 -4.83398 -15.667 -12.501 -21s-16.167 -8 -25.5 -8c-8 0 -17 2.33301 -27 7c-5.33301 10.667 -8 27.334 -8 50.001c0 6 0.333008 15 1 27s1 21 1 27c0 3.33301 -0.333008 6.33301 -1 9c-4.66699 0 -13 0.666992 -25 2s-21 2 -27 2
c-36.667 0 -83.334 -2.33301 -140.001 -7c-74 -6 -116 -13.333 -126 -22s-16 -49 -18 -121c-3.33301 -4.66699 -8 -7 -14 -7c-8.66699 0 -18.334 4.33301 -29.001 13s-16 17 -16 25c0 1.33301 5.66699 19 17 53c12.667 50.667 34.334 125.667 65.001 225
c88 250 156 375 204 375c51.333 0 91 -68.667 119 -206c8.66699 -43.333 20.334 -134.666 35.001 -273.999c4 -3.33301 14 -7 30 -11c12 -2.66699 18 -8 18 -16zM401.002 187.997c-21.333 150.667 -32 226.332 -32 226.999c-22 122 -45.333 183 -70 183
c-20 0 -53.667 -54.333 -101 -163c-28 -63.333 -55 -131 -81 -203c-11.333 -31.333 -17 -50.666 -17 -57.999c0 -4.66699 4.66699 -7 14 -7c-0.666992 0 21 4 65 12c50.667 9.33301 124.667 12.333 222 9z" />
    <glyph glyph-name="Atilde" unicode="&#xc3;" horiz-adv-x="518" 
d="M433 783c0 -11.333 -12.835 -25.166 -38.502 -41.499s-44.834 -24.5 -57.501 -24.5c-18.667 0 -36.667 6 -54 18s-31.666 18 -42.999 18c-13.333 0 -27.666 -5.16699 -42.999 -15.5l-23 -15.5c-10.667 0 -16 5 -16 15c0 11.333 13.333 24.666 40 39.999
c24.667 14 43.334 21 56.001 21c17.333 0 33.833 -6.5 49.5 -19.5s29.834 -19.5 42.501 -19.5c13.333 0 28.166 6.5 44.499 19.5s25.5 19.5 27.5 19.5c10 0 15 -5 15 -15zM497.998 169c0 -21.333 -8.33203 -32.002 -24.999 -32.002c-6.66699 0 -13.667 1.33301 -21 4
c0 -20.667 8.33301 -52 25 -94c-0.666992 -8.66699 -4.83398 -15.667 -12.501 -21s-16.167 -8 -25.5 -8c-8 0 -17 2.33301 -27 7c-5.33301 10.667 -8 27.334 -8 50.001c0 6 0.333008 15 1 27s1 21 1 27c0 3.33301 -0.333008 6.33301 -1 9c-4.66699 0 -13 0.666992 -25 2
s-21 2 -27 2c-36.667 0 -83.334 -2.33301 -140.001 -7c-74 -6 -116 -13.333 -126 -22s-16 -49 -18 -121c-3.33301 -4.66699 -8 -7 -14 -7c-8.66699 0 -18.334 4.33301 -29.001 13s-16 17 -16 25c0 1.33301 5.66699 19 17 53c12.667 50.667 34.334 125.667 65.001 225
c88 250 156 375 204 375c51.333 0 91 -68.667 119 -206c8.66699 -43.333 20.334 -134.666 35.001 -273.999c4 -3.33301 14 -7 30 -11c12 -2.66699 18 -8 18 -16zM400.999 187.998c-21.333 150.667 -32 226.332 -32 226.999c-22 122 -45.333 183 -70 183
c-20 0 -53.667 -54.333 -101 -163c-28 -63.333 -55 -131 -81 -203c-11.333 -31.333 -17 -50.666 -17 -57.999c0 -4.66699 4.66699 -7 14 -7c-0.666992 0 21 4 65 12c50.667 9.33301 124.667 12.333 222 9z" />
    <glyph glyph-name="Adieresis" unicode="&#xc4;" horiz-adv-x="518" 
d="M409 749c0 -11.333 -3.83301 -21.166 -11.5 -29.499s-17.167 -12.5 -28.5 -12.5s-20.833 4.16699 -28.5 12.5s-11.5 18.166 -11.5 29.499c0 10.667 3.83301 20.167 11.5 28.5s17.167 12.5 28.5 12.5s20.833 -4.16699 28.5 -12.5s11.5 -17.833 11.5 -28.5zM259 749
c0 -11.333 -3.83301 -21.166 -11.5 -29.499s-17.167 -12.5 -28.5 -12.5s-20.833 4.16699 -28.5 12.5s-11.5 18.166 -11.5 29.499c0 10.667 3.83301 20.167 11.5 28.5s17.167 12.5 28.5 12.5s20.833 -4.16699 28.5 -12.5s11.5 -17.833 11.5 -28.5zM498 169
c0 -21.333 -8.33203 -32.002 -24.999 -32.002c-6.66699 0 -13.667 1.33301 -21 4c0 -20.667 8.33301 -52 25 -94c-0.666992 -8.66699 -4.83398 -15.667 -12.501 -21s-16.167 -8 -25.5 -8c-8 0 -17 2.33301 -27 7c-5.33301 10.667 -8 27.334 -8 50.001c0 6 0.333008 15 1 27
s1 21 1 27c0 3.33301 -0.333008 6.33301 -1 9c-4.66699 0 -13 0.666992 -25 2s-21 2 -27 2c-36.667 0 -83.334 -2.33301 -140.001 -7c-74 -6 -116 -13.333 -126 -22s-16 -49 -18 -121c-3.33301 -4.66699 -8 -7 -14 -7c-8.66699 0 -18.334 4.33301 -29.001 13s-16 17 -16 25
c0 1.33301 5.66699 19 17 53c12.667 50.667 34.334 125.667 65.001 225c88 250 156 375 204 375c51.333 0 91 -68.667 119 -206c8.66699 -43.333 20.334 -134.666 35.001 -273.999c4 -3.33301 14 -7 30 -11c12 -2.66699 18 -8 18 -16zM401.001 187.998
c-21.333 150.667 -32 226.332 -32 226.999c-22 122 -45.333 183 -70 183c-20 0 -53.667 -54.333 -101 -163c-28 -63.333 -55 -131 -81 -203c-11.333 -31.333 -17 -50.666 -17 -57.999c0 -4.66699 4.66699 -7 14 -7c-0.666992 0 21 4 65 12
c50.667 9.33301 124.667 12.333 222 9z" />
    <glyph glyph-name="Aring" unicode="&#xc5;" horiz-adv-x="518" 
d="M358 773c0 -15.333 -5.66699 -28.666 -17 -39.999s-24.666 -17 -39.999 -17s-28.666 5.66699 -39.999 17s-17 24.666 -17 39.999s5.66699 28.666 17 39.999s24.666 17 39.999 17s28.666 -5.66699 39.999 -17s17 -24.666 17 -39.999zM498 169
c0 -21.333 -8.33203 -32.002 -24.999 -32.002c-6.66699 0 -13.667 1.33301 -21 4c0 -20.667 8.33301 -52 25 -94c-0.666992 -8.66699 -4.83398 -15.667 -12.501 -21s-16.167 -8 -25.5 -8c-8 0 -17 2.33301 -27 7c-5.33301 10.667 -8 27.334 -8 50.001c0 6 0.333008 15 1 27
s1 21 1 27c0 3.33301 -0.333008 6.33301 -1 9c-4.66699 0 -13 0.666992 -25 2s-21 2 -27 2c-36.667 0 -83.334 -2.33301 -140.001 -7c-74 -6 -116 -13.333 -126 -22s-16 -49 -18 -121c-3.33301 -4.66699 -8 -7 -14 -7c-8.66699 0 -18.334 4.33301 -29.001 13s-16 17 -16 25
c0 1.33301 5.66699 19 17 53c12.667 50.667 34.334 125.667 65.001 225c88 250 156 375 204 375c51.333 0 91 -68.667 119 -206c8.66699 -43.333 20.334 -134.666 35.001 -273.999c4 -3.33301 14 -7 30 -11c12 -2.66699 18 -8 18 -16zM338.001 772.998
c0 10 -3.66699 18.667 -11 26s-16 11 -26 11s-18.667 -3.66699 -26 -11s-11 -16 -11 -26s3.66699 -18.667 11 -26s16 -11 26 -11s18.667 3.66699 26 11s11 16 11 26zM401.001 187.998c-21.333 150.667 -32 226.332 -32 226.999c-22 122 -45.333 183 -70 183
c-20 0 -53.667 -54.333 -101 -163c-28 -63.333 -55 -131 -81 -203c-11.333 -31.333 -17 -50.666 -17 -57.999c0 -4.66699 4.66699 -7 14 -7c-0.666992 0 21 4 65 12c50.667 9.33301 124.667 12.333 222 9z" />
    <glyph glyph-name="AE" unicode="&#xc6;" horiz-adv-x="856" 
d="M836 51c0 -6.66699 -4.99414 -10 -14.9941 -10c-2.66699 0 -6.5 0.5 -11.5 1.5s-8.83301 1.5 -11.5 1.5c-30 0 -73.333 -9.5 -130 -28.5s-100.334 -28.5 -131.001 -28.5c-70 0 -106.333 50.333 -109 151c-40 2.66699 -56.667 4 -50 4c-37.333 0 -84.333 -2.33301 -141 -7
c-72.667 -6 -115.667 -13.667 -129 -23c-10 -7.33301 -21.333 -47.333 -34 -120c-3.33301 -4.66699 -8 -7 -14 -7c-9.33301 0 -18.333 4.16699 -27 12.5s-13 16.833 -13 25.5c0 0.666992 8 18.334 24 53.001c19.333 50.667 50.666 125.667 93.999 225
c120.667 250 205 375 253 375c8.66699 0 21 -2.16699 37 -6.5s28.333 -6.5 37 -6.5c62 0 133 8 213 24c30.667 6.66699 50 10 58 10c37.333 0 67.666 -14 90.999 -42c-7.33301 -7.33301 -15.666 -11 -24.999 -11c-4 0 -10.167 0.5 -18.5 1.5s-14.5 1.5 -18.5 1.5
c-37.333 0 -83.333 -3.33301 -138 -10c-68.667 -9.33301 -111 -20.333 -127 -33c-4.66699 -60 -9 -150 -13 -270l4 -1c3.33301 0 8.16602 1.66699 14.499 5s11.166 5 14.499 5c41.333 0 80.333 2.33301 117 7c9.33301 1.33301 16 2 20 2c20.667 0 43.334 -6 68.001 -18v-16
c0 -6 -4.66699 -12.667 -14 -20c-10.667 10 -20 15 -28 15c-20 0 -53.667 -3.66699 -101 -11c-49.333 -8.66699 -82 -16.334 -98 -23.001c0 -1.33301 -0.333008 -29 -1 -83c3.33301 -3.33301 12.333 -6.66602 27 -9.99902c11.333 -2.66699 17 -8.33398 17 -17.001
c0 -21.333 -9.66699 -32 -29 -32c-6.66699 0 -13.334 1.33301 -20.001 4c1.33301 -72.667 23.666 -109 66.999 -109c26.667 0 64.167 9.33301 112.5 28s86.166 28 113.499 28c34 0 55 -7.66699 63 -23c0 -2 0.333008 -4.5 1 -7.5s1 -5.16699 1 -6.5zM438.006 559
c0 3.33301 -0.333984 10.666 -1.00098 21.999v23c-9.33301 15.333 -21.666 23 -36.999 23c-19.333 0 -62.333 -58.667 -129 -176c-40 -70 -79 -143 -117 -219c-16.667 -33.333 -25 -52.666 -25 -57.999c0 -4.66699 4.33301 -7 13 -7c10.667 0 24 2 40 6
c22 4.66699 35.333 7.33398 40 8.00098c52 8 120.667 10.333 206 7v85c-9.33301 -2.66699 -15 -4 -17 -4c-11.333 0 -17 7.66699 -17 23c0 12 3.33301 20 10 24c3.33301 2.66699 11.666 5 24.999 7c0.666992 20.667 2.33398 60 5.00098 118
c2.66699 49.333 4 88.666 4 117.999z" />
    <glyph glyph-name="Ccedilla" unicode="&#xc7;" horiz-adv-x="488" 
d="M468 154c0 -47.333 -22.668 -87.999 -68.001 -121.999c-40 -30 -85 -47 -135 -51c-4 -7.33301 -10.667 -17.333 -20 -30c26.667 -4 43.334 -7 50.001 -9c21.333 -7.33301 32 -18 32 -32c0 -20 -11.667 -37.333 -35 -52c-11.333 -7.33301 -31.666 -16.333 -60.999 -27
l-10 28c17.333 6.66699 31 12.667 41 18c17.333 9.33301 27 19 29 29c-4.66699 6 -17.667 10.667 -39 14s-34.333 6.66602 -39 9.99902c-8 2.66699 -12 6 -12 10c0 6.66699 4.33301 14 13 22l21 18c-74 2.66699 -130 36 -168 100c-31.333 52.667 -47 119 -47 199
c0 71.333 10.333 138 31 200c23.333 72.667 58 129.334 104 170.001c33.333 30 67.666 45 102.999 45c51.333 0 89.666 -24.667 114.999 -74c20 -38.667 30 -86.334 30 -143.001c0 -28 -4.33301 -60.333 -13 -97c-11.333 -48 -26 -72 -44 -72
c-13.333 0 -23.333 7.33301 -30 22c4 2.66699 10.333 7.33398 19 14.001c17.333 16 26 56.667 26 122c0 39.333 -7.33301 77 -22 113c-18.667 46.667 -44.334 70 -77.001 70c-26 0 -53.333 -15.667 -82 -47c-21.333 -23.333 -39.666 -50.333 -54.999 -81
c-34 -70 -51 -157 -51 -261c0 -68.667 12 -123.334 36 -164.001c30 -50.667 76.667 -76 140 -76c34.667 0 66.5 9.16699 95.5 27.5s50.833 42.833 65.5 73.5c2.66699 10 8.33398 24 17.001 42c5.33301 8.66699 12 13 20 13c13.333 0 20 -7.33301 20 -22z" />
    <glyph glyph-name="Egrave" unicode="&#xc8;" horiz-adv-x="465" 
d="M273 732c0 -2.66699 -1.50098 -6.66699 -4.50098 -12s-5.5 -8 -7.5 -8c-14 0 -34.667 13.333 -62 40c-18.667 18 -36 30.667 -52 38c-7.33301 2 -16.666 5 -27.999 9l-3 7c0.666992 6 4.66699 14.167 12 24.5s14 15.5 20 15.5c14.667 0 56 -36.333 124 -109zM444.999 42
c-3.33301 -7.33301 -7.33691 -10.999 -12.0039 -10.999c-2.66699 0 -6.5 0.5 -11.5 1.5s-8.83301 1.5 -11.5 1.5c-28.667 0 -70.167 -9.16699 -124.5 -27.5s-95.833 -27.5 -124.5 -27.5c-94 0 -141 79 -141 237c0 125.333 3.33301 232.333 10 321l2 32
c0 6 -0.833008 14.167 -2.5 24.5l-3.5 21.5c6.66699 6 18 12.333 34 19c24.667 2.66699 70 12.667 136 30c59.333 15.333 103.333 23 132 23c37.333 0 67.666 -14 90.999 -42c-7.33301 -7.33301 -15.666 -11 -24.999 -11c-4 0 -10.167 0.5 -18.5 1.5s-14.5 1.5 -18.5 1.5
c-30.667 0 -75.667 -5.33301 -135 -16c-66.667 -12.667 -108 -25.667 -124 -39c-5.33301 -57.333 -11.666 -143.333 -18.999 -258c2.66699 -3.33301 6.33398 -5 11.001 -5c20 0 49.667 4.66699 89 14s69.333 14 90 14c16.667 0 33.334 -4.33301 50.001 -13l8 -30
c1.33301 -2.66699 -7.33398 -7.33398 -26.001 -14.001c-9.33301 6 -21.333 9 -36 9c-18 0 -50.167 -4.66699 -96.5 -14s-77.166 -17.333 -92.499 -24c-2.66699 -14.667 -4 -42 -4 -82c0 -100.667 25.667 -151 77 -151c24.667 0 60.167 8.33301 106.5 25s81.833 25 106.5 25
c42.667 0 70.334 -12 83.001 -36z" />
    <glyph glyph-name="Eacute" unicode="&#xc9;" horiz-adv-x="465" 
d="M302 776l-3 -7c-6.66699 -1.33301 -16 -4.33301 -28 -9c-16 -7.33301 -33.333 -20 -52 -38c-27.333 -26.667 -48 -40 -62 -40c-2 0 -4.5 2.66699 -7.5 8s-4.5 9.33301 -4.5 12l1 5c68 72.667 109.333 109 124 109c6 0 12.667 -5.16699 20 -15.5s11.333 -18.5 12 -24.5z
M445 42c-3.33301 -7.33301 -7.33691 -10.999 -12.0039 -10.999c-2.66699 0 -6.5 0.5 -11.5 1.5s-8.83301 1.5 -11.5 1.5c-28.667 0 -70.167 -9.16699 -124.5 -27.5s-95.833 -27.5 -124.5 -27.5c-94 0 -141 79 -141 237c0 125.333 3.33301 232.333 10 321l2 32
c0 6 -0.833008 14.167 -2.5 24.5l-3.5 21.5c6.66699 6 18 12.333 34 19c24.667 2.66699 70 12.667 136 30c59.333 15.333 103.333 23 132 23c37.333 0 67.666 -14 90.999 -42c-7.33301 -7.33301 -15.666 -11 -24.999 -11c-4 0 -10.167 0.5 -18.5 1.5s-14.5 1.5 -18.5 1.5
c-30.667 0 -75.667 -5.33301 -135 -16c-66.667 -12.667 -108 -25.667 -124 -39c-5.33301 -57.333 -11.666 -143.333 -18.999 -258c2.66699 -3.33301 6.33398 -5 11.001 -5c20 0 49.667 4.66699 89 14s69.333 14 90 14c16.667 0 33.334 -4.33301 50.001 -13l8 -30
c1.33301 -2.66699 -7.33398 -7.33398 -26.001 -14.001c-9.33301 6 -21.333 9 -36 9c-18 0 -50.167 -4.66699 -96.5 -14s-77.166 -17.333 -92.499 -24c-2.66699 -14.667 -4 -42 -4 -82c0 -100.667 25.667 -151 77 -151c24.667 0 60.167 8.33301 106.5 25s81.833 25 106.5 25
c42.667 0 70.334 -12 83.001 -36z" />
    <glyph glyph-name="Ecircumflex" unicode="&#xca;" horiz-adv-x="465" 
d="M347 734c0 -13.333 -4.00195 -20 -12.002 -20c-13.333 0 -34.666 11 -63.999 33c-9.33301 7.33301 -18.333 12 -27 14c-12 2.66699 -20.667 5.33398 -26 8.00098c-8.66699 -2.66699 -24 -13.334 -46 -32.001c-27.333 -30.667 -46.666 -46 -57.999 -46
c-2.66699 0 -5.66699 2.5 -9 7.5s-5 9.16699 -5 12.5v3c68 74.667 105.333 112 112 112c8.66699 0 53 -28.667 133 -86zM444.998 42c-3.33301 -7.33301 -7.33691 -10.999 -12.0039 -10.999c-2.66699 0 -6.5 0.5 -11.5 1.5s-8.83301 1.5 -11.5 1.5
c-28.667 0 -70.167 -9.16699 -124.5 -27.5s-95.833 -27.5 -124.5 -27.5c-94 0 -141 79 -141 237c0 125.333 3.33301 232.333 10 321l2 32c0 6 -0.833008 14.167 -2.5 24.5l-3.5 21.5c6.66699 6 18 12.333 34 19c24.667 2.66699 70 12.667 136 30
c59.333 15.333 103.333 23 132 23c37.333 0 67.666 -14 90.999 -42c-7.33301 -7.33301 -15.666 -11 -24.999 -11c-4 0 -10.167 0.5 -18.5 1.5s-14.5 1.5 -18.5 1.5c-30.667 0 -75.667 -5.33301 -135 -16c-66.667 -12.667 -108 -25.667 -124 -39
c-5.33301 -57.333 -11.666 -143.333 -18.999 -258c2.66699 -3.33301 6.33398 -5 11.001 -5c20 0 49.667 4.66699 89 14s69.333 14 90 14c16.667 0 33.334 -4.33301 50.001 -13l8 -30c1.33301 -2.66699 -7.33398 -7.33398 -26.001 -14.001c-9.33301 6 -21.333 9 -36 9
c-18 0 -50.167 -4.66699 -96.5 -14s-77.166 -17.333 -92.499 -24c-2.66699 -14.667 -4 -42 -4 -82c0 -100.667 25.667 -151 77 -151c24.667 0 60.167 8.33301 106.5 25s81.833 25 106.5 25c42.667 0 70.334 -12 83.001 -36z" />
    <glyph glyph-name="Edieresis" unicode="&#xcb;" horiz-adv-x="465" 
d="M329 759c0 -11.333 -3.83301 -21.166 -11.5 -29.499s-17.167 -12.5 -28.5 -12.5s-20.833 4.16699 -28.5 12.5s-11.5 18.166 -11.5 29.499c0 10.667 3.83301 20.167 11.5 28.5s17.167 12.5 28.5 12.5s20.833 -4.16699 28.5 -12.5s11.5 -17.833 11.5 -28.5zM179 749
c0 -11.333 -3.83301 -21.166 -11.5 -29.499s-17.167 -12.5 -28.5 -12.5s-20.833 4.16699 -28.5 12.5s-11.5 18.166 -11.5 29.499c0 10.667 3.83301 20.167 11.5 28.5s17.167 12.5 28.5 12.5s20.833 -4.16699 28.5 -12.5s11.5 -17.833 11.5 -28.5zM445 42
c-3.33301 -7.33301 -7.33691 -10.999 -12.0039 -10.999c-2.66699 0 -6.5 0.5 -11.5 1.5s-8.83301 1.5 -11.5 1.5c-28.667 0 -70.167 -9.16699 -124.5 -27.5s-95.833 -27.5 -124.5 -27.5c-94 0 -141 79 -141 237c0 125.333 3.33301 232.333 10 321l2 32
c0 6 -0.833008 14.167 -2.5 24.5l-3.5 21.5c6.66699 6 18 12.333 34 19c24.667 2.66699 70 12.667 136 30c59.333 15.333 103.333 23 132 23c37.333 0 67.666 -14 90.999 -42c-7.33301 -7.33301 -15.666 -11 -24.999 -11c-4 0 -10.167 0.5 -18.5 1.5s-14.5 1.5 -18.5 1.5
c-30.667 0 -75.667 -5.33301 -135 -16c-66.667 -12.667 -108 -25.667 -124 -39c-5.33301 -57.333 -11.666 -143.333 -18.999 -258c2.66699 -3.33301 6.33398 -5 11.001 -5c20 0 49.667 4.66699 89 14s69.333 14 90 14c16.667 0 33.334 -4.33301 50.001 -13l8 -30
c1.33301 -2.66699 -7.33398 -7.33398 -26.001 -14.001c-9.33301 6 -21.333 9 -36 9c-18 0 -50.167 -4.66699 -96.5 -14s-77.166 -17.333 -92.499 -24c-2.66699 -14.667 -4 -42 -4 -82c0 -100.667 25.667 -151 77 -151c24.667 0 60.167 8.33301 106.5 25s81.833 25 106.5 25
c42.667 0 70.334 -12 83.001 -36z" />
    <glyph glyph-name="Igrave" unicode="&#xcc;" horiz-adv-x="196" 
d="M176 702c0 -2.66699 -1.33398 -6.66699 -4.00098 -12s-5.33398 -8 -8.00098 -8c-13.333 0 -33.666 13.333 -60.999 40c-18.667 18 -36 30.667 -52 38c-7.33301 2 -16.666 5 -27.999 9l-3 7c0 6 3.83301 14.167 11.5 24.5s14.167 15.5 19.5 15.5
c15.333 0 57 -36.333 125 -109v-5zM144.999 641c0 -0.666992 -2.66602 -6.33398 -7.99902 -17.001c-2.66699 -5.33301 -5.66699 -23 -9 -53c-14 -136.667 -21 -259.667 -21 -369c0 -95.333 9.66699 -157.666 29 -186.999c-12 -8.66699 -21.667 -13 -29 -13
c-22.667 0 -37 23.333 -43 70c-4.66699 38.667 -7.33398 68 -8.00098 88l-2 464c-0.666992 9.33301 5.5 19.333 18.5 30s23.833 16 32.5 16c6 0 14.167 -3.5 24.5 -10.5s15.5 -13.167 15.5 -18.5z" />
    <glyph glyph-name="Iacute" unicode="&#xcd;" horiz-adv-x="196" 
d="M176 776l-2 -7c-6.66699 -1.33301 -16 -4.33301 -28 -9c-16 -7.33301 -33.333 -20 -52 -38c-27.333 -26.667 -48 -40 -62 -40c-2 0 -4.5 2.66699 -7.5 8s-4.5 9.33301 -4.5 12l1 5c68 72.667 109.333 109 124 109c6 0 12.667 -5.16699 20 -15.5s11 -18.5 11 -24.5z
M147 641c0 -0.666992 -2.99902 -6.33398 -8.99902 -17.001c-2.66699 -5.33301 -5.33398 -23 -8.00098 -53c-14.667 -136.667 -22 -259.667 -22 -369c0 -95.333 10 -157.666 30 -186.999c-12.667 -8.66699 -22.667 -13 -30 -13c-22 0 -36 23.333 -42 70
c-5.33301 38.667 -8 68 -8 88l-3 464c0 9.33301 6.33301 19.333 19 30s23.667 16 33 16c6 0 14.167 -3.5 24.5 -10.5s15.5 -13.167 15.5 -18.5z" />
    <glyph glyph-name="Icircumflex" unicode="&#xce;" horiz-adv-x="288" 
d="M268 692c0 -2.66699 -1.49902 -6.66797 -4.49902 -12.001s-5.5 -8 -7.5 -8c-12.667 0 -33.334 13.333 -62.001 40c-8.66699 8 -17 13.333 -25 16c-11.333 4.66699 -19.666 8.33398 -24.999 11.001c-9.33301 -2 -26 -11 -50 -27c-28.667 -26.667 -49.334 -40 -62.001 -40
c-2 0 -4.5 2.66699 -7.5 8s-4.5 9.33301 -4.5 12l1 5c74 66.667 115 100 123 100c7.33301 0 48.333 -33.333 123 -100zM187.001 640.999c0 -0.666992 -2.99902 -6.33398 -8.99902 -17.001c-2.66699 -5.33301 -5.33398 -23 -8.00098 -53
c-14.667 -136.667 -22 -259.667 -22 -369c0 -95.333 10 -157.666 30 -186.999c-12.667 -8.66699 -22.667 -13 -30 -13c-22 0 -36 23.333 -42 70c-5.33301 38.667 -8 68 -8 88l-3 464c0 9.33301 6.33301 19.333 19 30s23.667 16 33 16c6 0 14.167 -3.5 24.5 -10.5
s15.5 -13.167 15.5 -18.5z" />
    <glyph glyph-name="Idieresis" unicode="&#xcf;" horiz-adv-x="240" 
d="M220 749c0 -11.333 -3.83301 -21.166 -11.5 -29.499s-17.167 -12.5 -28.5 -12.5s-20.833 4.16699 -28.5 12.5s-11.5 18.166 -11.5 29.499c0 10.667 3.83301 20.167 11.5 28.5s17.167 12.5 28.5 12.5s20.833 -4.16699 28.5 -12.5s11.5 -17.833 11.5 -28.5zM100 739
c0 -11.333 -3.83301 -21.166 -11.5 -29.499s-17.167 -12.5 -28.5 -12.5s-20.833 4.16699 -28.5 12.5s-11.5 18.166 -11.5 29.499c0 10.667 3.83301 20.167 11.5 28.5s17.167 12.5 28.5 12.5s20.833 -4.16699 28.5 -12.5s11.5 -17.833 11.5 -28.5zM163 641
c0 -0.666992 -2.99902 -6.33398 -8.99902 -17.001c-2.66699 -5.33301 -5.33398 -23 -8.00098 -53c-14.667 -136.667 -22 -259.667 -22 -369c0 -95.333 10 -157.666 30 -186.999c-12.667 -8.66699 -22.667 -13 -30 -13c-22 0 -36 23.333 -42 70c-5.33301 38.667 -8 68 -8 88
l-3 464c0 9.33301 6.33301 19.333 19 30s23.667 16 33 16c6 0 14.167 -3.5 24.5 -10.5s15.5 -13.167 15.5 -18.5z" />
    <glyph glyph-name="Eth" unicode="&#xd0;" horiz-adv-x="517" 
d="M487 419c0 -101.333 -22.3369 -196.334 -67.0039 -285.001c-55.333 -108 -128.666 -162 -219.999 -162c-33.333 0 -64.666 11.667 -93.999 35c-10.667 -14.667 -18 -22 -22 -22c-8 0 -15.333 2.33301 -22 7c-9.33301 26.667 -14 76.667 -14 150v65
c0 24.667 0.333008 52.334 1 83.001l-11.5 -4c-3.66699 -1.33301 -7.5 -2 -11.5 -2c-5.33301 0 -9.66602 2.16699 -12.999 6.5s-6 9.5 -8 15.5s-3.33301 12.167 -4 18.5s-1 11.5 -1 15.5c0 4.66699 2.33301 7 7 7l43 4c0 6.66699 0.166992 13.167 0.5 19.5
s0.5 13.166 0.5 20.499c2 110.667 3 194.334 3 251.001c0 1.33301 -0.333008 3.83301 -1 7.5s-1 6.5 -1 8.5c0 14.667 8 22 24 22c8 0 16.667 -3.16699 26 -9.5s14 -13.166 14 -20.499c0 -8 -2.16699 -17.833 -6.5 -29.5s-6.5 -21.167 -6.5 -28.5v-39
c8.66699 5.33301 20.334 21.666 35.001 48.999c15.333 28 31 48.667 47 62c25.333 21.333 57 32 95 32c72 0 126 -29.667 162 -89c30 -49.333 45 -112 45 -188zM353.996 319.999c0 -11.333 -1.00195 -18.833 -3.00195 -22.5s-6.66699 -5.5 -14 -5.5
c-2 0 -5.83301 1.5 -11.5 4.5s-10.167 5.16699 -13.5 6.5c-9.33301 4 -26 6.66699 -50 8s-56 2 -96 2c-13.333 0 -25.666 -0.333008 -36.999 -1s-21.666 -1.66699 -30.999 -3v-171c0 -31.333 8.33301 -58.333 25 -81c19.333 -25.333 44 -38 74 -38c53.333 0 101 28 143 84
c34.667 46 58.667 98.667 72 158c10.667 51.333 16 105.666 16 162.999c0 60 -8.66699 110.333 -26 151c-23.333 56 -61.333 84 -114 84c-37.333 0 -74.333 -23 -111 -69c-30 -38 -51 -78.333 -63 -121c-5.33301 -18 -9.33301 -36.5 -12 -55.5s-4 -38.5 -4 -58.5
c32.667 2.66699 65 4.33398 97 5.00098s64.333 1 97 1c14 0 27.833 -3.5 41.5 -10.5s20.5 -17.167 20.5 -30.5z" />
    <glyph glyph-name="Ntilde" unicode="&#xd1;" horiz-adv-x="492" 
d="M383 773c0 -11.333 -12.835 -25.166 -38.502 -41.499s-44.834 -24.5 -57.501 -24.5c-18.667 0 -36.667 6 -54 18s-31.666 18 -42.999 18c-13.333 0 -27.666 -5.16699 -42.999 -15.5l-23 -15.5c-10.667 0 -16 5 -16 15c0 11.333 13.333 24.666 40 39.999
c24.667 14 43.334 21 56.001 21c17.333 0 33.833 -6.5 49.5 -19.5s29.834 -19.5 42.501 -19.5c13.333 0 28.166 6.5 44.499 19.5s25.5 19.5 27.5 19.5c10 0 15 -5 15 -15zM471.998 672c0.666992 -6 -2.33984 -10.3291 -9.00684 -12.9961s-13 -5.33398 -19 -8.00098
c-9.33301 -5.33301 -17.666 -35.333 -24.999 -90c-6 -43.333 -9 -78 -9 -104l-3 -303c-0.666992 -28 -5 -55.333 -13 -82c-11.333 -37.333 -27.666 -56 -48.999 -56c-52.667 0 -101.667 72.667 -147 218l-90 302c-7.33301 -1.33301 -11.333 -8 -12 -20
c-1.33301 -18 -6.66602 -64.667 -15.999 -140c-7.33301 -57.333 -11 -104 -11 -140c0 -107.333 6.66699 -169.333 20 -186c7.33301 -10.667 11 -16.667 11 -18c0 -7.33301 -4.83301 -14.333 -14.5 -21s-18.167 -10 -25.5 -10c-26.667 0 -40 43.667 -40 131
c0 12 0.333008 30 1 54s1 42 1 54c0 28.667 3.33301 71.5 10 128.5s10 100.167 10 129.5v129c0 1.33301 -0.5 3.5 -1.5 6.5s-1.5 5.16699 -1.5 6.5c0 17.333 17 26 51 26c26.667 0 45.334 -8.66699 56.001 -26c2.66699 -4.66699 5.33398 -19.334 8.00098 -44.001l6 -49
c8.66699 -52.667 33 -140.334 73 -263.001c46.667 -141.333 80.334 -212 101.001 -212c18 0 26.667 35.667 26 107l-3 300c0 35.333 6.33301 74.666 19 117.999c16.667 56.667 38.334 85 65.001 85c10 0 20.333 -3.33301 31 -10z" />
    <glyph glyph-name="Ograve" unicode="&#xd2;" horiz-adv-x="552" 
d="M373 722c0 -2.66699 -1.50098 -6.66699 -4.50098 -12s-5.5 -8 -7.5 -8c-14 0 -34.667 13.333 -62 40c-18.667 18 -36 30.667 -52 38c-7.33301 2 -16.666 5 -27.999 9l-3 7c0.666992 6 4.66699 14.167 12 24.5s14 15.5 20 15.5c14.667 0 56 -36.333 124 -109zM531.999 339
c0 -93.333 -21.001 -173.333 -63.001 -240c-48.667 -78 -117 -117 -205 -117c-22 0 -47.667 5 -77 15c-63.333 20 -108.333 57.667 -135 113c-21.333 44 -32 103 -32 177c0 96 21.333 182.333 64 259c50.667 92 120.334 138 209.001 138c77.333 0 138.333 -39.667 183 -119
c37.333 -66 56 -141.333 56 -226zM475.998 348c0 148 -49.333 238.667 -148 272c-10.667 4 -20 6 -28 6c-42.667 0 -84.667 -19.667 -126 -59c-70 -66.667 -105 -169.667 -105 -309c0 -12.667 2.66699 -32.667 8 -60c11.333 -57.333 30 -100 56 -128
c30.667 -32 73.667 -48 129 -48c76 0 132.667 37.667 170 113c29.333 58 44 129 44 213z" />
    <glyph glyph-name="Oacute" unicode="&#xd3;" horiz-adv-x="552" 
d="M362 786l-3 -7c-6.66699 -1.33301 -16 -4.33301 -28 -9c-16 -7.33301 -33.333 -20 -52 -38c-27.333 -26.667 -48 -40 -62 -40c-2 0 -4.5 2.66699 -7.5 8s-4.5 9.33301 -4.5 12l1 5c68 72.667 109.333 109 124 109c6 0 12.667 -5.16699 20 -15.5s11.333 -18.5 12 -24.5z
M532 339c0 -93.333 -21.001 -173.333 -63.001 -240c-48.667 -78 -117 -117 -205 -117c-22 0 -47.667 5 -77 15c-63.333 20 -108.333 57.667 -135 113c-21.333 44 -32 103 -32 177c0 96 21.333 182.333 64 259c50.667 92 120.334 138 209.001 138
c77.333 0 138.333 -39.667 183 -119c37.333 -66 56 -141.333 56 -226zM475.999 348c0 148 -49.333 238.667 -148 272c-10.667 4 -20 6 -28 6c-42.667 0 -84.667 -19.667 -126 -59c-70 -66.667 -105 -169.667 -105 -309c0 -12.667 2.66699 -32.667 8 -60
c11.333 -57.333 30 -100 56 -128c30.667 -32 73.667 -48 129 -48c76 0 132.667 37.667 170 113c29.333 58 44 129 44 213z" />
    <glyph glyph-name="Ocircumflex" unicode="&#xd4;" horiz-adv-x="552" 
d="M413 712c0 -2.66699 -1.49902 -6.66797 -4.49902 -12.001s-5.5 -8 -7.5 -8c-12.667 0 -33.334 13.333 -62.001 40c-8.66699 8 -17 13.333 -25 16c-11.333 4.66699 -19.666 8.33398 -24.999 11.001c-9.33301 -2 -26 -11 -50 -27c-28.667 -26.667 -49.334 -40 -62.001 -40
c-2 0 -4.5 2.66699 -7.5 8s-4.5 9.33301 -4.5 12l1 5c74 66.667 115 100 123 100s49 -33.333 123 -100zM532.001 338.999c0 -93.333 -21.001 -173.333 -63.001 -240c-48.667 -78 -117 -117 -205 -117c-22 0 -47.667 5 -77 15c-63.333 20 -108.333 57.667 -135 113
c-21.333 44 -32 103 -32 177c0 96 21.333 182.333 64 259c50.667 92 120.334 138 209.001 138c77.333 0 138.333 -39.667 183 -119c37.333 -66 56 -141.333 56 -226zM476 347.999c0 148 -49.333 238.667 -148 272c-10.667 4 -20 6 -28 6c-42.667 0 -84.667 -19.667 -126 -59
c-70 -66.667 -105 -169.667 -105 -309c0 -12.667 2.66699 -32.667 8 -60c11.333 -57.333 30 -100 56 -128c30.667 -32 73.667 -48 129 -48c76 0 132.667 37.667 170 113c29.333 58 44 129 44 213z" />
    <glyph glyph-name="Otilde" unicode="&#xd5;" horiz-adv-x="552" 
d="M433 783c0 -11.333 -12.835 -25.166 -38.502 -41.499s-44.834 -24.5 -57.501 -24.5c-18.667 0 -36.667 6 -54 18s-31.666 18 -42.999 18c-13.333 0 -27.666 -5.16699 -42.999 -15.5l-23 -15.5c-10.667 0 -16 5 -16 15c0 11.333 13.333 24.666 40 39.999
c24.667 14 43.334 21 56.001 21c17.333 0 33.833 -6.5 49.5 -19.5s29.834 -19.5 42.501 -19.5c13.333 0 28.166 6.5 44.499 19.5s25.5 19.5 27.5 19.5c10 0 15 -5 15 -15zM531.998 339c0 -93.333 -21.001 -173.333 -63.001 -240c-48.667 -78 -117 -117 -205 -117
c-22 0 -47.667 5 -77 15c-63.333 20 -108.333 57.667 -135 113c-21.333 44 -32 103 -32 177c0 96 21.333 182.333 64 259c50.667 92 120.334 138 209.001 138c77.333 0 138.333 -39.667 183 -119c37.333 -66 56 -141.333 56 -226zM475.997 348
c0 148 -49.333 238.667 -148 272c-10.667 4 -20 6 -28 6c-42.667 0 -84.667 -19.667 -126 -59c-70 -66.667 -105 -169.667 -105 -309c0 -12.667 2.66699 -32.667 8 -60c11.333 -57.333 30 -100 56 -128c30.667 -32 73.667 -48 129 -48c76 0 132.667 37.667 170 113
c29.333 58 44 129 44 213z" />
    <glyph glyph-name="Odieresis" unicode="&#xd6;" horiz-adv-x="552" 
d="M409 749c0 -11.333 -3.83301 -21.166 -11.5 -29.499s-17.167 -12.5 -28.5 -12.5s-20.833 4.16699 -28.5 12.5s-11.5 18.166 -11.5 29.499c0 10.667 3.83301 20.167 11.5 28.5s17.167 12.5 28.5 12.5s20.833 -4.16699 28.5 -12.5s11.5 -17.833 11.5 -28.5zM259 749
c0 -11.333 -3.83301 -21.166 -11.5 -29.499s-17.167 -12.5 -28.5 -12.5s-20.833 4.16699 -28.5 12.5s-11.5 18.166 -11.5 29.499c0 10.667 3.83301 20.167 11.5 28.5s17.167 12.5 28.5 12.5s20.833 -4.16699 28.5 -12.5s11.5 -17.833 11.5 -28.5zM532 339
c0 -93.333 -21.001 -173.333 -63.001 -240c-48.667 -78 -117 -117 -205 -117c-22 0 -47.667 5 -77 15c-63.333 20 -108.333 57.667 -135 113c-21.333 44 -32 103 -32 177c0 96 21.333 182.333 64 259c50.667 92 120.334 138 209.001 138c77.333 0 138.333 -39.667 183 -119
c37.333 -66 56 -141.333 56 -226zM475.999 348c0 148 -49.333 238.667 -148 272c-10.667 4 -20 6 -28 6c-42.667 0 -84.667 -19.667 -126 -59c-70 -66.667 -105 -169.667 -105 -309c0 -12.667 2.66699 -32.667 8 -60c11.333 -57.333 30 -100 56 -128
c30.667 -32 73.667 -48 129 -48c76 0 132.667 37.667 170 113c29.333 58 44 129 44 213z" />
    <glyph glyph-name="multiply" unicode="&#xd7;" horiz-adv-x="520" 
d="M413 165c-2.66699 0 -6.00195 1.00293 -10.002 3.00293s-11.167 7.5 -21.5 16.5s-25.333 22.833 -45 41.5l-80.5 79c-36.667 -36.667 -64.5 -65.334 -83.5 -86.001s-32.833 -36.167 -41.5 -46.5l-16 -19c-2 -2.33301 -4 -3.5 -6 -3.5c-4 0 -7.5 1.66699 -10.5 5
s-5.66699 7.16602 -8 11.499s-4 8.5 -5 12.5s-1.5 7 -1.5 9c0 2.66699 1 6 3 10s7.33301 11.167 16 21.5s22.167 25 40.5 44l76.5 77.5l-141 141c3.33301 10 8.33301 18.167 15 24.5s15 9.5 25 9.5c5.33301 0 12 -3.66699 20 -11s17.5 -17.333 28.5 -30l38.5 -44.5
c14.667 -17 31.334 -34.833 50.001 -53.5l146 146c10.667 -3.33301 19.834 -9.33301 27.501 -18s11.5 -19 11.5 -31c0 -4.66699 -3.83301 -10.334 -11.5 -17.001s-16.667 -13.5 -27 -20.5l-30.5 -21c-10 -7 -17.333 -12.833 -22 -17.5l-57 -57l71.5 -69.5l49 -45l28.5 -25.5
c6 -5.33301 9 -9 9 -11c0 -9.33301 -4.5 -15.833 -13.5 -19.5s-17.167 -5.5 -24.5 -5.5z" />
    <glyph glyph-name="Oslash" unicode="&#xd8;" horiz-adv-x="552" 
d="M532 339c0 -93.333 -21.002 -173.332 -63.002 -239.999c-48.667 -78 -117 -117 -205 -117c-35.333 0 -72.666 9 -111.999 27c-24 -46 -46.333 -69 -67 -69c-12.667 0 -19 5.33301 -19 16c0 2 6.66699 14.333 20 37l24 42c-60 48 -90 132 -90 252
c0 96 21.333 182.333 64 259c50.667 92 120.334 138 209.001 138c32.667 0 62.667 -7.33301 90 -22c1.33301 14.667 6 36 14 64c4 9.33301 11.667 17.333 23 24s22.333 10 33 10c8.66699 0 17.334 -4.66699 26.001 -14c-8 -13.333 -19 -34 -33 -62l-22 -52
c35.333 -33.333 62.666 -78.333 81.999 -135c17.333 -50.667 26 -103.334 26 -158.001zM475.998 348.001c0 107.333 -24.668 184.333 -74.001 231l-112 -270c-43.333 -103.333 -83.666 -192 -120.999 -266c26.667 -14 57.667 -21 93 -21c76 0 132.667 37.667 170 113
c29.333 58 44 129 44 213zM363.997 606.001c-25.333 13.333 -46.667 20 -64 20c-42.667 0 -84.667 -19.667 -126 -59c-70 -67.333 -105 -170.333 -105 -309c0 -30.667 5.33301 -63 16 -97c11.333 -37.333 26.333 -66.333 45 -87c93.333 188.667 171.333 366 234 532z" />
    <glyph glyph-name="Ugrave" unicode="&#xd9;" horiz-adv-x="425" 
d="M273 702c0 -2.66699 -1.50098 -6.66699 -4.50098 -12s-5.5 -8 -7.5 -8c-14 0 -34.667 13.333 -62 40c-18.667 18 -36 30.667 -52 38c-7.33301 2 -16.666 5 -27.999 9l-3 7c0.666992 6 4.66699 14.167 12 24.5s14 15.5 20 15.5c14.667 0 56 -36.333 124 -109zM404.999 369
c0 -54 -6.33398 -113.33 -19.001 -177.997c-15.333 -80.667 -35.666 -134.667 -60.999 -162c-32.667 -34.667 -70.667 -52 -114 -52c-40 0 -75.333 13 -106 39c-35.333 30 -59.333 72 -72 126c-8.66699 36 -13 85.667 -13 149c0 32.667 2 81.5 6 146.5s6 113.5 6 145.5
c0 6 -2 14.5 -6 25.5s-6 19.167 -6 24.5c0 6.66699 5.5 13.667 16.5 21s20.167 11 27.5 11c15.333 0 28.833 -3.83301 40.5 -11.5s16.834 -18.834 15.501 -33.501c-14 -0.666992 -22.667 -17.334 -26 -50.001c-12.667 -123.333 -19 -199.333 -19 -228v-130
c0 -46 8.66699 -86.333 26 -121c22 -44 53.667 -66 95 -66c111.333 0 167 161.333 167 484c0 62 -5.66699 104.333 -17 127c-5.33301 11.333 -8 17.666 -8 18.999c0 6.66699 2.5 14.167 7.5 22.5s10.833 12.5 17.5 12.5c7.33301 0 16.166 -3.16699 26.499 -9.5
s15.5 -12.833 15.5 -19.5v-292z" />
    <glyph glyph-name="Uacute" unicode="&#xda;" horiz-adv-x="425" 
d="M302 776l-3 -7c-6.66699 -1.33301 -16 -4.33301 -28 -9c-16 -7.33301 -33.333 -20 -52 -38c-27.333 -26.667 -48 -40 -62 -40c-2 0 -4.5 2.66699 -7.5 8s-4.5 9.33301 -4.5 12l1 5c68 72.667 109.333 109 124 109c6 0 12.667 -5.16699 20 -15.5s11.333 -18.5 12 -24.5z
M405 369c0 -54 -6.33398 -113.33 -19.001 -177.997c-15.333 -80.667 -35.666 -134.667 -60.999 -162c-32.667 -34.667 -70.667 -52 -114 -52c-40 0 -75.333 13 -106 39c-35.333 30 -59.333 72 -72 126c-8.66699 36 -13 85.667 -13 149c0 32.667 2 81.5 6 146.5
s6 113.5 6 145.5c0 6 -2 14.5 -6 25.5s-6 19.167 -6 24.5c0 6.66699 5.5 13.667 16.5 21s20.167 11 27.5 11c15.333 0 28.833 -3.83301 40.5 -11.5s16.834 -18.834 15.501 -33.501c-14 -0.666992 -22.667 -17.334 -26 -50.001c-12.667 -123.333 -19 -199.333 -19 -228v-130
c0 -46 8.66699 -86.333 26 -121c22 -44 53.667 -66 95 -66c111.333 0 167 161.333 167 484c0 62 -5.66699 104.333 -17 127c-5.33301 11.333 -8 17.666 -8 18.999c0 6.66699 2.5 14.167 7.5 22.5s10.833 12.5 17.5 12.5c7.33301 0 16.166 -3.16699 26.499 -9.5
s15.5 -12.833 15.5 -19.5v-292z" />
    <glyph glyph-name="Ucircumflex" unicode="&#xdb;" horiz-adv-x="425" 
d="M333 722c0 -2.66699 -1.49902 -6.66797 -4.49902 -12.001s-5.5 -8 -7.5 -8c-12.667 0 -33.334 13.333 -62.001 40c-8.66699 8 -17 13.333 -25 16c-11.333 4.66699 -19.666 8.33398 -24.999 11.001c-9.33301 -2 -26 -11 -50 -27c-28.667 -26.667 -49.334 -40 -62.001 -40
c-2 0 -4.5 2.66699 -7.5 8s-4.5 9.33301 -4.5 12l1 5c74 66.667 115 100 123 100s49 -33.333 123 -100zM405.001 368.999c0 -54 -6.33398 -113.33 -19.001 -177.997c-15.333 -80.667 -35.666 -134.667 -60.999 -162c-32.667 -34.667 -70.667 -52 -114 -52
c-40 0 -75.333 13 -106 39c-35.333 30 -59.333 72 -72 126c-8.66699 36 -13 85.667 -13 149c0 32.667 2 81.5 6 146.5s6 113.5 6 145.5c0 6 -2 14.5 -6 25.5s-6 19.167 -6 24.5c0 6.66699 5.5 13.667 16.5 21s20.167 11 27.5 11c15.333 0 28.833 -3.83301 40.5 -11.5
s16.834 -18.834 15.501 -33.501c-14 -0.666992 -22.667 -17.334 -26 -50.001c-12.667 -123.333 -19 -199.333 -19 -228v-130c0 -46 8.66699 -86.333 26 -121c22 -44 53.667 -66 95 -66c111.333 0 167 161.333 167 484c0 62 -5.66699 104.333 -17 127
c-5.33301 11.333 -8 17.666 -8 18.999c0 6.66699 2.5 14.167 7.5 22.5s10.833 12.5 17.5 12.5c7.33301 0 16.166 -3.16699 26.499 -9.5s15.5 -12.833 15.5 -19.5v-292z" />
    <glyph glyph-name="Udieresis" unicode="&#xdc;" horiz-adv-x="425" 
d="M329 749c0 -11.333 -3.83301 -21.166 -11.5 -29.499s-17.167 -12.5 -28.5 -12.5s-20.833 4.16699 -28.5 12.5s-11.5 18.166 -11.5 29.499c0 10.667 3.83301 20.167 11.5 28.5s17.167 12.5 28.5 12.5s20.833 -4.16699 28.5 -12.5s11.5 -17.833 11.5 -28.5zM179 749
c0 -11.333 -3.83301 -21.166 -11.5 -29.499s-17.167 -12.5 -28.5 -12.5s-20.833 4.16699 -28.5 12.5s-11.5 18.166 -11.5 29.499c0 10.667 3.83301 20.167 11.5 28.5s17.167 12.5 28.5 12.5s20.833 -4.16699 28.5 -12.5s11.5 -17.833 11.5 -28.5zM405 369
c0 -54 -6.33398 -113.33 -19.001 -177.997c-15.333 -80.667 -35.666 -134.667 -60.999 -162c-32.667 -34.667 -70.667 -52 -114 -52c-40 0 -75.333 13 -106 39c-35.333 30 -59.333 72 -72 126c-8.66699 36 -13 85.667 -13 149c0 32.667 2 81.5 6 146.5s6 113.5 6 145.5
c0 6 -2 14.5 -6 25.5s-6 19.167 -6 24.5c0 6.66699 5.5 13.667 16.5 21s20.167 11 27.5 11c15.333 0 28.833 -3.83301 40.5 -11.5s16.834 -18.834 15.501 -33.501c-14 -0.666992 -22.667 -17.334 -26 -50.001c-12.667 -123.333 -19 -199.333 -19 -228v-130
c0 -46 8.66699 -86.333 26 -121c22 -44 53.667 -66 95 -66c111.333 0 167 161.333 167 484c0 62 -5.66699 104.333 -17 127c-5.33301 11.333 -8 17.666 -8 18.999c0 6.66699 2.5 14.167 7.5 22.5s10.833 12.5 17.5 12.5c7.33301 0 16.166 -3.16699 26.499 -9.5
s15.5 -12.833 15.5 -19.5v-292z" />
    <glyph glyph-name="Yacute" unicode="&#xdd;" horiz-adv-x="486" 
d="M466 641c-6.66699 -12 -19 -28.498 -37 -49.498s-30 -37.833 -36 -50.5c-48.667 -95.333 -91 -189 -127 -281c-52.667 -134.667 -76.334 -230.334 -71.001 -287.001c-12 -8.66699 -23.333 -13 -34 -13c-21.333 0 -38.333 18.667 -51 56c4 3.33301 10.5 9.5 19.5 18.5
s23.167 40.833 42.5 95.5l37 110c-42.667 33.333 -79.667 85.666 -111 156.999c-52 119.333 -78 200.333 -78 243c0 27.333 10.667 41 32 41c14 0 25.333 -7.33301 34 -22c6.66699 -13.333 10 -27.333 10 -42c0 -4.66699 -1.5 -10.667 -4.5 -18s-4.5 -13 -4.5 -17
c0 -30.667 16.667 -83 50 -157c36.667 -80 67.334 -119.667 92.001 -119c11.333 12 43 78.667 95 200c46 108.667 80.333 163 103 163c24 0 37 -9.33301 39 -28zM321 815.002l-2 -7c-6.66699 -1.33301 -16 -4.33301 -28 -9c-16 -7.33301 -33.333 -20 -52 -38
c-27.333 -26.667 -48 -40 -62 -40c-2 0 -4.5 2.66699 -7.5 8s-4.5 9.33301 -4.5 12l1 5c68 72.667 109.333 109 124 109c6 0 12.667 -5.16699 20 -15.5s11 -18.5 11 -24.5z" />
    <glyph glyph-name="Thorn" unicode="&#xde;" horiz-adv-x="501" 
d="M132 641c0 -3.33301 -0.501953 -5.66699 -1.50195 -7s-2.33301 -3.83301 -4 -7.5s-3.5 -9.66699 -5.5 -18s-4 -20.833 -6 -37.5l-6 -54.5c-2 -17.667 -3.66699 -35.167 -5 -52.5c28 36 58.5 63.167 91.5 81.5s63.167 27.5 90.5 27.5c34.667 0 63.667 -5.5 87 -16.5
s42.333 -25.833 57 -44.5s25.167 -40.5 31.5 -65.5s9.5 -51.5 9.5 -79.5c0 -33.333 -3.66699 -67.666 -11 -102.999s-19 -67.5 -35 -96.5s-37 -52.833 -63 -71.5s-58 -28 -96 -28c-42 0 -77 7.66699 -105 23s-50.667 33.333 -68 54c3.33301 -69.333 13.333 -116 30 -140
c-12.667 -8.66699 -22.667 -13 -30 -13c-28.667 0 -46 23.333 -52 70c-3.33301 29.333 -5.5 51.666 -6.5 66.999s-1.5 28.666 -1.5 39.999c0 73.333 0.666992 147.833 2 223.5s3 152.834 5 231.501c0 4.66699 1.83301 9.66699 5.5 15s8.33398 10.333 14.001 15
s11.5 8.5 17.5 11.5s11 4.5 15 4.5c2.66699 0 6.33398 -1 11.001 -3s9.16699 -4.5 13.5 -7.5s8 -6.16699 11 -9.5s4.5 -6.33301 4.5 -9zM250.998 116.999c33.333 0 60.998 7.49902 82.998 22.499s39.5 34 52.5 57s22.167 48.5 27.5 76.5s8 55.333 8 82
c0 20.667 -2 41.5 -6 62.5s-11 39.833 -21 56.5s-23.333 30.334 -40 41.001s-37.667 16 -63 16c-18 0 -36.5 -4.33301 -55.5 -13s-37.167 -20.167 -54.5 -34.5s-33.166 -30.333 -47.499 -48s-26.166 -35.5 -35.499 -53.5c-4 -58 -6 -113.667 -6 -167
c8 -12 17.667 -23.833 29 -35.5s23.833 -22.167 37.5 -31.5s28.167 -16.833 43.5 -22.5s31.333 -8.5 48 -8.5z" />
    <glyph glyph-name="germandbls" unicode="&#xdf;" horiz-adv-x="418" 
d="M400 129c0 -57.333 -13.501 -106.663 -40.501 -147.996s-66.833 -70.333 -119.5 -87c-24.667 -7.33301 -46 -11 -64 -11c-18.667 0 -28 6.66699 -28 20c0 7.33301 7 12.666 21 15.999c42.667 9.33301 74.834 21.833 96.501 37.5s42.167 42.167 61.5 79.5
c5.33301 10.667 10.666 27.667 15.999 51s8 41 8 53c0 40.667 -10 79.5 -30 116.5s-47 64.833 -81 83.5c-18 10 -30.333 15 -37 15h-6c-2 -0.666992 -3.66699 -1 -5 -1c-14.667 0 -22 7 -22 21c0 5.33301 1.33301 10.666 4 15.999c12.667 5.33301 36.667 29 72 71
c30.667 36.667 46 72.667 46 108c0 52.667 -22 79 -66 79c-73.333 0 -121.333 -59.333 -144 -178c-10 -53.333 -15 -142 -15 -266c0 -55.333 1.66699 -98.333 5 -129c4.66699 -42.667 7 -61.334 7 -56.001c0 -4.66699 -3.16699 -9.83398 -9.5 -15.501
s-12.166 -8.5 -17.499 -8.5c-8 0 -15.333 5.33301 -22 16s-10 80 -10 208c0 134 7.66699 231.333 23 292c29.333 119.333 90.333 179 183 179c34.667 0 62.5 -10.5 83.5 -31.5s31.5 -49.5 31.5 -85.5c0 -32.667 -9.66699 -66.334 -29 -101.001c-17.333 -32 -40 -59 -68 -81
c0 -0.666992 1 -2 3 -4c48.667 -19.333 87 -54.666 115 -105.999c25.333 -46.667 38 -97.667 38 -153z" />
    <glyph glyph-name="agrave" unicode="&#xe0;" horiz-adv-x="351" 
d="M239 462c0 -2 -1.16699 -5.33301 -3.5 -10s-4.5 -7 -6.5 -7c-12 0 -29.667 11.333 -53 34c-15.333 15.333 -30 26.333 -44 33c-6 0.666992 -14 3 -24 7l-2 6c0.666992 4.66699 4.16699 11.5 10.5 20.5s11.833 13.5 16.5 13.5c12.667 0 48 -31 106 -93v-4zM331 -29
c0 -9.33301 -7.33496 -14.001 -22.002 -14.001c-16 0 -25.667 6.66699 -29 20c-0.666992 2 -1 15 -1 39c0 6.66699 -1 12 -3 16c-37.333 -27.333 -77.666 -41 -120.999 -41c-30 0 -59 8.33301 -87 25c-32 18.667 -48 42 -48 70c0 27.333 19 54 57 80
c34.667 24 66.667 36 96 36h99c4 4 6 11 6 21c0 44.667 -3.66699 78.334 -11 101.001c-12 38 -35.667 57 -71 57c-25.333 0 -48.666 -16 -69.999 -48c-19.333 -29.333 -29 -57.333 -29 -84v-6v-5c0 -5.33301 -2.66699 -8 -8 -8c-6.66699 0 -14 4 -22 12s-12 15 -12 21
c0 18.667 5.66699 42.167 17 70.5s23.666 49.833 36.999 64.5c16.667 18 37.334 27 62.001 27c38 0 73 -12 105 -36c34 -26 51.333 -57.333 52 -94zM277.998 129.999c0 26.667 -20.667 40 -62 40c-32.667 0 -61.334 -5.66699 -86.001 -17
c-31.333 -14.667 -47 -36.667 -47 -66c0 -18 8.33301 -32 25 -42c14 -8.66699 30.667 -13 50 -13c28.667 0 55.834 9.33301 81.501 28s38.5 42 38.5 70z" />
    <glyph glyph-name="aacute" unicode="&#xe1;" horiz-adv-x="351" 
d="M260 525l-2 -6.00098c-6 -1.33301 -14 -3.66602 -24 -6.99902c-14 -6.66699 -28.667 -17.667 -44 -33c-23.333 -22.667 -41 -34 -53 -34c-2 0 -4.16699 2.33301 -6.5 7s-3.5 8 -3.5 10v4c58 62 93.333 93 106 93c4.66699 0 10.167 -4.5 16.5 -13.5
s9.83301 -15.833 10.5 -20.5zM331 -29.001c0 -9.33301 -7.33496 -14.001 -22.002 -14.001c-16 0 -25.667 6.66699 -29 20c-0.666992 2 -1 15 -1 39c0 6.66699 -1 12 -3 16c-37.333 -27.333 -77.666 -41 -120.999 -41c-30 0 -59 8.33301 -87 25c-32 18.667 -48 42 -48 70
c0 27.333 19 54 57 80c34.667 24 66.667 36 96 36h99c4 4 6 11 6 21c0 44.667 -3.66699 78.334 -11 101.001c-12 38 -35.667 57 -71 57c-25.333 0 -48.666 -16 -69.999 -48c-19.333 -29.333 -29 -57.333 -29 -84v-6v-5c0 -5.33301 -2.66699 -8 -8 -8
c-6.66699 0 -14 4 -22 12s-12 15 -12 21c0 18.667 5.66699 42.167 17 70.5s23.666 49.833 36.999 64.5c16.667 18 37.334 27 62.001 27c38 0 73 -12 105 -36c34 -26 51.333 -57.333 52 -94zM277.998 129.998c0 26.667 -20.667 40 -62 40
c-32.667 0 -61.334 -5.66699 -86.001 -17c-31.333 -14.667 -47 -36.667 -47 -66c0 -18 8.33301 -32 25 -42c14 -8.66699 30.667 -13 50 -13c28.667 0 55.834 9.33301 81.501 28s38.5 42 38.5 70z" />
    <glyph glyph-name="acircumflex" unicode="&#xe2;" horiz-adv-x="351" 
d="M294 457c0 -2 -1.16699 -5.33398 -3.5 -10.001s-4.5 -7 -6.5 -7c-10.667 0 -28 11.333 -52 34c-8 6.66699 -15.333 11.334 -22 14.001c-10 3.33301 -17 6.33301 -21 9c-8 -1.33301 -22.333 -9 -43 -23c-24 -22.667 -41.333 -34 -52 -34c-2 0 -4.16699 2.33301 -6.5 7
s-3.5 8 -3.5 10v4c63.333 56.667 98.333 85 105 85s41.667 -28.333 105 -85v-4zM331 -29.001c0 -9.33301 -7.33496 -14.001 -22.002 -14.001c-16 0 -25.667 6.66699 -29 20c-0.666992 2 -1 15 -1 39c0 6.66699 -1 12 -3 16c-37.333 -27.333 -77.666 -41 -120.999 -41
c-30 0 -59 8.33301 -87 25c-32 18.667 -48 42 -48 70c0 27.333 19 54 57 80c34.667 24 66.667 36 96 36h99c4 4 6 11 6 21c0 44.667 -3.66699 78.334 -11 101.001c-12 38 -35.667 57 -71 57c-25.333 0 -48.666 -16 -69.999 -48c-19.333 -29.333 -29 -57.333 -29 -84v-6v-5
c0 -5.33301 -2.66699 -8 -8 -8c-6.66699 0 -14 4 -22 12s-12 15 -12 21c0 18.667 5.66699 42.167 17 70.5s23.666 49.833 36.999 64.5c16.667 18 37.334 27 62.001 27c38 0 73 -12 105 -36c34 -26 51.333 -57.333 52 -94zM277.998 129.998c0 26.667 -20.667 40 -62 40
c-32.667 0 -61.334 -5.66699 -86.001 -17c-31.333 -14.667 -47 -36.667 -47 -66c0 -18 8.33301 -32 25 -42c14 -8.66699 30.667 -13 50 -13c28.667 0 55.834 9.33301 81.501 28s38.5 42 38.5 70z" />
    <glyph glyph-name="atilde" unicode="&#xe3;" horiz-adv-x="351" 
d="M311 520c0 -9.33301 -11.001 -21 -33.001 -35s-38.333 -21 -49 -21c-16 0 -31.333 5.16699 -46 15.5s-26.667 15.5 -36 15.5c-12 0 -24.5 -4.5 -37.5 -13.5l-19.5 -13.5c-8.66699 0 -13 4.33301 -13 13c0 10 10.833 21.167 32.5 33.5s37.834 18.5 48.501 18.5
c14.667 0 28.667 -5.5 42 -16.5s25.333 -16.5 36 -16.5c11.333 0 24 5.5 38 16.5s21.667 16.5 23 16.5c9.33301 0 14 -4.33301 14 -13zM330.999 -29c0 -9.33301 -7.33496 -14.001 -22.002 -14.001c-16 0 -25.667 6.66699 -29 20c-0.666992 2 -1 15 -1 39
c0 6.66699 -1 12 -3 16c-37.333 -27.333 -77.666 -41 -120.999 -41c-30 0 -59 8.33301 -87 25c-32 18.667 -48 42 -48 70c0 27.333 19 54 57 80c34.667 24 66.667 36 96 36h99c4 4 6 11 6 21c0 44.667 -3.66699 78.334 -11 101.001c-12 38 -35.667 57 -71 57
c-25.333 0 -48.666 -16 -69.999 -48c-19.333 -29.333 -29 -57.333 -29 -84v-6v-5c0 -5.33301 -2.66699 -8 -8 -8c-6.66699 0 -14 4 -22 12s-12 15 -12 21c0 18.667 5.66699 42.167 17 70.5s23.666 49.833 36.999 64.5c16.667 18 37.334 27 62.001 27c38 0 73 -12 105 -36
c34 -26 51.333 -57.333 52 -94zM277.997 129.999c0 26.667 -20.667 40 -62 40c-32.667 0 -61.334 -5.66699 -86.001 -17c-31.333 -14.667 -47 -36.667 -47 -66c0 -18 8.33301 -32 25 -42c14 -8.66699 30.667 -13 50 -13c28.667 0 55.834 9.33301 81.501 28s38.5 42 38.5 70z
" />
    <glyph glyph-name="adieresis" unicode="&#xe4;" horiz-adv-x="351" 
d="M275 483c0 -8 -3 -15.167 -9 -21.5s-13.333 -9.5 -22 -9.5c-8 0 -15 3.16699 -21 9.5s-9 13.5 -9 21.5c0 8.66699 3 16.167 9 22.5s13 9.5 21 9.5c8.66699 0 16 -3.16699 22 -9.5s9 -13.833 9 -22.5zM160 483c0 -8 -3 -15.167 -9 -21.5s-13 -9.5 -21 -9.5
c-8.66699 0 -16 3.16699 -22 9.5s-9 13.5 -9 21.5c0 8.66699 3 16.167 9 22.5s13.333 9.5 22 9.5c8 0 15 -3.16699 21 -9.5s9 -13.833 9 -22.5zM331 -29c0 -9.33301 -7.33496 -14.001 -22.002 -14.001c-16 0 -25.667 6.66699 -29 20c-0.666992 2 -1 15 -1 39
c0 6.66699 -1 12 -3 16c-37.333 -27.333 -77.666 -41 -120.999 -41c-30 0 -59 8.33301 -87 25c-32 18.667 -48 42 -48 70c0 27.333 19 54 57 80c34.667 24 66.667 36 96 36h99c4 4 6 11 6 21c0 44.667 -3.66699 78.334 -11 101.001c-12 38 -35.667 57 -71 57
c-25.333 0 -48.666 -16 -69.999 -48c-19.333 -29.333 -29 -57.333 -29 -84v-6v-5c0 -5.33301 -2.66699 -8 -8 -8c-6.66699 0 -14 4 -22 12s-12 15 -12 21c0 18.667 5.66699 42.167 17 70.5s23.666 49.833 36.999 64.5c16.667 18 37.334 27 62.001 27c38 0 73 -12 105 -36
c34 -26 51.333 -57.333 52 -94zM277.998 129.999c0 26.667 -20.667 40 -62 40c-32.667 0 -61.334 -5.66699 -86.001 -17c-31.333 -14.667 -47 -36.667 -47 -66c0 -18 8.33301 -32 25 -42c14 -8.66699 30.667 -13 50 -13c28.667 0 55.834 9.33301 81.501 28s38.5 42 38.5 70z
" />
    <glyph glyph-name="aring" unicode="&#xe5;" horiz-adv-x="351" 
d="M248 513c0 -15.333 -5.66699 -28.666 -17 -39.999s-24.666 -17 -39.999 -17s-28.666 5.66699 -39.999 17s-17 24.666 -17 39.999s5.66699 28.666 17 39.999s24.666 17 39.999 17s28.666 -5.66699 39.999 -17s17 -24.666 17 -39.999zM331 -29
c0 -9.33301 -7.33496 -14.001 -22.002 -14.001c-16 0 -25.667 6.66699 -29 20c-0.666992 2 -1 15 -1 39c0 6.66699 -1 12 -3 16c-37.333 -27.333 -77.666 -41 -120.999 -41c-30 0 -59 8.33301 -87 25c-32 18.667 -48 42 -48 70c0 27.333 19 54 57 80
c34.667 24 66.667 36 96 36h99c4 4 6 11 6 21c0 44.667 -3.66699 78.334 -11 101.001c-12 38 -35.667 57 -71 57c-25.333 0 -48.666 -16 -69.999 -48c-19.333 -29.333 -29 -57.333 -29 -84v-6v-5c0 -5.33301 -2.66699 -8 -8 -8c-6.66699 0 -14 4 -22 12s-12 15 -12 21
c0 18.667 5.66699 42.167 17 70.5s23.666 49.833 36.999 64.5c16.667 18 37.334 27 62.001 27c38 0 73 -12 105 -36c34 -26 51.333 -57.333 52 -94zM227.998 512.999c0 10 -3.66699 18.667 -11 26s-16 11 -26 11s-18.667 -3.66699 -26 -11s-11 -16 -11 -26
s3.66699 -18.667 11 -26s16 -11 26 -11s18.667 3.66699 26 11s11 16 11 26zM277.998 129.999c0 26.667 -20.667 40 -62 40c-32.667 0 -61.334 -5.66699 -86.001 -17c-31.333 -14.667 -47 -36.667 -47 -66c0 -18 8.33301 -32 25 -42c14 -8.66699 30.667 -13 50 -13
c28.667 0 55.834 9.33301 81.501 28s38.5 42 38.5 70z" />
    <glyph glyph-name="ae" unicode="&#xe6;" horiz-adv-x="594" 
d="M574 99c0 -29.333 -19.6689 -55.668 -59.002 -79.001c-35.333 -21.333 -68.666 -32 -99.999 -32c-20.667 0 -41.667 4.66699 -63 14c-24 10.667 -40.667 24 -50 40c-46 -34 -95 -51 -147 -51c-30 0 -59 8.33301 -87 25c-32 18.667 -48 42 -48 70c0 27.333 19 54 57 80
c34.667 24 66.667 36 96 36h99c4 4 6 11 6 21c0 44.667 -3.66699 78.334 -11 101.001c-12 38 -35.667 57 -71 57c-25.333 0 -48.666 -16 -69.999 -48c-19.333 -29.333 -29 -57.333 -29 -84v-6v-5c0 -5.33301 -2.66699 -8 -8 -8c-6.66699 0 -14 4 -22 12s-12 15 -12 21
c0 34.667 10.667 69 32 103c24 39.333 52 59 84 59c26 0 54 -7.66699 84 -23c32 -17.333 52.667 -37.333 62 -60c22 59.333 49.667 89 83 89c32 0 67 -16.167 105 -48.5s57 -64.5 57 -96.5c0 -41.333 -16.667 -77.333 -50 -108s-71 -46 -113 -46
c-6 0 -16.167 3.33301 -30.5 10s-24.833 10 -31.5 10c-8.66699 0 -13 -2.66699 -13 -8c0 -76.667 31.667 -115 95 -115c24 0 46 8.33301 66 25c11.333 10 25 25.667 41 47c12 17.333 20.333 26 25 26c15.333 0 23 -9.33301 23 -28zM504.998 282.998
c0 23.333 -5.99902 44.666 -17.999 63.999c-14.667 21.333 -33 32 -55 32c-24.667 0 -47.334 -17.333 -68.001 -52c-18.667 -31.333 -28 -60.666 -28 -87.999c0 -18 7.83301 -33.333 23.5 -46s33.167 -19 52.5 -19c27.333 0 50 11.667 68 35c16.667 21.333 25 46 25 74z
M277.999 129.998c0 26.667 -20.667 40 -62 40c-32.667 0 -61.334 -5.66699 -86.001 -17c-31.333 -14.667 -47 -36.667 -47 -66c0 -18 8.33301 -32 25 -42c14 -8.66699 30.667 -13 50 -13c28.667 0 55.834 9.33301 81.501 28s38.5 42 38.5 70z" />
    <glyph glyph-name="ccedilla" unicode="&#xe7;" horiz-adv-x="354" 
d="M334 104c0 -16 -13.667 -37.5 -41 -64.5s-50 -43 -68 -48s-34.333 -8.16699 -49 -9.5c-4 -7.33301 -11 -17.666 -21 -30.999c28.667 -4.66699 45.334 -7.66699 50.001 -9c21.333 -6.66699 32 -17.334 32 -32.001c0 -20 -11.667 -37.333 -35 -52
c-10.667 -6.66699 -31 -15.667 -61 -27l-10 28c18 6.66699 31.667 12.667 41 18c18 10 27.667 19.667 29 29c-3.33301 5.33301 -16.333 9.83301 -39 13.5s-35.667 7.16699 -39 10.5c-8 2 -12 5.33301 -12 10c0 7.33301 4.66699 15 14 23
c7.33301 6.66699 14.666 13 21.999 19c-42 5.33301 -74.333 25.333 -97 60c-20 30.667 -30 68.667 -30 114c0 51.333 11 108.666 33 171.999c27.333 78.667 61.333 118 102 118c19.333 0 45 -9.5 77 -28.5s50 -37.167 54 -54.5c4.66699 -21.333 7 -41.666 7 -60.999
c0 -73.333 -11 -110 -33 -110c-5.33301 0 -11.666 2 -18.999 6s-11 8.66699 -11 14c0 -2 3 4.33301 9 19c2.66699 8 4 28 4 60c0 74 -16.667 111 -50 111c-36.667 0 -66.667 -33.667 -90 -101c-17.333 -52 -26 -101.333 -26 -148c0 -36 5.66699 -66 17 -90
c15.333 -31.333 39 -47 71 -47c19.333 0 42 10 68 30c23.333 18 40.666 37 51.999 57c2 6.66699 6 16 12 28c3.33301 4.66699 8 7 14 7c4 0 8.83301 -4.5 14.5 -13.5s8.5 -15.833 8.5 -20.5z" />
    <glyph glyph-name="egrave" unicode="&#xe8;" horiz-adv-x="343" 
d="M236 462c0 -2 -1.16699 -5.33301 -3.5 -10s-4.5 -7 -6.5 -7c-12 0 -29.667 11.333 -53 34c-15.333 15.333 -30 26.333 -44 33c-6 0.666992 -14 3 -24 7l-2 6c0.666992 4.66699 4.16699 11.5 10.5 20.5s11.833 13.5 16.5 13.5c12.667 0 48 -31 106 -93v-4zM318 99
c0 -29.333 -19.668 -55.667 -59.001 -79c-35.333 -21.333 -68.666 -32 -99.999 -32c-89.333 0 -134 56.667 -134 170c0 50 9 103.667 27 161c24 74.667 54.667 112 92 112c32 0 67 -16.167 105 -48.5s57 -64.5 57 -96.5c0 -41.333 -16.667 -77.333 -50 -108
s-71 -46 -113 -46c-4 0 -12.5 3.33301 -25.5 10s-21.833 10 -26.5 10c-8.66699 0 -13 -2.66699 -13 -8c0 -76.667 25.333 -115 76 -115c26 0 50 8.66699 72 26c13.333 10 28 25.667 44 47c12.667 16.667 21 25 25 25c15.333 0 23 -9.33301 23 -28zM248.999 282.999
c0 23.333 -6.66504 45.167 -19.998 65.5s-31 30.5 -53 30.5c-26.667 0 -48.334 -16.667 -65.001 -50c-14 -28 -21 -57 -21 -87c0 -19.333 6.16699 -35.5 18.5 -48.5s28.166 -19.5 47.499 -19.5c27.333 0 50 11.667 68 35c16.667 21.333 25 46 25 74z" />
    <glyph glyph-name="eacute" unicode="&#xe9;" horiz-adv-x="343" 
d="M245 525l-2 -6.00098c-6 -1.33301 -14 -3.66602 -24 -6.99902c-14 -6.66699 -28.667 -17.667 -44 -33c-23.333 -22.667 -41 -34 -53 -34c-2 0 -4.16699 2.33301 -6.5 7s-3.5 8 -3.5 10v4c58 62 93.333 93 106 93c4.66699 0 10.167 -4.5 16.5 -13.5
s9.83301 -15.833 10.5 -20.5zM318 98.999c0 -29.333 -19.668 -55.667 -59.001 -79c-35.333 -21.333 -68.666 -32 -99.999 -32c-89.333 0 -134 56.667 -134 170c0 50 9 103.667 27 161c24 74.667 54.667 112 92 112c32 0 67 -16.167 105 -48.5s57 -64.5 57 -96.5
c0 -41.333 -16.667 -77.333 -50 -108s-71 -46 -113 -46c-4 0 -12.5 3.33301 -25.5 10s-21.833 10 -26.5 10c-8.66699 0 -13 -2.66699 -13 -8c0 -76.667 25.333 -115 76 -115c26 0 50 8.66699 72 26c13.333 10 28 25.667 44 47c12.667 16.667 21 25 25 25
c15.333 0 23 -9.33301 23 -28zM248.999 282.998c0 23.333 -6.66504 45.167 -19.998 65.5s-31 30.5 -53 30.5c-26.667 0 -48.334 -16.667 -65.001 -50c-14 -28 -21 -57 -21 -87c0 -19.333 6.16699 -35.5 18.5 -48.5s28.166 -19.5 47.499 -19.5c27.333 0 50 11.667 68 35
c16.667 21.333 25 46 25 74z" />
    <glyph glyph-name="ecircumflex" unicode="&#xea;" horiz-adv-x="343" 
d="M259 457c0 -2 -1.16699 -5.33301 -3.5 -10s-4.5 -7 -6.5 -7c-10.667 0 -28 11.333 -52 34c-8 7.33301 -15.333 12 -22 14c-10 3.33301 -17 6.33301 -21 9c-8 -1.33301 -22.333 -9 -43 -23c-24 -22.667 -41.333 -34 -52 -34c-2 0 -4.16699 2.33301 -6.5 7s-3.5 8 -3.5 10
v4c63.333 56.667 98.333 85 105 85s41.667 -28.333 105 -85v-4zM318 99c0 -29.333 -19.668 -55.667 -59.001 -79c-35.333 -21.333 -68.666 -32 -99.999 -32c-89.333 0 -134 56.667 -134 170c0 50 9 103.667 27 161c24 74.667 54.667 112 92 112c32 0 67 -16.167 105 -48.5
s57 -64.5 57 -96.5c0 -41.333 -16.667 -77.333 -50 -108s-71 -46 -113 -46c-4 0 -12.5 3.33301 -25.5 10s-21.833 10 -26.5 10c-8.66699 0 -13 -2.66699 -13 -8c0 -76.667 25.333 -115 76 -115c26 0 50 8.66699 72 26c13.333 10 28 25.667 44 47c12.667 16.667 21 25 25 25
c15.333 0 23 -9.33301 23 -28zM248.999 282.999c0 23.333 -6.66504 45.167 -19.998 65.5s-31 30.5 -53 30.5c-26.667 0 -48.334 -16.667 -65.001 -50c-14 -28 -21 -57 -21 -87c0 -19.333 6.16699 -35.5 18.5 -48.5s28.166 -19.5 47.499 -19.5c27.333 0 50 11.667 68 35
c16.667 21.333 25 46 25 74z" />
    <glyph glyph-name="edieresis" unicode="&#xeb;" horiz-adv-x="343" 
d="M250 483c0 -8 -3 -15.167 -9 -21.5s-13.333 -9.5 -22 -9.5c-8 0 -15 3.16699 -21 9.5s-9 13.5 -9 21.5c0 8.66699 3 16.167 9 22.5s13 9.5 21 9.5c8.66699 0 16 -3.16699 22 -9.5s9 -13.833 9 -22.5zM135 483c0 -8 -3 -15.167 -9 -21.5s-13 -9.5 -21 -9.5
c-8.66699 0 -16 3.16699 -22 9.5s-9 13.5 -9 21.5c0 8.66699 3 16.167 9 22.5s13.333 9.5 22 9.5c8 0 15 -3.16699 21 -9.5s9 -13.833 9 -22.5zM318 99c0 -29.333 -19.668 -55.667 -59.001 -79c-35.333 -21.333 -68.666 -32 -99.999 -32c-89.333 0 -134 56.667 -134 170
c0 50 9 103.667 27 161c24 74.667 54.667 112 92 112c32 0 67 -16.167 105 -48.5s57 -64.5 57 -96.5c0 -41.333 -16.667 -77.333 -50 -108s-71 -46 -113 -46c-4 0 -12.5 3.33301 -25.5 10s-21.833 10 -26.5 10c-8.66699 0 -13 -2.66699 -13 -8
c0 -76.667 25.333 -115 76 -115c26 0 50 8.66699 72 26c13.333 10 28 25.667 44 47c12.667 16.667 21 25 25 25c15.333 0 23 -9.33301 23 -28zM248.999 282.999c0 23.333 -6.66504 45.167 -19.998 65.5s-31 30.5 -53 30.5c-26.667 0 -48.334 -16.667 -65.001 -50
c-14 -28 -21 -57 -21 -87c0 -19.333 6.16699 -35.5 18.5 -48.5s28.166 -19.5 47.499 -19.5c27.333 0 50 11.667 68 35c16.667 21.333 25 46 25 74z" />
    <glyph glyph-name="igrave" unicode="&#xec;" horiz-adv-x="148" 
d="M143 452c0 -2 -1.16602 -5.33398 -3.49902 -10.001s-4.5 -7 -6.5 -7c-12 0 -29.667 11.333 -53 34c-16 15.333 -30.667 26.333 -44 33c-6 0.666992 -14 3 -24 7l-2 6c0 4.66699 3.16699 11.5 9.5 20.5s11.833 13.5 16.5 13.5c13.333 0 48.666 -31 105.999 -93
c0.666992 -1.33301 1 -2.66602 1 -3.99902zM110.001 399.999c0 -12 -2.66699 -29.999 -8 -53.999s-8 -42 -8 -54v-221c0 -14.667 3 -34.667 9 -60c-2.66699 -5.33301 -6.33398 -8 -11.001 -8c-32.667 0 -49 15.667 -49 47v367c8.66699 4.66699 17.334 7 26.001 7
c7.33301 0 16 -2.33301 26 -7s15 -10.334 15 -17.001z" />
    <glyph glyph-name="iacute" unicode="&#xed;" horiz-adv-x="128" 
d="M153 525l-1.99902 -6.00098c-6 -1.33301 -14 -3.66602 -24 -6.99902c-13.333 -6.66699 -28 -17.667 -44 -33c-23.333 -22.667 -41 -34 -53 -34c-2 0 -4.16699 2.33301 -6.5 7s-3.5 8 -3.5 10l1 4c57.333 62 92.666 93 105.999 93c4.66699 0 10.167 -4.5 16.5 -13.5
s9.5 -15.833 9.5 -20.5zM90.001 390.999c0 -12 -2.66797 -29.999 -8.00098 -53.999s-8 -42 -8 -54v-221c0 -14.667 3.33301 -34.667 10 -60c-3.33301 -5.33301 -7 -8 -11 -8c-33.333 0 -50 15.667 -50 47v367c8.66699 4.66699 17.334 7 26.001 7
c7.33301 0 16 -2.33301 26 -7s15 -10.334 15 -17.001z" />
    <glyph glyph-name="icircumflex" unicode="&#xee;" horiz-adv-x="147" 
d="M162 460c0 -3.33301 -1.66992 -7.33301 -5.00293 -12s-6.66602 -7 -9.99902 -7c-4 0 -10.167 4 -18.5 12s-15.833 13 -22.5 15c-10 3.33301 -17.333 6.33301 -22 9c-7.33301 -1.33301 -21.333 -9 -42 -23c-15.333 -14.667 -25.666 -22 -30.999 -22
c-2 0 -4.33301 2.33301 -7 7s-4 8 -4 10l1 4c41.333 48.667 69 73 83 73c10.667 0 36.334 -20.667 77.001 -62c0 -0.666992 0.333008 -2 1 -4zM111.997 391c0 -12 -2.66797 -29.999 -8.00098 -53.999s-8 -42 -8 -54v-221c0 -14.667 3.33301 -34.667 10 -60
c-3.33301 -5.33301 -7 -8 -11 -8c-33.333 0 -50 15.667 -50 47v367c8.66699 4.66699 17.334 7 26.001 7c7.33301 0 16 -2.33301 26 -7s15 -10.334 15 -17.001z" />
    <glyph glyph-name="idieresis" unicode="&#xef;" horiz-adv-x="134" 
d="M145 483c0 -8 -3 -15.167 -9 -21.5s-13.333 -9.5 -22 -9.5c-8 0 -15 3.16699 -21 9.5s-9 13.5 -9 21.5c0 8.66699 3 16.167 9 22.5s13 9.5 21 9.5c8.66699 0 16 -3.16699 22 -9.5s9 -13.833 9 -22.5zM50 483c0 -8 -3 -15.167 -9 -21.5s-13 -9.5 -21 -9.5
c-8.66699 0 -16 3.16699 -22 9.5s-9 13.5 -9 21.5c0 8.66699 3 16.167 9 22.5s13.333 9.5 22 9.5c8 0 15 -3.16699 21 -9.5s9 -13.833 9 -22.5zM97 391c0 -12 -2.66602 -29.999 -7.99902 -53.999s-8 -42 -8 -54v-221c0 -14.667 3 -34.667 9 -60
c-2.66699 -5.33301 -6.33398 -8 -11.001 -8c-32.667 0 -49 15.667 -49 47v367c8.66699 4.66699 17 7 25 7s16.333 -2.33301 25 -7c11.333 -4.66699 17 -10.334 17 -17.001z" />
    <glyph glyph-name="eth" unicode="&#xf0;" 
d="M322 631c6.66699 -10 10.002 -16.3311 10.002 -18.998c0 -8.66699 -10.333 -14.334 -31 -17.001c-12 -4 -35 -19 -69 -45c18.667 -30 35 -61.667 49 -95s25.5 -66.666 34.5 -99.999s15.667 -65.833 20 -97.5s6.5 -60.834 6.5 -87.501c0 -27.333 -4 -53.166 -12 -77.499
s-19.167 -45.5 -33.5 -63.5s-31.5 -32.333 -51.5 -43s-42 -16 -66 -16c-50 0 -88.167 15.5 -114.5 46.5s-39.5 74.5 -39.5 130.5c0 28 4.16699 56.167 12.5 84.5s19.666 53.666 33.999 75.999s31.166 40.666 50.499 54.999s40.333 21.5 63 21.5
c13.333 0 25.833 -1.83301 37.5 -5.5s22.167 -8.83398 31.5 -15.501c-9.33301 26 -19.666 51.833 -30.999 77.5s-24 50.167 -38 73.5c-19.333 -16 -34 -29.667 -44 -41c-4 -4 -7.5 -9.33301 -10.5 -16l-8.5 -19c-2.66699 -6 -5.83398 -11.167 -9.50098 -15.5
s-7.83398 -6.5 -12.501 -6.5c-4 0 -8.33301 1.5 -13 4.5s-9 6.33301 -13 10s-7.5 7.16699 -10.5 10.5s-4.5 5.66602 -4.5 6.99902c0 2.66699 0.666992 4.66699 2 6l50 48l51 46c-7.33301 10.667 -15.5 21.334 -24.5 32.001s-18.5 20.334 -28.5 29.001s-20.333 15.667 -31 21
s-21 8 -31 8c-2.66699 6 -4 12.333 -4 19c0 15.333 4.16699 25 12.5 29s14.833 6 19.5 6c7.33301 0 16 -2.83301 26 -8.5s20 -12.167 30 -19.5s19.333 -15 28 -23s15 -14.333 19 -19c5.33301 -5.33301 10.333 -11 15 -17s9.33398 -12.333 14.001 -19
c14.667 12 27 21.667 37 29s18.333 13 25 17s12.167 6.66699 16.5 8s8.5 2 12.5 2c10 0 18 -3.66699 24 -11zM294.002 171.002c0 23.333 -2.16406 45 -6.49707 65s-10.5 37.333 -18.5 52s-17.833 26.167 -29.5 34.5s-24.834 12.5 -39.501 12.5c-17.333 0 -33.333 -5 -48 -15
s-27.334 -23.5 -38.001 -40.5s-19 -36.667 -25 -59s-9 -45.833 -9 -70.5c0 -44 8.5 -79.333 25.5 -106s41.5 -40 73.5 -40c17.333 0 33.166 4.33301 47.499 13s26.5 20.667 36.5 36s17.667 33 23 53s8 41.667 8 65z" />
    <glyph glyph-name="ntilde" unicode="&#xf1;" horiz-adv-x="357" 
d="M301 520c0 -9.33301 -11.001 -21 -33.001 -35s-38.333 -21 -49 -21c-16 0 -31.333 5.16699 -46 15.5s-26.667 15.5 -36 15.5c-12 0 -24.5 -4.5 -37.5 -13.5l-19.5 -13.5c-8.66699 0 -13 4.33301 -13 13c0 10 10.833 21.167 32.5 33.5s37.834 18.5 48.501 18.5
c14.667 0 28.667 -5.5 42 -16.5s25.333 -16.5 36 -16.5c11.333 0 24 5.5 38 16.5s21.667 16.5 23 16.5c9.33301 0 14 -4.33301 14 -13zM336.999 -5c-4 -7.33301 -9.66797 -10.999 -17.001 -10.999s-19.333 4.66699 -36 14v8c0 6 0.333008 15 1 27s1 20.667 1 26
c0 221.333 -27.667 332 -83 332c-17.333 0 -36 -12.667 -56 -38c-50.667 -62.667 -76 -141.667 -76 -237c0 -12.667 2.16699 -31.334 6.5 -56.001s6.5 -43 6.5 -55c0 -10 -7 -15 -21 -15c-26.667 0 -40 21 -40 63v227c0 6 0.666992 14.667 2 26s2 20 2 26
c0 8.66699 -1.16699 21.334 -3.5 38.001s-3.5 29 -3.5 37c0 5.33301 4.16699 11.5 12.5 18.5s14.833 10.5 19.5 10.5c8.66699 0 16.667 -4.66699 24 -14c-2 -43.333 -3 -68.666 -3 -75.999c0 -10 0.333008 -19.667 1 -29c6 2 14 13 24 33
c12.667 25.333 23.334 42.666 32.001 51.999c16 18.667 34.333 28 55 28c8 0 20 -3 36 -9c36 -13.333 61.667 -35.333 77 -66c26 -52.667 39 -122.334 39 -209.001v-151z" />
    <glyph glyph-name="ograve" unicode="&#xf2;" horiz-adv-x="357" 
d="M251 462c0 -2 -1.16699 -5.33301 -3.5 -10s-4.5 -7 -6.5 -7c-12 0 -29.667 11.333 -53 34c-15.333 15.333 -30 26.333 -44 33c-6 0.666992 -14 3 -24 7l-2 6c0.666992 4.66699 4.16699 11.5 10.5 20.5s11.833 13.5 16.5 13.5c12.667 0 48 -31 106 -93v-4zM337 197
c0 -57.333 -12.667 -107.334 -38 -150.001c-30 -51.333 -71.667 -77 -125 -77c-54 0 -94.333 21 -121 63c-22 34.667 -33 80.667 -33 138c0 56.667 12.667 112.334 38 167.001c32 67.333 72.667 101 122 101c12.667 0 30.667 -7.33301 54 -22
c68.667 -42.667 103 -116 103 -220zM289 197.999c0 42.667 -5.66602 81.002 -16.999 115.002c-16.667 47.333 -42.334 71 -77.001 71c-40 0 -71.333 -26.333 -94 -79c-17.333 -40.667 -26 -84.334 -26 -131.001c0 -42 6 -77.333 18 -106c17.333 -39.333 44.333 -59 81 -59
c40 0 70.333 22.667 91 68c16 35.333 24 75.666 24 120.999z" />
    <glyph glyph-name="oacute" unicode="&#xf3;" horiz-adv-x="357" 
d="M240 535l-2 -6.00098c-6 -1.33301 -14 -3.66602 -24 -6.99902c-14 -6.66699 -28.667 -17.667 -44 -33c-23.333 -22.667 -41 -34 -53 -34c-2 0 -4.16699 2.33301 -6.5 7s-3.5 8 -3.5 10v4c58 62 93.333 93 106 93c4.66699 0 10.167 -4.5 16.5 -13.5
s9.83301 -15.833 10.5 -20.5zM337 196.999c0 -57.333 -12.667 -107.334 -38 -150.001c-30 -51.333 -71.667 -77 -125 -77c-54 0 -94.333 21 -121 63c-22 34.667 -33 80.667 -33 138c0 56.667 12.667 112.334 38 167.001c32 67.333 72.667 101 122 101
c12.667 0 30.667 -7.33301 54 -22c68.667 -42.667 103 -116 103 -220zM289 197.998c0 42.667 -5.66602 81.002 -16.999 115.002c-16.667 47.333 -42.334 71 -77.001 71c-40 0 -71.333 -26.333 -94 -79c-17.333 -40.667 -26 -84.334 -26 -131.001c0 -42 6 -77.333 18 -106
c17.333 -39.333 44.333 -59 81 -59c40 0 70.333 22.667 91 68c16 35.333 24 75.666 24 120.999z" />
    <glyph glyph-name="ocircumflex" unicode="&#xf4;" horiz-adv-x="357" 
d="M284 457c0 -2 -1.16699 -5.33301 -3.5 -10s-4.5 -7 -6.5 -7c-10.667 0 -28 11.333 -52 34c-8 7.33301 -15.333 12 -22 14c-10 3.33301 -17 6.33301 -21 9c-8 -1.33301 -22.333 -9 -43 -23c-24 -22.667 -41.333 -34 -52 -34c-2 0 -4.16699 2.33301 -6.5 7s-3.5 8 -3.5 10
v4c63.333 56.667 98.333 85 105 85s41.667 -28.333 105 -85v-4zM337 197c0 -57.333 -12.667 -107.334 -38 -150.001c-30 -51.333 -71.667 -77 -125 -77c-54 0 -94.333 21 -121 63c-22 34.667 -33 80.667 -33 138c0 56.667 12.667 112.334 38 167.001
c32 67.333 72.667 101 122 101c12.667 0 30.667 -7.33301 54 -22c68.667 -42.667 103 -116 103 -220zM289 197.999c0 42.667 -5.66602 81.002 -16.999 115.002c-16.667 47.333 -42.334 71 -77.001 71c-40 0 -71.333 -26.333 -94 -79
c-17.333 -40.667 -26 -84.334 -26 -131.001c0 -42 6 -77.333 18 -106c17.333 -39.333 44.333 -59 81 -59c40 0 70.333 22.667 91 68c16 35.333 24 75.666 24 120.999z" />
    <glyph glyph-name="otilde" unicode="&#xf5;" horiz-adv-x="357" 
d="M301 530c0 -9.33301 -11.001 -21 -33.001 -35s-38.333 -21 -49 -21c-16 0 -31.333 5.16699 -46 15.5s-26.667 15.5 -36 15.5c-12 0 -24.5 -4.5 -37.5 -13.5l-19.5 -13.5c-8.66699 0 -13 4.33301 -13 13c0 10 10.833 21.167 32.5 33.5s37.834 18.5 48.501 18.5
c14.667 0 28.667 -5.5 42 -16.5s25.333 -16.5 36 -16.5c11.333 0 24 5.5 38 16.5s21.667 16.5 23 16.5c9.33301 0 14 -4.33301 14 -13zM336.999 197c0 -57.333 -12.667 -107.334 -38 -150.001c-30 -51.333 -71.667 -77 -125 -77c-54 0 -94.333 21 -121 63
c-22 34.667 -33 80.667 -33 138c0 56.667 12.667 112.334 38 167.001c32 67.333 72.667 101 122 101c12.667 0 30.667 -7.33301 54 -22c68.667 -42.667 103 -116 103 -220zM288.999 197.999c0 42.667 -5.66602 81.002 -16.999 115.002c-16.667 47.333 -42.334 71 -77.001 71
c-40 0 -71.333 -26.333 -94 -79c-17.333 -40.667 -26 -84.334 -26 -131.001c0 -42 6 -77.333 18 -106c17.333 -39.333 44.333 -59 81 -59c40 0 70.333 22.667 91 68c16 35.333 24 75.666 24 120.999z" />
    <glyph glyph-name="odieresis" unicode="&#xf6;" horiz-adv-x="357" 
d="M265 483c0 -8 -3 -15.167 -9 -21.5s-13.333 -9.5 -22 -9.5c-8 0 -15 3.16699 -21 9.5s-9 13.5 -9 21.5c0 8.66699 3 16.167 9 22.5s13 9.5 21 9.5c8.66699 0 16 -3.16699 22 -9.5s9 -13.833 9 -22.5zM150 483c0 -8 -3 -15.167 -9 -21.5s-13 -9.5 -21 -9.5
c-8.66699 0 -16 3.16699 -22 9.5s-9 13.5 -9 21.5c0 8.66699 3 16.167 9 22.5s13.333 9.5 22 9.5c8 0 15 -3.16699 21 -9.5s9 -13.833 9 -22.5zM337 197c0 -57.333 -12.667 -107.334 -38 -150.001c-30 -51.333 -71.667 -77 -125 -77c-54 0 -94.333 21 -121 63
c-22 34.667 -33 80.667 -33 138c0 56.667 12.667 112.334 38 167.001c32 67.333 72.667 101 122 101c12.667 0 30.667 -7.33301 54 -22c68.667 -42.667 103 -116 103 -220zM289 197.999c0 42.667 -5.66602 81.002 -16.999 115.002c-16.667 47.333 -42.334 71 -77.001 71
c-40 0 -71.333 -26.333 -94 -79c-17.333 -40.667 -26 -84.334 -26 -131.001c0 -42 6 -77.333 18 -106c17.333 -39.333 44.333 -59 81 -59c40 0 70.333 22.667 91 68c16 35.333 24 75.666 24 120.999z" />
    <glyph glyph-name="divide" unicode="&#xf7;" horiz-adv-x="520" 
d="M500 360c0 -32.667 -15.333 -48.999 -46 -48.999h-427c-4.66699 8.66699 -7 17 -7 25c0 7.33301 2.66699 14.833 8 22.5s11.333 11.5 18 11.5c4.66699 0 12 -0.5 22 -1.5l31 -3c10.667 -1 20.834 -1.83301 30.501 -2.5s17.167 -1 22.5 -1h280c15.333 0 35.666 3 60.999 9
c4.66699 -2.66699 7 -6.33398 7 -11.001zM309 529.001c0 -12.667 -5.16699 -22.999 -15.5 -30.999s-22.166 -12 -35.499 -12c-10.667 0 -21.834 4.16699 -33.501 12.5s-17.5 17.833 -17.5 28.5c0 13.333 6 23.666 18 30.999s25.667 11 41 11c10 0 19.667 -4.16699 29 -12.5
s14 -17.5 14 -27.5zM300 143.002c0 -8.66699 -3.66699 -17.5 -11 -26.5s-15.333 -13.5 -24 -13.5c-5.33301 0 -11.333 1.5 -18 4.5s-13 7 -19 12s-11 10.5 -15 16.5s-6 11.667 -6 17c0 8 4 16.667 12 26s15.667 14 23 14c14 0 27.167 -4.83301 39.5 -14.5
s18.5 -21.5 18.5 -35.5z" />
    <glyph glyph-name="oslash" unicode="&#xf8;" horiz-adv-x="357" 
d="M337 197c0 -57.333 -12.667 -107.333 -38 -150c-30 -51.333 -71.667 -77 -125 -77c-28.667 0 -53.667 6 -75 18c-20.667 -40 -40 -60 -58 -60c-10 0 -15 4.66699 -15 14c0 -2.66699 13.333 21.333 40 72c-30.667 35.333 -46 87.666 -46 156.999
c0 56.667 12.667 112.334 38 167.001c32 67.333 72.667 101 122 101c16.667 0 39.667 -10.667 69 -32c8 24 14.667 40 20 48c10.667 16 25.334 24 44.001 24c7.33301 0 14.666 -3.66699 21.999 -11c-10 -12.667 -23 -32.667 -39 -60l-14 -31c36.667 -44 55 -104 55 -180z
M236 369c-12 10 -25.667 15.001 -41 15.001c-40 0 -71.333 -26.333 -94 -79c-17.333 -40.667 -26 -84.334 -26 -131.001c0 -42 6 -77.333 18 -106c33.333 66 81 166.333 143 301zM289 198.001c0 54 -8.66699 99.334 -26 136.001l-143 -305c14.667 -13.333 32.667 -20 54 -20
c40 0 70.333 22.667 91 68c16 35.333 24 75.666 24 120.999z" />
    <glyph glyph-name="ugrave" unicode="&#xf9;" horiz-adv-x="321" 
d="M211 462c0 -2 -1.16699 -5.33301 -3.5 -10s-4.5 -7 -6.5 -7c-12 0 -29.667 11.333 -53 34c-15.333 15.333 -30 26.333 -44 33c-6 0.666992 -14 3 -24 7l-2 6c0.666992 4.66699 4.16699 11.5 10.5 20.5s11.833 13.5 16.5 13.5c12.667 0 48 -31 106 -93v-4zM301 368
c0 -22.667 -2.49805 -56.834 -7.49805 -102.501s-7.5 -79.834 -7.5 -102.501c0 -1.33301 1 -62 3 -182c-4 -2.66699 -9.66699 -4 -17 -4c-14.667 0 -24 6.33301 -28 19s-7.33301 25 -10 37c-37.333 -26.667 -66.333 -40 -87 -40c-16 0 -35 4.83301 -57 14.5
s-36.667 20.5 -44 32.5c-17.333 28.667 -26 74.334 -26 137.001c0 22 1 61 3 117c1.33301 49.333 1.66602 88.333 0.999023 117c11.333 8.66699 21.333 13 30 13c18.667 0 28 -10.667 28 -32c0 -11.333 -1.5 -28.5 -4.5 -51.5s-4.5 -40.167 -4.5 -51.5v-154
c0 -1.33301 1.66699 -9.66602 5 -24.999c6 -26 12 -44.333 18 -55c11.333 -18.667 27.333 -28 48 -28c34 0 60 22.667 78 68c13.333 34 20 71.333 20 112v131c0 18.667 -3 37.667 -9 57c7.33301 6.66699 15.666 10 24.999 10c10.667 0 20.5 -3.5 29.5 -10.5
s13.5 -15.833 13.5 -26.5z" />
    <glyph glyph-name="uacute" unicode="&#xfa;" horiz-adv-x="321" 
d="M240 525l-2 -6.00098c-6 -1.33301 -14 -3.66602 -24 -6.99902c-14 -6.66699 -28.667 -17.667 -44 -33c-23.333 -22.667 -41 -34 -53 -34c-2 0 -4.16699 2.33301 -6.5 7s-3.5 8 -3.5 10v4c58 62 93.333 93 106 93c4.66699 0 10.167 -4.5 16.5 -13.5
s9.83301 -15.833 10.5 -20.5zM301 367.999c0 -22.667 -2.49805 -56.834 -7.49805 -102.501s-7.5 -79.834 -7.5 -102.501c0 -1.33301 1 -62 3 -182c-4 -2.66699 -9.66699 -4 -17 -4c-14.667 0 -24 6.33301 -28 19s-7.33301 25 -10 37c-37.333 -26.667 -66.333 -40 -87 -40
c-16 0 -35 4.83301 -57 14.5s-36.667 20.5 -44 32.5c-17.333 28.667 -26 74.334 -26 137.001c0 22 1 61 3 117c1.33301 49.333 1.66602 88.333 0.999023 117c11.333 8.66699 21.333 13 30 13c18.667 0 28 -10.667 28 -32c0 -11.333 -1.5 -28.5 -4.5 -51.5
s-4.5 -40.167 -4.5 -51.5v-154c0 -1.33301 1.66699 -9.66602 5 -24.999c6 -26 12 -44.333 18 -55c11.333 -18.667 27.333 -28 48 -28c34 0 60 22.667 78 68c13.333 34 20 71.333 20 112v131c0 18.667 -3 37.667 -9 57c7.33301 6.66699 15.666 10 24.999 10
c10.667 0 20.5 -3.5 29.5 -10.5s13.5 -15.833 13.5 -26.5z" />
    <glyph glyph-name="ucircumflex" unicode="&#xfb;" horiz-adv-x="321" 
d="M264 457c0 -2 -1.16699 -5.33301 -3.5 -10s-4.5 -7 -6.5 -7c-10.667 0 -28 11.333 -52 34c-8 7.33301 -15.333 12 -22 14c-10 3.33301 -17 6.33301 -21 9c-8 -1.33301 -22.333 -9 -43 -23c-24 -22.667 -41.333 -34 -52 -34c-2 0 -4.16699 2.33301 -6.5 7s-3.5 8 -3.5 10
v4c63.333 56.667 98.333 85 105 85s41.667 -28.333 105 -85v-4zM301 368c0 -22.667 -2.49805 -56.834 -7.49805 -102.501s-7.5 -79.834 -7.5 -102.501c0 -1.33301 1 -62 3 -182c-4 -2.66699 -9.66699 -4 -17 -4c-14.667 0 -24 6.33301 -28 19s-7.33301 25 -10 37
c-37.333 -26.667 -66.333 -40 -87 -40c-16 0 -35 4.83301 -57 14.5s-36.667 20.5 -44 32.5c-17.333 28.667 -26 74.334 -26 137.001c0 22 1 61 3 117c1.33301 49.333 1.66602 88.333 0.999023 117c11.333 8.66699 21.333 13 30 13c18.667 0 28 -10.667 28 -32
c0 -11.333 -1.5 -28.5 -4.5 -51.5s-4.5 -40.167 -4.5 -51.5v-154c0 -1.33301 1.66699 -9.66602 5 -24.999c6 -26 12 -44.333 18 -55c11.333 -18.667 27.333 -28 48 -28c34 0 60 22.667 78 68c13.333 34 20 71.333 20 112v131c0 18.667 -3 37.667 -9 57
c7.33301 6.66699 15.666 10 24.999 10c10.667 0 20.5 -3.5 29.5 -10.5s13.5 -15.833 13.5 -26.5z" />
    <glyph glyph-name="udieresis" unicode="&#xfc;" horiz-adv-x="321" 
d="M245 483c0 -8 -3 -15.167 -9 -21.5s-13.333 -9.5 -22 -9.5c-8 0 -15 3.16699 -21 9.5s-9 13.5 -9 21.5c0 8.66699 3 16.167 9 22.5s13 9.5 21 9.5c8.66699 0 16 -3.16699 22 -9.5s9 -13.833 9 -22.5zM130 483c0 -8 -3 -15.167 -9 -21.5s-13 -9.5 -21 -9.5
c-8.66699 0 -16 3.16699 -22 9.5s-9 13.5 -9 21.5c0 8.66699 3 16.167 9 22.5s13.333 9.5 22 9.5c8 0 15 -3.16699 21 -9.5s9 -13.833 9 -22.5zM301 368c0 -22.667 -2.49805 -56.834 -7.49805 -102.501s-7.5 -79.834 -7.5 -102.501c0 -1.33301 1 -62 3 -182
c-4 -2.66699 -9.66699 -4 -17 -4c-14.667 0 -24 6.33301 -28 19s-7.33301 25 -10 37c-37.333 -26.667 -66.333 -40 -87 -40c-16 0 -35 4.83301 -57 14.5s-36.667 20.5 -44 32.5c-17.333 28.667 -26 74.334 -26 137.001c0 22 1 61 3 117
c1.33301 49.333 1.66602 88.333 0.999023 117c11.333 8.66699 21.333 13 30 13c18.667 0 28 -10.667 28 -32c0 -11.333 -1.5 -28.5 -4.5 -51.5s-4.5 -40.167 -4.5 -51.5v-154c0 -1.33301 1.66699 -9.66602 5 -24.999c6 -26 12 -44.333 18 -55
c11.333 -18.667 27.333 -28 48 -28c34 0 60 22.667 78 68c13.333 34 20 71.333 20 112v131c0 18.667 -3 37.667 -9 57c7.33301 6.66699 15.666 10 24.999 10c10.667 0 20.5 -3.5 29.5 -10.5s13.5 -15.833 13.5 -26.5z" />
    <glyph glyph-name="yacute" unicode="&#xfd;" horiz-adv-x="369" 
d="M345 392c-5.33301 -29.333 -10.334 -58.668 -15.001 -88.001c-6 -31.333 -9 -60.666 -9 -87.999l-1 -313c0 -44.667 -13.5 -80.167 -40.5 -106.5s-63.167 -39.5 -108.5 -39.5c-24.667 0 -52.334 6.66699 -83.001 20c-35.333 14.667 -59.666 33 -72.999 55
c-3.33301 6 -5 12 -5 18c0 19.333 9.33301 29 28 29c4 0 8.33301 -1.33301 13 -4l34 -35c22.667 -20.667 51.334 -31 86.001 -31c44 0 73.333 15.333 88 46c8.66699 19.333 13 54.333 13 105c0 6.66699 -1.33301 20 -4 40c-2.66699 16.667 -3.33398 31.334 -2.00098 44.001
c-18.667 -17.333 -32 -28.333 -40 -33c-14.667 -9.33301 -30.667 -14 -48 -14c-45.333 0 -79.666 17.667 -102.999 53c-20.667 30.667 -31 69.667 -31 117c0 90 1.33301 166 4 228c2.66699 21.333 14.334 32 35.001 32c25.333 0 36.666 -4.33301 33.999 -13
c-12.667 -34.667 -19 -112.334 -19 -233.001c0 -93.333 26.667 -140 80 -140c32.667 0 58.667 25 78 75c14.667 38.667 21.667 77.667 21 117l-1 114l2.5 43c1 17.333 11.833 25.333 32.5 24c24 -2 35.333 -9.33301 34 -22zM255.999 561.998l-2 -7
c-6.66699 -1.33301 -16 -4.33301 -28 -9c-16 -7.33301 -33.333 -20 -52 -38c-27.333 -26.667 -48 -40 -62 -40c-2 0 -4.5 2.66699 -7.5 8s-4.5 9.33301 -4.5 12l1 5c68 72.667 109.333 109 124 109c6 0 12.667 -5.16699 20 -15.5s11 -18.5 11 -24.5z" />
    <glyph glyph-name="thorn" unicode="&#xfe;" horiz-adv-x="350" 
d="M324 211c0 -25.333 -2.83203 -48.998 -8.49902 -70.998s-12.167 -42.333 -19.5 -61c-26 -62 -67 -93 -123 -93c-37.333 0 -69.333 17 -96 51c-4.66699 -2 -7 -22.667 -7 -62c0 -44 0.833008 -81.333 2.5 -112s5.16699 -54.667 10.5 -72
c5.33301 -18.667 9.66602 -30.667 12.999 -36s5 -8.66602 5 -9.99902c0 -11.333 -6.66699 -17 -20 -17c-16 0 -27.333 2.33301 -34 7c-2 2 -4.33301 7 -7 15s-5.16699 17 -7.5 27s-4.16602 20.167 -5.49902 30.5s-2 18.833 -2 25.5v132.5c0 39 0.166992 76.5 0.5 112.5
s1 72.5 2 109.5l3.5 123.5c1.33301 45.333 3 96.666 5 153.999s4.66699 124.666 8 201.999h14c9.33301 0 18.166 -4.83301 26.499 -14.5s12.5 -19.5 12.5 -29.5s-1 -25.167 -3 -45.5l-6.5 -64.5l-6.5 -64.5c-2 -20.333 -3 -35.5 -3 -45.5v-38c5.33301 2 12 9.66699 20 23
c12.667 21.333 24.167 35.5 34.5 42.5s23.833 10.5 40.5 10.5c23.333 0 44.333 -5.83301 63 -17.5s34.5 -27.834 47.5 -48.501s23 -45 30 -73s10.5 -58.333 10.5 -91zM256.001 106.002c5.33301 17.333 9.83203 34.6641 13.499 51.9971s5.5 36.666 5.5 57.999
c0 10.667 -1.83301 25.834 -5.5 45.501s-9.16699 39.334 -16.5 59.001s-16.5 36.667 -27.5 51s-23.833 21.5 -38.5 21.5c-17.333 0 -33.166 -7 -47.499 -21s-26.666 -33.667 -36.999 -59s-18.333 -55.666 -24 -90.999s-8.5 -74.666 -8.5 -117.999
c1.33301 -0.666992 4 -2.5 8 -5.5s8.33301 -7.16699 13 -12.5l14.5 -23c5 -8 10.5 -15.5 16.5 -22.5s13.167 -12.833 21.5 -17.5s18.166 -7 29.499 -7c36 0 63.667 30 83 90z" />
    <glyph glyph-name="ydieresis" unicode="&#xff;" horiz-adv-x="359" 
d="M285 483c0 -8 -3 -15.167 -9 -21.5s-13.333 -9.5 -22 -9.5c-8 0 -15 3.16699 -21 9.5s-9 13.5 -9 21.5c0 8.66699 3 16.167 9 22.5s13 9.5 21 9.5c8.66699 0 16 -3.16699 22 -9.5s9 -13.833 9 -22.5zM170 483c0 -8 -3 -15.167 -9 -21.5s-13 -9.5 -21 -9.5
c-8.66699 0 -16 3.16699 -22 9.5s-9 13.5 -9 21.5c0 8.66699 3 16.167 9 22.5s13.333 9.5 22 9.5c8 0 15 -3.16699 21 -9.5s9 -13.833 9 -22.5zM339 392l-16.0029 -100.001c-6 -39.333 -9 -72.666 -9 -99.999v-289c0 -94 -46.333 -141 -139 -141
c-30 0 -61.333 6.66699 -94 20c-40.667 16 -61 36.333 -61 61c0 9.33301 5.66699 14 17 14c3.33301 0 10 -4.66699 20 -14c12 -12.667 24 -22 36 -28c18.667 -10 40.334 -15 65.001 -15c44.667 0 75.334 17 92.001 51c11.333 23.333 17 59.666 17 108.999
c0 34 -1.66699 60 -5 78c-30.667 -27.333 -60.667 -41 -90 -41c-45.333 0 -79.666 17.667 -102.999 53c-20 30 -30 68.667 -30 116c0 4.66699 3.33301 89.334 10 254.001c10.667 4.66699 20 7 28 7c9.33301 0 21 -4.66699 35 -14c-13.333 -34 -20 -111.667 -20 -233
c0 -103.333 26 -155 78 -155c32.667 0 59.334 28 80.001 84c15.333 44 23 86.333 23 127v129c0 2.66699 -0.333008 6.66699 -1 12s-1 9 -1 11c16.667 9.33301 30 14 40 14c9.33301 0 18.666 -3.33301 27.999 -10z" />
    <glyph glyph-name="Amacron" unicode="&#x100;" horiz-adv-x="508" 
d="M498 189c0 -21.333 -8.33105 -32.0029 -24.998 -32.0029c-6.66699 0 -13.667 1.33301 -21 4c0 -34 8.33301 -72 25 -114c-0.666992 -8.66699 -4.83398 -15.667 -12.501 -21s-16.167 -8 -25.5 -8c-8 0 -17 2.33301 -27 7c-5.33301 10.667 -8 27.334 -8 50.001
c0 6 0.333008 17 1 33v33c0 12 -1 20 -3 24c-6 0.666992 -14.5 0.333984 -25.5 -0.999023s-18.833 -2 -23.5 -2c-28.667 0 -73.667 -4 -135 -12c-70 -9.33301 -110.333 -18.666 -121 -27.999c-6 -4.66699 -12.333 -28.667 -19 -72c-5.33301 -35.333 -8.33301 -61.333 -9 -78
c-3.33301 -4.66699 -8 -7 -14 -7c-8.66699 0 -18.334 4.33301 -29.001 13s-16 17 -16 25c0 4 2.66699 13 8 27s8.33301 22.667 9 26c11.333 74 33 155.667 65 245c88 250 156 375 204 375c51.333 0 91 -65.333 119 -196c10 -46 21.667 -134 35 -264c4 -3.33301 14 -7 30 -11
c12 -2.66699 18 -8 18 -16zM401.002 217.997c-16.667 117.333 -27.335 188.333 -32.002 213c-22 112 -45.333 167.667 -70 167c-27.333 -1.33301 -61.666 -52.666 -102.999 -153.999l-69 -192c-4 -8.66699 -8.33301 -21.667 -13 -39c-2.66699 -16 2 -24 14 -24
c4 0 24.333 3.33301 61 10c28.667 5.33301 99.334 11.666 212.001 18.999zM147.001 723.997c-0.666992 2 -0.999023 5.33496 -0.999023 10.002c0 3.33301 0.333008 6.83301 1 10.5s2.33398 6.5 5.00098 8.5c18 2 43.167 4 75.5 6s65.833 3 100.5 3
c14.667 0 24 -1.83301 28 -5.5s6 -9.16699 6 -16.5c0 -13.333 -6.33301 -20 -19 -20c-11.333 0 -25.833 0.333008 -43.5 1s-34.5 1 -50.5 1s-29.167 -0.333008 -39.5 -1s-18.833 -1.33398 -25.5 -2.00098s-11.834 -1.33398 -15.501 -2.00098s-6.83398 -1 -9.50098 -1
c-6.66699 0 -10.667 2.66699 -12 8z" />
    <glyph glyph-name="amacron" unicode="&#x101;" horiz-adv-x="361" 
d="M336 -29c0 -9.33301 -7.33496 -14.001 -22.002 -14.001c-16 0 -25.667 6.66699 -29 20c-0.666992 2 -1 15 -1 39c0 6.66699 -1 12 -3 16c-37.333 -27.333 -77.666 -41 -120.999 -41c-30 0 -59 8.33301 -87 25c-32 18.667 -48 42 -48 70c0 27.333 19 54 57 80
c34.667 24 66.667 36 96 36h99c4 4 6 11 6 21c0 44.667 -3.66699 78.334 -11 101.001c-12 38 -35.667 57 -71 57c-25.333 0 -48.666 -16 -69.999 -48c-19.333 -29.333 -29 -57.333 -29 -84v-6v-5c0 -5.33301 -2.66699 -8 -8 -8c-6.66699 0 -14 4 -22 12s-12 15 -12 21
c0 18.667 5.66699 42.167 17 70.5s23.666 49.833 36.999 64.5c16.667 18 37.334 27 62.001 27c38 0 73 -12 105 -36c34 -26 51.333 -57.333 52 -94zM282.998 129.999c0 26.667 -20.667 40 -62 40c-32.667 0 -61.334 -5.66699 -86.001 -17
c-31.333 -14.667 -47 -36.667 -47 -66c0 -18 8.33301 -32 25 -42c14 -8.66699 30.667 -13 50 -13c28.667 0 55.834 9.33301 81.501 28s38.5 42 38.5 70zM72.998 472.999c-0.666992 2 -0.999023 5.33496 -0.999023 10.002c0 3.33301 0.333008 6.83301 1 10.5
s2.33398 6.5 5.00098 8.5c18 2 43.167 4 75.5 6s65.833 3 100.5 3c14.667 0 24 -1.83301 28 -5.5s6 -9.16699 6 -16.5c0 -13.333 -6.33301 -20 -19 -20c-11.333 0 -25.833 0.333008 -43.5 1s-34.5 1 -50.5 1s-29.167 -0.333008 -39.5 -1s-18.833 -1.33398 -25.5 -2.00098
s-11.834 -1.33398 -15.501 -2.00098s-6.83398 -1 -9.50098 -1c-6.66699 0 -10.667 2.66699 -12 8z" />
    <glyph glyph-name="Abreve" unicode="&#x102;" horiz-adv-x="508" 
d="M498 189c0 -21.333 -8.33105 -32.0029 -24.998 -32.0029c-6.66699 0 -13.667 1.33301 -21 4c0 -34 8.33301 -72 25 -114c-0.666992 -8.66699 -4.83398 -15.667 -12.501 -21s-16.167 -8 -25.5 -8c-8 0 -17 2.33301 -27 7c-5.33301 10.667 -8 27.334 -8 50.001
c0 6 0.333008 17 1 33v33c0 12 -1 20 -3 24c-6 0.666992 -14.5 0.333984 -25.5 -0.999023s-18.833 -2 -23.5 -2c-28.667 0 -73.667 -4 -135 -12c-70 -9.33301 -110.333 -18.666 -121 -27.999c-6 -4.66699 -12.333 -28.667 -19 -72c-5.33301 -35.333 -8.33301 -61.333 -9 -78
c-3.33301 -4.66699 -8 -7 -14 -7c-8.66699 0 -18.334 4.33301 -29.001 13s-16 17 -16 25c0 4 2.66699 13 8 27s8.33301 22.667 9 26c11.333 74 33 155.667 65 245c88 250 156 375 204 375c51.333 0 91 -65.333 119 -196c10 -46 21.667 -134 35 -264c4 -3.33301 14 -7 30 -11
c12 -2.66699 18 -8 18 -16zM401.002 217.997c-16.667 117.333 -27.335 188.333 -32.002 213c-22 112 -45.333 167.667 -70 167c-27.333 -1.33301 -61.666 -52.666 -102.999 -153.999l-69 -192c-4 -8.66699 -8.33301 -21.667 -13 -39c-2.66699 -16 2 -24 14 -24
c4 0 24.333 3.33301 61 10c28.667 5.33301 99.334 11.666 212.001 18.999zM364.001 802.997c0 -26.667 -11.499 -47.835 -34.499 -63.502s-48.167 -23.5 -75.5 -23.5s-52 7.33301 -74 22c-24 16.667 -36 38.334 -36 65.001c0 10 5 15 15 15s15 -5 15 -15
c0 -32 25.667 -48 77 -48c19.333 0 36.666 3.33301 51.999 10c20.667 8.66699 31 21.334 31 38.001c0 10 5 15 15 15s15 -5 15 -15z" />
    <glyph glyph-name="abreve" unicode="&#x103;" horiz-adv-x="361" 
d="M336 -29c0 -9.33301 -7.33496 -14.001 -22.002 -14.001c-16 0 -25.667 6.66699 -29 20c-0.666992 2 -1 15 -1 39c0 6.66699 -1 12 -3 16c-37.333 -27.333 -77.666 -41 -120.999 -41c-30 0 -59 8.33301 -87 25c-32 18.667 -48 42 -48 70c0 27.333 19 54 57 80
c34.667 24 66.667 36 96 36h99c4 4 6 11 6 21c0 44.667 -3.66699 78.334 -11 101.001c-12 38 -35.667 57 -71 57c-25.333 0 -48.666 -16 -69.999 -48c-19.333 -29.333 -29 -57.333 -29 -84v-6v-5c0 -5.33301 -2.66699 -8 -8 -8c-6.66699 0 -14 4 -22 12s-12 15 -12 21
c0 18.667 5.66699 42.167 17 70.5s23.666 49.833 36.999 64.5c16.667 18 37.334 27 62.001 27c38 0 73 -12 105 -36c34 -26 51.333 -57.333 52 -94zM282.998 129.999c0 26.667 -20.667 40 -62 40c-32.667 0 -61.334 -5.66699 -86.001 -17
c-31.333 -14.667 -47 -36.667 -47 -66c0 -18 8.33301 -32 25 -42c14 -8.66699 30.667 -13 50 -13c28.667 0 55.834 9.33301 81.501 28s38.5 42 38.5 70zM289.998 552.999c0 -26.667 -11.499 -47.835 -34.499 -63.502s-48.167 -23.5 -75.5 -23.5s-52 7.33301 -74 22
c-24 16.667 -36 38.334 -36 65.001c0 10 5 15 15 15s15 -5 15 -15c0 -32 25.667 -48 77 -48c19.333 0 36.666 3.33301 51.999 10c20.667 8.66699 31 21.334 31 38.001c0 10 5 15 15 15s15 -5 15 -15z" />
    <glyph glyph-name="Aogonek" unicode="&#x104;" horiz-adv-x="508" 
d="M498 189c0 -21.333 -8.33105 -32.0029 -24.998 -32.0029c-6.66699 0 -13.667 1.33301 -21 4c0 -34 8.33301 -72 25 -114c-0.666992 -8.66699 -4.83398 -15.667 -12.501 -21s-16.167 -8 -25.5 -8c-8 0 -17 2.33301 -27 7c-5.33301 10.667 -8 27.334 -8 50.001
c0 6 0.333008 17 1 33v33c0 12 -1 20 -3 24c-6 0.666992 -14.5 0.333984 -25.5 -0.999023s-18.833 -2 -23.5 -2c-28.667 0 -73.667 -4 -135 -12c-70 -9.33301 -110.333 -18.666 -121 -27.999c-6 -4.66699 -12.333 -28.667 -19 -72c-5.33301 -35.333 -8.33301 -61.333 -9 -78
c-3.33301 -4.66699 -8 -7 -14 -7c-8.66699 0 -18.334 4.33301 -29.001 13s-16 17 -16 25c0 4 2.66699 13 8 27s8.33301 22.667 9 26c11.333 74 33 155.667 65 245c88 250 156 375 204 375c51.333 0 91 -65.333 119 -196c10 -46 21.667 -134 35 -264c4 -3.33301 14 -7 30 -11
c12 -2.66699 18 -8 18 -16zM401.002 217.997c-16.667 117.333 -27.335 188.333 -32.002 213c-22 112 -45.333 167.667 -70 167c-27.333 -1.33301 -61.666 -52.666 -102.999 -153.999l-69 -192c-4 -8.66699 -8.33301 -21.667 -13 -39c-2.66699 -16 2 -24 14 -24
c4 0 24.333 3.33301 61 10c28.667 5.33301 99.334 11.666 212.001 18.999zM498.001 -198.003c0 -10 -8.66504 -18.6689 -25.998 -26.002c-14 -5.33301 -27 -8 -39 -8c-22.667 0 -41.834 8.16699 -57.501 24.5s-23.5 35.833 -23.5 58.5c0 34.667 19 70.334 57 107.001
c5.33301 5.33301 10.666 8 15.999 8c8.66699 0 13 -4.33301 13 -13c0 -4.66699 -7 -18.167 -21 -40.5s-21 -41.166 -21 -56.499c0 -13.333 4.66699 -26.333 14 -39s20.333 -19 33 -19c8 0 15.833 3.16699 23.5 9.5s13.167 9.5 16.5 9.5c10 0 15 -5 15 -15z" />
    </font>
</defs>
</svg>
